<svg id="Banner_160_02" xmlns="http://www.w3.org/2000/svg" xmlns:xlink="http://www.w3.org/1999/xlink" width="120" height="160" viewBox="0 0 120 160">
  <defs>
    <linearGradient id="linear-gradient" x1="0.43" y1="0.224" x2="1" y2="1.044" gradientUnits="objectBoundingBox">
      <stop offset="0" stop-color="#b3b7c4"/>
      <stop offset="1" stop-color="#c6cbd2"/>
    </linearGradient>
  </defs>
  <rect id="_3X3_D_3Columns_" data-name="3X3_D(3Columns)" width="120" height="160" fill="url(#linear-gradient)"/>
  <g id="Icon" transform="translate(-548 -1092)">
    <circle id="타원_83" data-name="타원 83" cx="22" cy="22" r="22" transform="translate(586 1120)" fill="#fff"/>
    <g id="Icon-2" data-name="Icon" transform="translate(596.56 1130.56)">
      <rect id="Guide" width="22" height="22" transform="translate(0.44 0.44)" fill="#fff" opacity="0"/>
      <g id="Icon-3" data-name="Icon" transform="translate(2.508 1.419)">
        <g id="패스_3311" data-name="패스 3311" transform="translate(-279.004 -241.717)" fill="none" stroke-miterlimit="10">
          <path d="M294.9,259.221H280.529a1.545,1.545,0,0,1-.991-2.713,5.93,5.93,0,0,0,2.08-4.521v-2.456a6.1,6.1,0,1,1,12.2,0v2.456a5.931,5.931,0,0,0,2.072,4.515,1.545,1.545,0,0,1-.983,2.719Z" stroke="none"/>
          <path d="M 294.9033508300781 257.7210998535156 L 294.9054565429688 257.7210388183594 C 294.9056701660156 257.7209777832031 294.9279479980469 257.7108764648438 294.9279479980469 257.6793212890625 C 294.9279479980469 257.6654663085938 294.9245300292969 257.6532897949219 294.910888671875 257.6415710449219 C 293.2607727050781 256.2297058105469 292.3143615722656 254.168701171875 292.3143615722656 251.9870452880859 L 292.3143615722656 249.5314636230469 C 292.3143615722656 246.9583740234375 290.2518005371094 244.8650207519531 287.716552734375 244.8650207519531 C 285.1806640625 244.8650207519531 283.1175537109375 246.9583740234375 283.1175537109375 249.5314636230469 L 283.1175537109375 251.9870452880859 C 283.1175537109375 254.1673278808594 282.1702880859375 256.228271484375 280.5182189941406 257.6428833007812 C 280.5091552734375 257.6513061523438 280.5039672851562 257.6644897460938 280.5039672851562 257.6793212890625 C 280.5039672851562 257.7105407714844 280.5266723632812 257.720947265625 280.5291442871094 257.7210998535156 L 294.9033508300781 257.7210998535156 M 294.9033508300781 259.2210998535156 L 280.5291442871094 259.2210998535156 C 279.6881713867188 259.2210998535156 279.0039672851562 258.5294494628906 279.0039672851562 257.6793212890625 C 279.0039672851562 257.2285766601562 279.1985473632812 256.8011474609375 279.5377197265625 256.5076904296875 C 280.8625183105469 255.3757476806641 281.6175537109375 253.7305145263672 281.6175537109375 251.9870452880859 L 281.6175537109375 249.5314636230469 C 281.6175537109375 246.1310424804688 284.3531188964844 243.3650207519531 287.716552734375 243.3650207519531 C 291.0787963867188 243.3650207519531 293.8143615722656 246.1310424804688 293.8143615722656 249.5314636230469 L 293.8143615722656 251.9870452880859 C 293.8143615722656 253.7305145263672 294.5699768066406 255.3757476806641 295.8860778808594 256.5018310546875 C 296.2339782714844 256.8011474609375 296.4279479980469 257.2285766601562 296.4279479980469 257.6793212890625 C 296.4279479980469 258.5294494628906 295.7443542480469 259.2210998535156 294.9033508300781 259.2210998535156 Z" stroke="none" fill="#777d9a"/>
        </g>
        <line id="선_11" data-name="선 11" y2="2.188" transform="translate(8.693)" fill="none" stroke="#777d9a" stroke-linecap="round" stroke-miterlimit="10" stroke-width="1.5"/>
        <path id="패스_3312" data-name="패스 3312" d="M294.36,270.321a2.178,2.178,0,1,1-4.356,0" transform="translate(-283.47 -252.906)" fill="none" stroke="#777d9a" stroke-miterlimit="10" stroke-width="1.5"/>
      </g>
    </g>
  </g>
</svg>
