<svg xmlns="http://www.w3.org/2000/svg" width="14.15" height="11.002" viewBox="0 0 14.15 11.002">
  <g id="구성_요소_60_2" data-name="구성 요소 60 – 2" transform="translate(14.15 11.002) rotate(180)">
    <path id="합치기_11" data-name="합치기 11" d="M16901.244-1721.949a4.652,4.652,0,0,1-1.244-3.466,7.465,7.465,0,0,1,4.736-6.585l.7,1.107a5.539,5.539,0,0,0-2.936,4.523,1.694,1.694,0,0,1,1.115-.25,2.8,2.8,0,0,1,2.533,2.8,2.783,2.783,0,0,1-2.75,2.817A3,3,0,0,1,16901.244-1721.949Zm-8,0a4.668,4.668,0,0,1-1.244-3.466,7.465,7.465,0,0,1,4.736-6.585l.7,1.107a5.532,5.532,0,0,0-2.932,4.523,1.68,1.68,0,0,1,1.111-.25,2.8,2.8,0,0,1,2.533,2.8,2.782,2.782,0,0,1-2.746,2.817A3,3,0,0,1,16893.242-1721.949Z" transform="translate(-16891.998 1732.001)" fill="#c4c4c4"/>
  </g>
</svg>
