<svg width="32" height="32" viewBox="0 0 32 32" fill="none" xmlns="http://www.w3.org/2000/svg">
<path d="M16.0557 6L16.0557 22" stroke="black" stroke-width="2" stroke-miterlimit="10"/>
<path d="M9 12.4L16 6L23 12.4" stroke="black" stroke-width="2"/>
<mask id="path-3-inside-1_1352_25097" fill="white">
<path d="M5 18.0018V24.3333C5 25.8061 6.19391 27 7.66667 27H24.3333C25.8061 27 27 25.8075 27 24.3348C27 22.4399 27 19.9037 27 18"/>
</mask>
<path d="M3 18.0018V24.3333H7V18.0018H3ZM7.66667 29H24.3333V25H7.66667V29ZM29 24.3348C29 24.3311 29 24.3274 29 24.3237C29 24.32 29 24.3163 29 24.3125C29 24.3088 29 24.3051 29 24.3014C29 24.2977 29 24.294 29 24.2903C29 24.2865 29 24.2828 29 24.2791C29 24.2754 29 24.2716 29 24.2679C29 24.2642 29 24.2604 29 24.2567C29 24.253 29 24.2492 29 24.2455C29 24.2418 29 24.238 29 24.2343C29 24.2305 29 24.2268 29 24.223C29 24.2193 29 24.2155 29 24.2118C29 24.208 29 24.2043 29 24.2005C29 24.1967 29 24.193 29 24.1892C29 24.1855 29 24.1817 29 24.1779C29 24.1742 29 24.1704 29 24.1666C29 24.1628 29 24.1591 29 24.1553C29 24.1515 29 24.1477 29 24.144C29 24.1402 29 24.1364 29 24.1326C29 24.1288 29 24.125 29 24.1212C29 24.1175 29 24.1137 29 24.1099C29 24.1061 29 24.1023 29 24.0985C29 24.0947 29 24.0909 29 24.0871C29 24.0833 29 24.0795 29 24.0757C29 24.0718 29 24.068 29 24.0642C29 24.0604 29 24.0566 29 24.0528C29 24.049 29 24.0451 29 24.0413C29 24.0375 29 24.0337 29 24.0298C29 24.026 29 24.0222 29 24.0184C29 24.0145 29 24.0107 29 24.0069C29 24.003 29 23.9992 29 23.9954C29 23.9915 29 23.9877 29 23.9838C29 23.98 29 23.9761 29 23.9723C29 23.9684 29 23.9646 29 23.9607C29 23.9569 29 23.953 29 23.9492C29 23.9453 29 23.9415 29 23.9376C29 23.9337 29 23.9299 29 23.926C29 23.9222 29 23.9183 29 23.9144C29 23.9105 29 23.9067 29 23.9028C29 23.8989 29 23.8951 29 23.8912C29 23.8873 29 23.8834 29 23.8795C29 23.8757 29 23.8718 29 23.8679C29 23.864 29 23.8601 29 23.8562C29 23.8523 29 23.8484 29 23.8446C29 23.8407 29 23.8368 29 23.8329C29 23.829 29 23.8251 29 23.8212C29 23.8173 29 23.8134 29 23.8095C29 23.8055 29 23.8016 29 23.7977C29 23.7938 29 23.7899 29 23.786C29 23.7821 29 23.7782 29 23.7742C29 23.7703 29 23.7664 29 23.7625C29 23.7586 29 23.7546 29 23.7507C29 23.7468 29 23.7429 29 23.7389C29 23.735 29 23.7311 29 23.7271C29 23.7232 29 23.7193 29 23.7153C29 23.7114 29 23.7075 29 23.7035C29 23.6996 29 23.6956 29 23.6917C29 23.6877 29 23.6838 29 23.6798C29 23.6759 29 23.6719 29 23.668C29 23.664 29 23.6601 29 23.6561C29 23.6522 29 23.6482 29 23.6442C29 23.6403 29 23.6363 29 23.6324C29 23.6284 29 23.6244 29 23.6205C29 23.6165 29 23.6125 29 23.6086C29 23.6046 29 23.6006 29 23.5966C29 23.5927 29 23.5887 29 23.5847C29 23.5807 29 23.5767 29 23.5728C29 23.5688 29 23.5648 29 23.5608C29 23.5568 29 23.5528 29 23.5488C29 23.5449 29 23.5409 29 23.5369C29 23.5329 29 23.5289 29 23.5249C29 23.5209 29 23.5169 29 23.5129C29 23.5089 29 23.5049 29 23.5009C29 23.4969 29 23.4929 29 23.4889C29 23.4849 29 23.4809 29 23.4768C29 23.4728 29 23.4688 29 23.4648C29 23.4608 29 23.4568 29 23.4528C29 23.4487 29 23.4447 29 23.4407C29 23.4367 29 23.4327 29 23.4286C29 23.4246 29 23.4206 29 23.4165C29 23.4125 29 23.4085 29 23.4045C29 23.4004 29 23.3964 29 23.3924C29 23.3883 29 23.3843 29 23.3802C29 23.3762 29 23.3722 29 23.3681C29 23.3641 29 23.36 29 23.356C29 23.352 29 23.3479 29 23.3439C29 23.3398 29 23.3358 29 23.3317C29 23.3277 29 23.3236 29 23.3195C29 23.3155 29 23.3114 29 23.3074C29 23.3033 29 23.2993 29 23.2952C29 23.2911 29 23.2871 29 23.283C29 23.2789 29 23.2749 29 23.2708C29 23.2667 29 23.2627 29 23.2586C29 23.2545 29 23.2505 29 23.2464C29 23.2423 29 23.2382 29 23.2342C29 23.2301 29 23.226 29 23.2219C29 23.2178 29 23.2138 29 23.2097C29 23.2056 29 23.2015 29 23.1974C29 23.1933 29 23.1893 29 23.1852C29 23.1811 29 23.177 29 23.1729C29 23.1688 29 23.1647 29 23.1606C29 23.1565 29 23.1524 29 23.1483C29 23.1442 29 23.1401 29 23.136C29 23.1319 29 23.1278 29 23.1237C29 23.1196 29 23.1155 29 23.1114C29 23.1073 29 23.1032 29 23.0991C29 23.095 29 23.0909 29 23.0867C29 23.0826 29 23.0785 29 23.0744C29 23.0703 29 23.0662 29 23.062C29 23.0579 29 23.0538 29 23.0497C29 23.0456 29 23.0414 29 23.0373C29 23.0332 29 23.0291 29 23.0249C29 23.0208 29 23.0167 29 23.0126C29 23.0084 29 23.0043 29 23.0002C29 22.996 29 22.9919 29 22.9878C29 22.9836 29 22.9795 29 22.9753C29 22.9712 29 22.9671 29 22.9629C29 22.9588 29 22.9546 29 22.9505C29 22.9464 29 22.9422 29 22.9381C29 22.9339 29 22.9298 29 22.9256C29 22.9215 29 22.9173 29 22.9132C29 22.909 29 22.9049 29 22.9007C29 22.8966 29 22.8924 29 22.8883C29 22.8841 29 22.8799 29 22.8758C29 22.8716 29 22.8675 29 22.8633C29 22.8591 29 22.855 29 22.8508C29 22.8466 29 22.8425 29 22.8383C29 22.8341 29 22.83 29 22.8258C29 22.8216 29 22.8175 29 22.8133C29 22.8091 29 22.805 29 22.8008C29 22.7966 29 22.7924 29 22.7883C29 22.7841 29 22.7799 29 22.7757C29 22.7715 29 22.7674 29 22.7632C29 22.759 29 22.7548 29 22.7506C29 22.7464 29 22.7423 29 22.7381C29 22.7339 29 22.7297 29 22.7255C29 22.7213 29 22.7171 29 22.7129C29 22.7088 29 22.7046 29 22.7004C29 22.6962 29 22.692 29 22.6878C29 22.6836 29 22.6794 29 22.6752C29 22.671 29 22.6668 29 22.6626C29 22.6584 29 22.6542 29 22.65C29 22.6458 29 22.6416 29 22.6374C29 22.6332 29 22.629 29 22.6248C29 22.6206 29 22.6164 29 22.6121C29 22.6079 29 22.6037 29 22.5995C29 22.5953 29 22.5911 29 22.5869C29 22.5827 29 22.5785 29 22.5742C29 22.57 29 22.5658 29 22.5616C29 22.5574 29 22.5532 29 22.5489C29 22.5447 29 22.5405 29 22.5363C29 22.5321 29 22.5278 29 22.5236C29 22.5194 29 22.5152 29 22.5109C29 22.5067 29 22.5025 29 22.4983C29 22.494 29 22.4898 29 22.4856C29 22.4813 29 22.4771 29 22.4729C29 22.4686 29 22.4644 29 22.4602C29 22.456 29 22.4517 29 22.4475C29 22.4432 29 22.439 29 22.4348C29 22.4305 29 22.4263 29 22.4221C29 22.4178 29 22.4136 29 22.4093C29 22.4051 29 22.4009 29 22.3966C29 22.3924 29 22.3881 29 22.3839C29 22.3796 29 22.3754 29 22.3711C29 22.3669 29 22.3627 29 22.3584C29 22.3542 29 22.3499 29 22.3457C29 22.3414 29 22.3372 29 22.3329C29 22.3287 29 22.3244 29 22.3201C29 22.3159 29 22.3116 29 22.3074C29 22.3031 29 22.2989 29 22.2946C29 22.2904 29 22.2861 29 22.2818C29 22.2776 29 22.2733 29 22.2691C29 22.2648 29 22.2605 29 22.2563C29 22.252 29 22.2478 29 22.2435C29 22.2392 29 22.235 29 22.2307C29 22.2264 29 22.2222 29 22.2179C29 22.2136 29 22.2094 29 22.2051C29 22.2008 29 22.1966 29 22.1923C29 22.188 29 22.1838 29 22.1795C29 22.1752 29 22.1709 29 22.1667C29 22.1624 29 22.1581 29 22.1539C29 22.1496 29 22.1453 29 22.141C29 22.1368 29 22.1325 29 22.1282C29 22.1239 29 22.1196 29 22.1154C29 22.1111 29 22.1068 29 22.1025C29 22.0982 29 22.094 29 22.0897C29 22.0854 29 22.0811 29 22.0768C29 22.0726 29 22.0683 29 22.064C29 22.0597 29 22.0554 29 22.0511C29 22.0469 29 22.0426 29 22.0383C29 22.034 29 22.0297 29 22.0254C29 22.0211 29 22.0168 29 22.0126C29 22.0083 29 22.004 29 21.9997C29 21.9954 29 21.9911 29 21.9868C29 21.9825 29 21.9782 29 21.9739C29 21.9696 29 21.9653 29 21.961C29 21.9568 29 21.9525 29 21.9482C29 21.9439 29 21.9396 29 21.9353C29 21.931 29 21.9267 29 21.9224C29 21.9181 29 21.9138 29 21.9095C29 21.9052 29 21.9009 29 21.8966C29 21.8923 29 21.888 29 21.8837C29 21.8794 29 21.8751 29 21.8708C29 21.8665 29 21.8622 29 21.8579C29 21.8536 29 21.8493 29 21.845C29 21.8407 29 21.8364 29 21.8321C29 21.8278 29 21.8234 29 21.8191C29 21.8148 29 21.8105 29 21.8062C29 21.8019 29 21.7976 29 21.7933C29 21.789 29 21.7847 29 21.7804C29 21.7761 29 21.7718 29 21.7674C29 21.7631 29 21.7588 29 21.7545C29 21.7502 29 21.7459 29 21.7416C29 21.7373 29 21.733 29 21.7286C29 21.7243 29 21.72 29 21.7157C29 21.7114 29 21.7071 29 21.7028C29 21.6984 29 21.6941 29 21.6898C29 21.6855 29 21.6812 29 21.6769C29 21.6726 29 21.6682 29 21.6639C29 21.6596 29 21.6553 29 21.651C29 21.6467 29 21.6423 29 21.638C29 21.6337 29 21.6294 29 21.6251C29 21.6207 29 21.6164 29 21.6121C29 21.6078 29 21.6035 29 21.5991C29 21.5948 29 21.5905 29 21.5862C29 21.5819 29 21.5775 29 21.5732C29 21.5689 29 21.5646 29 21.5603C29 21.5559 29 21.5516 29 21.5473C29 21.543 29 21.5386 29 21.5343C29 21.53 29 21.5257 29 21.5214C29 21.517 29 21.5127 29 21.5084C29 21.5041 29 21.4997 29 21.4954C29 21.4911 29 21.4868 29 21.4824C29 21.4781 29 21.4738 29 21.4695C29 21.4651 29 21.4608 29 21.4565C29 21.4522 29 21.4478 29 21.4435C29 21.4392 29 21.4348 29 21.4305C29 21.4262 29 21.4219 29 21.4175C29 21.4132 29 21.4089 29 21.4046C29 21.4002 29 21.3959 29 21.3916C29 21.3872 29 21.3829 29 21.3786C29 21.3743 29 21.3699 29 21.3656C29 21.3613 29 21.3569 29 21.3526C29 21.3483 29 21.344 29 21.3396C29 21.3353 29 21.331 29 21.3266C29 21.3223 29 21.318 29 21.3136C29 21.3093 29 21.305 29 21.3007C29 21.2963 29 21.292 29 21.2877C29 21.2833 29 21.279 29 21.2747C29 21.2703 29 21.266 29 21.2617C29 21.2573 29 21.253 29 21.2487C29 21.2444 29 21.24 29 21.2357C29 21.2314 29 21.227 29 21.2227C29 21.2184 29 21.214 29 21.2097C29 21.2054 29 21.201 29 21.1967C29 21.1924 29 21.188 29 21.1837C29 21.1794 29 21.1751 29 21.1707C29 21.1664 29 21.1621 29 21.1577C29 21.1534 29 21.1491 29 21.1447C29 21.1404 29 21.1361 29 21.1317C29 21.1274 29 21.1231 29 21.1187C29 21.1144 29 21.1101 29 21.1057C29 21.1014 29 21.0971 29 21.0928C29 21.0884 29 21.0841 29 21.0798C29 21.0754 29 21.0711 29 21.0668C29 21.0624 29 21.0581 29 21.0538C29 21.0494 29 21.0451 29 21.0408C29 21.0364 29 21.0321 29 21.0278C29 21.0235 29 21.0191 29 21.0148C29 21.0105 29 21.0061 29 21.0018C29 20.9975 29 20.9931 29 20.9888C29 20.9845 29 20.9802 29 20.9758C29 20.9715 29 20.9672 29 20.9628C29 20.9585 29 20.9542 29 20.9498C29 20.9455 29 20.9412 29 20.9369C29 20.9325 29 20.9282 29 20.9239C29 20.9195 29 20.9152 29 20.9109C29 20.9066 29 20.9022 29 20.8979C29 20.8936 29 20.8892 29 20.8849C29 20.8806 29 20.8763 29 20.8719C29 20.8676 29 20.8633 29 20.859C29 20.8546 29 20.8503 29 20.846C29 20.8416 29 20.8373 29 20.833C29 20.8287 29 20.8243 29 20.82C29 20.8157 29 20.8114 29 20.807C29 20.8027 29 20.7984 29 20.7941C29 20.7897 29 20.7854 29 20.7811C29 20.7768 29 20.7724 29 20.7681C29 20.7638 29 20.7595 29 20.7552C29 20.7508 29 20.7465 29 20.7422C29 20.7379 29 20.7335 29 20.7292C29 20.7249 29 20.7206 29 20.7163C29 20.7119 29 20.7076 29 20.7033C29 20.699 29 20.6947 29 20.6903C29 20.686 29 20.6817 29 20.6774C29 20.6731 29 20.6687 29 20.6644C29 20.6601 29 20.6558 29 20.6515C29 20.6471 29 20.6428 29 20.6385C29 20.6342 29 20.6299 29 20.6256C29 20.6212 29 20.6169 29 20.6126C29 20.6083 29 20.604 29 20.5997C29 20.5954 29 20.591 29 20.5867C29 20.5824 29 20.5781 29 20.5738C29 20.5695 29 20.5652 29 20.5608C29 20.5565 29 20.5522 29 20.5479C29 20.5436 29 20.5393 29 20.535C29 20.5307 29 20.5264 29 20.522C29 20.5177 29 20.5134 29 20.5091C29 20.5048 29 20.5005 29 20.4962C29 20.4919 29 20.4876 29 20.4833C29 20.479 29 20.4747 29 20.4704C29 20.4661 29 20.4617 29 20.4574C29 20.4531 29 20.4488 29 20.4445C29 20.4402 29 20.4359 29 20.4316C29 20.4273 29 20.423 29 20.4187C29 20.4144 29 20.4101 29 20.4058C29 20.4015 29 20.3972 29 20.3929C29 20.3886 29 20.3843 29 20.38C29 20.3757 29 20.3714 29 20.3671C29 20.3628 29 20.3585 29 20.3542C29 20.3499 29 20.3456 29 20.3413C29 20.3371 29 20.3328 29 20.3285C29 20.3242 29 20.3199 29 20.3156C29 20.3113 29 20.307 29 20.3027C29 20.2984 29 20.2941 29 20.2898C29 20.2855 29 20.2813 29 20.277C29 20.2727 29 20.2684 29 20.2641C29 20.2598 29 20.2555 29 20.2512C29 20.247 29 20.2427 29 20.2384C29 20.2341 29 20.2298 29 20.2255C29 20.2213 29 20.217 29 20.2127C29 20.2084 29 20.2041 29 20.1998C29 20.1956 29 20.1913 29 20.187C29 20.1827 29 20.1784 29 20.1742C29 20.1699 29 20.1656 29 20.1613C29 20.1571 29 20.1528 29 20.1485C29 20.1442 29 20.14 29 20.1357C29 20.1314 29 20.1271 29 20.1229C29 20.1186 29 20.1143 29 20.1101C29 20.1058 29 20.1015 29 20.0972C29 20.093 29 20.0887 29 20.0844C29 20.0802 29 20.0759 29 20.0716C29 20.0674 29 20.0631 29 20.0588C29 20.0546 29 20.0503 29 20.0461C29 20.0418 29 20.0375 29 20.0333C29 20.029 29 20.0247 29 20.0205C29 20.0162 29 20.012 29 20.0077C29 20.0035 29 19.9992 29 19.9949C29 19.9907 29 19.9864 29 19.9822C29 19.9779 29 19.9737 29 19.9694C29 19.9652 29 19.9609 29 19.9567C29 19.9524 29 19.9482 29 19.9439C29 19.9397 29 19.9354 29 19.9312C29 19.9269 29 19.9227 29 19.9184C29 19.9142 29 19.9099 29 19.9057C29 19.9014 29 19.8972 29 19.893C29 19.8887 29 19.8845 29 19.8802C29 19.876 29 19.8718 29 19.8675C29 19.8633 29 19.859 29 19.8548C29 19.8506 29 19.8463 29 19.8421C29 19.8379 29 19.8336 29 19.8294C29 19.8252 29 19.8209 29 19.8167C29 19.8125 29 19.8083 29 19.804C29 19.7998 29 19.7956 29 19.7913C29 19.7871 29 19.7829 29 19.7787C29 19.7744 29 19.7702 29 19.766C29 19.7618 29 19.7576 29 19.7533C29 19.7491 29 19.7449 29 19.7407C29 19.7365 29 19.7322 29 19.728C29 19.7238 29 19.7196 29 19.7154C29 19.7112 29 19.7069 29 19.7027C29 19.6985 29 19.6943 29 19.6901C29 19.6859 29 19.6817 29 19.6775C29 19.6733 29 19.6691 29 19.6649C29 19.6607 29 19.6564 29 19.6522C29 19.648 29 19.6438 29 19.6396C29 19.6354 29 19.6312 29 19.627C29 19.6228 29 19.6186 29 19.6144C29 19.6102 29 19.606 29 19.6019C29 19.5977 29 19.5935 29 19.5893C29 19.5851 29 19.5809 29 19.5767C29 19.5725 29 19.5683 29 19.5641C29 19.5599 29 19.5558 29 19.5516C29 19.5474 29 19.5432 29 19.539C29 19.5348 29 19.5307 29 19.5265C29 19.5223 29 19.5181 29 19.5139C29 19.5098 29 19.5056 29 19.5014C29 19.4972 29 19.4931 29 19.4889C29 19.4847 29 19.4805 29 19.4764C29 19.4722 29 19.468 29 19.4639C29 19.4597 29 19.4555 29 19.4514C29 19.4472 29 19.443 29 19.4389C29 19.4347 29 19.4305 29 19.4264C29 19.4222 29 19.4181 29 19.4139C29 19.4098 29 19.4056 29 19.4014C29 19.3973 29 19.3931 29 19.389C29 19.3848 29 19.3807 29 19.3765C29 19.3724 29 19.3682 29 19.3641C29 19.3599 29 19.3558 29 19.3516C29 19.3475 29 19.3433 29 19.3392C29 19.3351 29 19.3309 29 19.3268C29 19.3226 29 19.3185 29 19.3144C29 19.3102 29 19.3061 29 19.302C29 19.2978 29 19.2937 29 19.2896C29 19.2854 29 19.2813 29 19.2772C29 19.273 29 19.2689 29 19.2648C29 19.2607 29 19.2565 29 19.2524C29 19.2483 29 19.2442 29 19.2401C29 19.2359 29 19.2318 29 19.2277C29 19.2236 29 19.2195 29 19.2153C29 19.2112 29 19.2071 29 19.203C29 19.1989 29 19.1948 29 19.1907C29 19.1866 29 19.1825 29 19.1784C29 19.1742 29 19.1701 29 19.166C29 19.1619 29 19.1578 29 19.1537C29 19.1496 29 19.1455 29 19.1414C29 19.1373 29 19.1332 29 19.1292C29 19.1251 29 19.121 29 19.1169C29 19.1128 29 19.1087 29 19.1046C29 19.1005 29 19.0964 29 19.0924C29 19.0883 29 19.0842 29 19.0801C29 19.076 29 19.0719 29 19.0679C29 19.0638 29 19.0597 29 19.0556C29 19.0516 29 19.0475 29 19.0434C29 19.0393 29 19.0353 29 19.0312C29 19.0271 29 19.0231 29 19.019C29 19.0149 29 19.0109 29 19.0068C29 19.0027 29 18.9987 29 18.9946C29 18.9906 29 18.9865 29 18.9824C29 18.9784 29 18.9743 29 18.9703C29 18.9662 29 18.9622 29 18.9581C29 18.9541 29 18.95 29 18.946C29 18.9419 29 18.9379 29 18.9338C29 18.9298 29 18.9258 29 18.9217C29 18.9177 29 18.9136 29 18.9096C29 18.9056 29 18.9015 29 18.8975C29 18.8935 29 18.8894 29 18.8854C29 18.8814 29 18.8773 29 18.8733C29 18.8693 29 18.8653 29 18.8612C29 18.8572 29 18.8532 29 18.8492C29 18.8451 29 18.8411 29 18.8371C29 18.8331 29 18.8291 29 18.8251C29 18.8211 29 18.817 29 18.813C29 18.809 29 18.805 29 18.801C29 18.797 29 18.793 29 18.789C29 18.785 29 18.781 29 18.777C29 18.773 29 18.769 29 18.765C29 18.761 29 18.757 29 18.753C29 18.749 29 18.745 29 18.7411C29 18.7371 29 18.7331 29 18.7291C29 18.7251 29 18.7211 29 18.7171C29 18.7132 29 18.7092 29 18.7052C29 18.7012 29 18.6973 29 18.6933C29 18.6893 29 18.6853 29 18.6814C29 18.6774 29 18.6734 29 18.6695C29 18.6655 29 18.6615 29 18.6576C29 18.6536 29 18.6497 29 18.6457C29 18.6417 29 18.6378 29 18.6338C29 18.6299 29 18.6259 29 18.622C29 18.618 29 18.6141 29 18.6101C29 18.6062 29 18.6022 29 18.5983C29 18.5943 29 18.5904 29 18.5865C29 18.5825 29 18.5786 29 18.5746C29 18.5707 29 18.5668 29 18.5628C29 18.5589 29 18.555 29 18.551C29 18.5471 29 18.5432 29 18.5393C29 18.5353 29 18.5314 29 18.5275C29 18.5236 29 18.5197 29 18.5158C29 18.5118 29 18.5079 29 18.504C29 18.5001 29 18.4962 29 18.4923C29 18.4884 29 18.4845 29 18.4806C29 18.4767 29 18.4728 29 18.4689C29 18.465 29 18.4611 29 18.4572C29 18.4533 29 18.4494 29 18.4455C29 18.4416 29 18.4377 29 18.4338C29 18.4299 29 18.426 29 18.4221C29 18.4183 29 18.4144 29 18.4105C29 18.4066 29 18.4027 29 18.3989C29 18.395 29 18.3911 29 18.3873C29 18.3834 29 18.3795 29 18.3756C29 18.3718 29 18.3679 29 18.364C29 18.3602 29 18.3563 29 18.3525C29 18.3486 29 18.3448 29 18.3409C29 18.337 29 18.3332 29 18.3293C29 18.3255 29 18.3216 29 18.3178C29 18.314 29 18.3101 29 18.3063C29 18.3024 29 18.2986 29 18.2947C29 18.2909 29 18.2871 29 18.2832C29 18.2794 29 18.2756 29 18.2717C29 18.2679 29 18.2641 29 18.2603C29 18.2564 29 18.2526 29 18.2488C29 18.245 29 18.2412 29 18.2374C29 18.2335 29 18.2297 29 18.2259C29 18.2221 29 18.2183 29 18.2145C29 18.2107 29 18.2069 29 18.2031C29 18.1993 29 18.1955 29 18.1917C29 18.1879 29 18.1841 29 18.1803C29 18.1765 29 18.1727 29 18.1689C29 18.1651 29 18.1613 29 18.1576C29 18.1538 29 18.15 29 18.1462C29 18.1424 29 18.1387 29 18.1349C29 18.1311 29 18.1273 29 18.1236C29 18.1198 29 18.116 29 18.1123C29 18.1085 29 18.1047 29 18.101C29 18.0972 29 18.0935 29 18.0897C29 18.0859 29 18.0822 29 18.0784C29 18.0747 29 18.0709 29 18.0672C29 18.0634 29 18.0597 29 18.056C29 18.0522 29 18.0485 29 18.0447C29 18.041 29 18.0373 29 18.0335C29 18.0298 29 18.0261 29 18.0223C29 18.0186 29 18.0149 29 18.0112C29 18.0074 29 18.0037 29 18H25C25 18.0037 25 18.0074 25 18.0112C25 18.0149 25 18.0186 25 18.0223C25 18.0261 25 18.0298 25 18.0335C25 18.0373 25 18.041 25 18.0447C25 18.0485 25 18.0522 25 18.056C25 18.0597 25 18.0634 25 18.0672C25 18.0709 25 18.0747 25 18.0784C25 18.0822 25 18.0859 25 18.0897C25 18.0935 25 18.0972 25 18.101C25 18.1047 25 18.1085 25 18.1123C25 18.116 25 18.1198 25 18.1236C25 18.1273 25 18.1311 25 18.1349C25 18.1387 25 18.1424 25 18.1462C25 18.15 25 18.1538 25 18.1576C25 18.1613 25 18.1651 25 18.1689C25 18.1727 25 18.1765 25 18.1803C25 18.1841 25 18.1879 25 18.1917C25 18.1955 25 18.1993 25 18.2031C25 18.2069 25 18.2107 25 18.2145C25 18.2183 25 18.2221 25 18.2259C25 18.2297 25 18.2335 25 18.2374C25 18.2412 25 18.245 25 18.2488C25 18.2526 25 18.2564 25 18.2603C25 18.2641 25 18.2679 25 18.2717C25 18.2756 25 18.2794 25 18.2832C25 18.2871 25 18.2909 25 18.2947C25 18.2986 25 18.3024 25 18.3063C25 18.3101 25 18.314 25 18.3178C25 18.3216 25 18.3255 25 18.3293C25 18.3332 25 18.337 25 18.3409C25 18.3448 25 18.3486 25 18.3525C25 18.3563 25 18.3602 25 18.364C25 18.3679 25 18.3718 25 18.3756C25 18.3795 25 18.3834 25 18.3873C25 18.3911 25 18.395 25 18.3989C25 18.4027 25 18.4066 25 18.4105C25 18.4144 25 18.4183 25 18.4221C25 18.426 25 18.4299 25 18.4338C25 18.4377 25 18.4416 25 18.4455C25 18.4494 25 18.4533 25 18.4572C25 18.4611 25 18.465 25 18.4689C25 18.4728 25 18.4767 25 18.4806C25 18.4845 25 18.4884 25 18.4923C25 18.4962 25 18.5001 25 18.504C25 18.5079 25 18.5118 25 18.5158C25 18.5197 25 18.5236 25 18.5275C25 18.5314 25 18.5353 25 18.5393C25 18.5432 25 18.5471 25 18.551C25 18.555 25 18.5589 25 18.5628C25 18.5668 25 18.5707 25 18.5746C25 18.5786 25 18.5825 25 18.5865C25 18.5904 25 18.5943 25 18.5983C25 18.6022 25 18.6062 25 18.6101C25 18.6141 25 18.618 25 18.622C25 18.6259 25 18.6299 25 18.6338C25 18.6378 25 18.6417 25 18.6457C25 18.6497 25 18.6536 25 18.6576C25 18.6615 25 18.6655 25 18.6695C25 18.6734 25 18.6774 25 18.6814C25 18.6853 25 18.6893 25 18.6933C25 18.6973 25 18.7012 25 18.7052C25 18.7092 25 18.7132 25 18.7171C25 18.7211 25 18.7251 25 18.7291C25 18.7331 25 18.7371 25 18.7411C25 18.745 25 18.749 25 18.753C25 18.757 25 18.761 25 18.765C25 18.769 25 18.773 25 18.777C25 18.781 25 18.785 25 18.789C25 18.793 25 18.797 25 18.801C25 18.805 25 18.809 25 18.813C25 18.817 25 18.8211 25 18.8251C25 18.8291 25 18.8331 25 18.8371C25 18.8411 25 18.8451 25 18.8492C25 18.8532 25 18.8572 25 18.8612C25 18.8653 25 18.8693 25 18.8733C25 18.8773 25 18.8814 25 18.8854C25 18.8894 25 18.8935 25 18.8975C25 18.9015 25 18.9056 25 18.9096C25 18.9136 25 18.9177 25 18.9217C25 18.9258 25 18.9298 25 18.9338C25 18.9379 25 18.9419 25 18.946C25 18.95 25 18.9541 25 18.9581C25 18.9622 25 18.9662 25 18.9703C25 18.9743 25 18.9784 25 18.9824C25 18.9865 25 18.9906 25 18.9946C25 18.9987 25 19.0027 25 19.0068C25 19.0109 25 19.0149 25 19.019C25 19.0231 25 19.0271 25 19.0312C25 19.0353 25 19.0393 25 19.0434C25 19.0475 25 19.0516 25 19.0556C25 19.0597 25 19.0638 25 19.0679C25 19.0719 25 19.076 25 19.0801C25 19.0842 25 19.0883 25 19.0924C25 19.0964 25 19.1005 25 19.1046C25 19.1087 25 19.1128 25 19.1169C25 19.121 25 19.1251 25 19.1292C25 19.1332 25 19.1373 25 19.1414C25 19.1455 25 19.1496 25 19.1537C25 19.1578 25 19.1619 25 19.166C25 19.1701 25 19.1742 25 19.1784C25 19.1825 25 19.1866 25 19.1907C25 19.1948 25 19.1989 25 19.203C25 19.2071 25 19.2112 25 19.2153C25 19.2195 25 19.2236 25 19.2277C25 19.2318 25 19.2359 25 19.2401C25 19.2442 25 19.2483 25 19.2524C25 19.2565 25 19.2607 25 19.2648C25 19.2689 25 19.273 25 19.2772C25 19.2813 25 19.2854 25 19.2896C25 19.2937 25 19.2978 25 19.302C25 19.3061 25 19.3102 25 19.3144C25 19.3185 25 19.3226 25 19.3268C25 19.3309 25 19.3351 25 19.3392C25 19.3433 25 19.3475 25 19.3516C25 19.3558 25 19.3599 25 19.3641C25 19.3682 25 19.3724 25 19.3765C25 19.3807 25 19.3848 25 19.389C25 19.3931 25 19.3973 25 19.4014C25 19.4056 25 19.4098 25 19.4139C25 19.4181 25 19.4222 25 19.4264C25 19.4305 25 19.4347 25 19.4389C25 19.443 25 19.4472 25 19.4514C25 19.4555 25 19.4597 25 19.4639C25 19.468 25 19.4722 25 19.4764C25 19.4805 25 19.4847 25 19.4889C25 19.4931 25 19.4972 25 19.5014C25 19.5056 25 19.5098 25 19.5139C25 19.5181 25 19.5223 25 19.5265C25 19.5307 25 19.5348 25 19.539C25 19.5432 25 19.5474 25 19.5516C25 19.5558 25 19.5599 25 19.5641C25 19.5683 25 19.5725 25 19.5767C25 19.5809 25 19.5851 25 19.5893C25 19.5935 25 19.5977 25 19.6019C25 19.606 25 19.6102 25 19.6144C25 19.6186 25 19.6228 25 19.627C25 19.6312 25 19.6354 25 19.6396C25 19.6438 25 19.648 25 19.6522C25 19.6564 25 19.6607 25 19.6649C25 19.6691 25 19.6733 25 19.6775C25 19.6817 25 19.6859 25 19.6901C25 19.6943 25 19.6985 25 19.7027C25 19.7069 25 19.7112 25 19.7154C25 19.7196 25 19.7238 25 19.728C25 19.7322 25 19.7365 25 19.7407C25 19.7449 25 19.7491 25 19.7533C25 19.7576 25 19.7618 25 19.766C25 19.7702 25 19.7744 25 19.7787C25 19.7829 25 19.7871 25 19.7913C25 19.7956 25 19.7998 25 19.804C25 19.8083 25 19.8125 25 19.8167C25 19.8209 25 19.8252 25 19.8294C25 19.8336 25 19.8379 25 19.8421C25 19.8463 25 19.8506 25 19.8548C25 19.859 25 19.8633 25 19.8675C25 19.8718 25 19.876 25 19.8802C25 19.8845 25 19.8887 25 19.893C25 19.8972 25 19.9014 25 19.9057C25 19.9099 25 19.9142 25 19.9184C25 19.9227 25 19.9269 25 19.9312C25 19.9354 25 19.9397 25 19.9439C25 19.9482 25 19.9524 25 19.9567C25 19.9609 25 19.9652 25 19.9694C25 19.9737 25 19.9779 25 19.9822C25 19.9864 25 19.9907 25 19.9949C25 19.9992 25 20.0035 25 20.0077C25 20.012 25 20.0162 25 20.0205C25 20.0247 25 20.029 25 20.0333C25 20.0375 25 20.0418 25 20.0461C25 20.0503 25 20.0546 25 20.0588C25 20.0631 25 20.0674 25 20.0716C25 20.0759 25 20.0802 25 20.0844C25 20.0887 25 20.093 25 20.0972C25 20.1015 25 20.1058 25 20.1101C25 20.1143 25 20.1186 25 20.1229C25 20.1271 25 20.1314 25 20.1357C25 20.14 25 20.1442 25 20.1485C25 20.1528 25 20.1571 25 20.1613C25 20.1656 25 20.1699 25 20.1742C25 20.1784 25 20.1827 25 20.187C25 20.1913 25 20.1956 25 20.1998C25 20.2041 25 20.2084 25 20.2127C25 20.217 25 20.2213 25 20.2255C25 20.2298 25 20.2341 25 20.2384C25 20.2427 25 20.247 25 20.2512C25 20.2555 25 20.2598 25 20.2641C25 20.2684 25 20.2727 25 20.277C25 20.2813 25 20.2855 25 20.2898C25 20.2941 25 20.2984 25 20.3027C25 20.307 25 20.3113 25 20.3156C25 20.3199 25 20.3242 25 20.3285C25 20.3328 25 20.3371 25 20.3413C25 20.3456 25 20.3499 25 20.3542C25 20.3585 25 20.3628 25 20.3671C25 20.3714 25 20.3757 25 20.38C25 20.3843 25 20.3886 25 20.3929C25 20.3972 25 20.4015 25 20.4058C25 20.4101 25 20.4144 25 20.4187C25 20.423 25 20.4273 25 20.4316C25 20.4359 25 20.4402 25 20.4445C25 20.4488 25 20.4531 25 20.4574C25 20.4617 25 20.4661 25 20.4704C25 20.4747 25 20.479 25 20.4833C25 20.4876 25 20.4919 25 20.4962C25 20.5005 25 20.5048 25 20.5091C25 20.5134 25 20.5177 25 20.522C25 20.5264 25 20.5307 25 20.535C25 20.5393 25 20.5436 25 20.5479C25 20.5522 25 20.5565 25 20.5608C25 20.5652 25 20.5695 25 20.5738C25 20.5781 25 20.5824 25 20.5867C25 20.591 25 20.5954 25 20.5997C25 20.604 25 20.6083 25 20.6126C25 20.6169 25 20.6212 25 20.6256C25 20.6299 25 20.6342 25 20.6385C25 20.6428 25 20.6471 25 20.6515C25 20.6558 25 20.6601 25 20.6644C25 20.6687 25 20.6731 25 20.6774C25 20.6817 25 20.686 25 20.6903C25 20.6947 25 20.699 25 20.7033C25 20.7076 25 20.7119 25 20.7163C25 20.7206 25 20.7249 25 20.7292C25 20.7335 25 20.7379 25 20.7422C25 20.7465 25 20.7508 25 20.7552C25 20.7595 25 20.7638 25 20.7681C25 20.7724 25 20.7768 25 20.7811C25 20.7854 25 20.7897 25 20.7941C25 20.7984 25 20.8027 25 20.807C25 20.8114 25 20.8157 25 20.82C25 20.8243 25 20.8287 25 20.833C25 20.8373 25 20.8416 25 20.846C25 20.8503 25 20.8546 25 20.859C25 20.8633 25 20.8676 25 20.8719C25 20.8763 25 20.8806 25 20.8849C25 20.8892 25 20.8936 25 20.8979C25 20.9022 25 20.9066 25 20.9109C25 20.9152 25 20.9195 25 20.9239C25 20.9282 25 20.9325 25 20.9369C25 20.9412 25 20.9455 25 20.9498C25 20.9542 25 20.9585 25 20.9628C25 20.9672 25 20.9715 25 20.9758C25 20.9802 25 20.9845 25 20.9888C25 20.9931 25 20.9975 25 21.0018C25 21.0061 25 21.0105 25 21.0148C25 21.0191 25 21.0235 25 21.0278C25 21.0321 25 21.0364 25 21.0408C25 21.0451 25 21.0494 25 21.0538C25 21.0581 25 21.0624 25 21.0668C25 21.0711 25 21.0754 25 21.0798C25 21.0841 25 21.0884 25 21.0928C25 21.0971 25 21.1014 25 21.1057C25 21.1101 25 21.1144 25 21.1187C25 21.1231 25 21.1274 25 21.1317C25 21.1361 25 21.1404 25 21.1447C25 21.1491 25 21.1534 25 21.1577C25 21.1621 25 21.1664 25 21.1707C25 21.1751 25 21.1794 25 21.1837C25 21.188 25 21.1924 25 21.1967C25 21.201 25 21.2054 25 21.2097C25 21.214 25 21.2184 25 21.2227C25 21.227 25 21.2314 25 21.2357C25 21.24 25 21.2444 25 21.2487C25 21.253 25 21.2573 25 21.2617C25 21.266 25 21.2703 25 21.2747C25 21.279 25 21.2833 25 21.2877C25 21.292 25 21.2963 25 21.3007C25 21.305 25 21.3093 25 21.3136C25 21.318 25 21.3223 25 21.3266C25 21.331 25 21.3353 25 21.3396C25 21.344 25 21.3483 25 21.3526C25 21.3569 25 21.3613 25 21.3656C25 21.3699 25 21.3743 25 21.3786C25 21.3829 25 21.3872 25 21.3916C25 21.3959 25 21.4002 25 21.4046C25 21.4089 25 21.4132 25 21.4175C25 21.4219 25 21.4262 25 21.4305C25 21.4348 25 21.4392 25 21.4435C25 21.4478 25 21.4522 25 21.4565C25 21.4608 25 21.4651 25 21.4695C25 21.4738 25 21.4781 25 21.4824C25 21.4868 25 21.4911 25 21.4954C25 21.4997 25 21.5041 25 21.5084C25 21.5127 25 21.517 25 21.5214C25 21.5257 25 21.53 25 21.5343C25 21.5386 25 21.543 25 21.5473C25 21.5516 25 21.5559 25 21.5603C25 21.5646 25 21.5689 25 21.5732C25 21.5775 25 21.5819 25 21.5862C25 21.5905 25 21.5948 25 21.5991C25 21.6035 25 21.6078 25 21.6121C25 21.6164 25 21.6207 25 21.6251C25 21.6294 25 21.6337 25 21.638C25 21.6423 25 21.6467 25 21.651C25 21.6553 25 21.6596 25 21.6639C25 21.6682 25 21.6726 25 21.6769C25 21.6812 25 21.6855 25 21.6898C25 21.6941 25 21.6984 25 21.7028C25 21.7071 25 21.7114 25 21.7157C25 21.72 25 21.7243 25 21.7286C25 21.733 25 21.7373 25 21.7416C25 21.7459 25 21.7502 25 21.7545C25 21.7588 25 21.7631 25 21.7674C25 21.7718 25 21.7761 25 21.7804C25 21.7847 25 21.789 25 21.7933C25 21.7976 25 21.8019 25 21.8062C25 21.8105 25 21.8148 25 21.8191C25 21.8234 25 21.8278 25 21.8321C25 21.8364 25 21.8407 25 21.845C25 21.8493 25 21.8536 25 21.8579C25 21.8622 25 21.8665 25 21.8708C25 21.8751 25 21.8794 25 21.8837C25 21.888 25 21.8923 25 21.8966C25 21.9009 25 21.9052 25 21.9095C25 21.9138 25 21.9181 25 21.9224C25 21.9267 25 21.931 25 21.9353C25 21.9396 25 21.9439 25 21.9482C25 21.9525 25 21.9568 25 21.961C25 21.9653 25 21.9696 25 21.9739C25 21.9782 25 21.9825 25 21.9868C25 21.9911 25 21.9954 25 21.9997C25 22.004 25 22.0083 25 22.0126C25 22.0168 25 22.0211 25 22.0254C25 22.0297 25 22.034 25 22.0383C25 22.0426 25 22.0469 25 22.0511C25 22.0554 25 22.0597 25 22.064C25 22.0683 25 22.0726 25 22.0768C25 22.0811 25 22.0854 25 22.0897C25 22.094 25 22.0982 25 22.1025C25 22.1068 25 22.1111 25 22.1154C25 22.1196 25 22.1239 25 22.1282C25 22.1325 25 22.1368 25 22.141C25 22.1453 25 22.1496 25 22.1539C25 22.1581 25 22.1624 25 22.1667C25 22.1709 25 22.1752 25 22.1795C25 22.1838 25 22.188 25 22.1923C25 22.1966 25 22.2008 25 22.2051C25 22.2094 25 22.2136 25 22.2179C25 22.2222 25 22.2264 25 22.2307C25 22.235 25 22.2392 25 22.2435C25 22.2478 25 22.252 25 22.2563C25 22.2605 25 22.2648 25 22.2691C25 22.2733 25 22.2776 25 22.2818C25 22.2861 25 22.2904 25 22.2946C25 22.2989 25 22.3031 25 22.3074C25 22.3116 25 22.3159 25 22.3201C25 22.3244 25 22.3287 25 22.3329C25 22.3372 25 22.3414 25 22.3457C25 22.3499 25 22.3542 25 22.3584C25 22.3627 25 22.3669 25 22.3711C25 22.3754 25 22.3796 25 22.3839C25 22.3881 25 22.3924 25 22.3966C25 22.4009 25 22.4051 25 22.4093C25 22.4136 25 22.4178 25 22.4221C25 22.4263 25 22.4305 25 22.4348C25 22.439 25 22.4432 25 22.4475C25 22.4517 25 22.456 25 22.4602C25 22.4644 25 22.4686 25 22.4729C25 22.4771 25 22.4813 25 22.4856C25 22.4898 25 22.494 25 22.4983C25 22.5025 25 22.5067 25 22.5109C25 22.5152 25 22.5194 25 22.5236C25 22.5278 25 22.5321 25 22.5363C25 22.5405 25 22.5447 25 22.5489C25 22.5532 25 22.5574 25 22.5616C25 22.5658 25 22.57 25 22.5742C25 22.5785 25 22.5827 25 22.5869C25 22.5911 25 22.5953 25 22.5995C25 22.6037 25 22.6079 25 22.6121C25 22.6164 25 22.6206 25 22.6248C25 22.629 25 22.6332 25 22.6374C25 22.6416 25 22.6458 25 22.65C25 22.6542 25 22.6584 25 22.6626C25 22.6668 25 22.671 25 22.6752C25 22.6794 25 22.6836 25 22.6878C25 22.692 25 22.6962 25 22.7004C25 22.7046 25 22.7088 25 22.7129C25 22.7171 25 22.7213 25 22.7255C25 22.7297 25 22.7339 25 22.7381C25 22.7423 25 22.7464 25 22.7506C25 22.7548 25 22.759 25 22.7632C25 22.7674 25 22.7715 25 22.7757C25 22.7799 25 22.7841 25 22.7883C25 22.7924 25 22.7966 25 22.8008C25 22.805 25 22.8091 25 22.8133C25 22.8175 25 22.8216 25 22.8258C25 22.83 25 22.8341 25 22.8383C25 22.8425 25 22.8466 25 22.8508C25 22.855 25 22.8591 25 22.8633C25 22.8675 25 22.8716 25 22.8758C25 22.8799 25 22.8841 25 22.8883C25 22.8924 25 22.8966 25 22.9007C25 22.9049 25 22.909 25 22.9132C25 22.9173 25 22.9215 25 22.9256C25 22.9298 25 22.9339 25 22.9381C25 22.9422 25 22.9464 25 22.9505C25 22.9546 25 22.9588 25 22.9629C25 22.9671 25 22.9712 25 22.9753C25 22.9795 25 22.9836 25 22.9878C25 22.9919 25 22.996 25 23.0002C25 23.0043 25 23.0084 25 23.0126C25 23.0167 25 23.0208 25 23.0249C25 23.0291 25 23.0332 25 23.0373C25 23.0414 25 23.0456 25 23.0497C25 23.0538 25 23.0579 25 23.062C25 23.0662 25 23.0703 25 23.0744C25 23.0785 25 23.0826 25 23.0867C25 23.0909 25 23.095 25 23.0991C25 23.1032 25 23.1073 25 23.1114C25 23.1155 25 23.1196 25 23.1237C25 23.1278 25 23.1319 25 23.136C25 23.1401 25 23.1442 25 23.1483C25 23.1524 25 23.1565 25 23.1606C25 23.1647 25 23.1688 25 23.1729C25 23.177 25 23.1811 25 23.1852C25 23.1893 25 23.1933 25 23.1974C25 23.2015 25 23.2056 25 23.2097C25 23.2138 25 23.2178 25 23.2219C25 23.226 25 23.2301 25 23.2342C25 23.2382 25 23.2423 25 23.2464C25 23.2505 25 23.2545 25 23.2586C25 23.2627 25 23.2667 25 23.2708C25 23.2749 25 23.2789 25 23.283C25 23.2871 25 23.2911 25 23.2952C25 23.2993 25 23.3033 25 23.3074C25 23.3114 25 23.3155 25 23.3195C25 23.3236 25 23.3277 25 23.3317C25 23.3358 25 23.3398 25 23.3439C25 23.3479 25 23.352 25 23.356C25 23.36 25 23.3641 25 23.3681C25 23.3722 25 23.3762 25 23.3802C25 23.3843 25 23.3883 25 23.3924C25 23.3964 25 23.4004 25 23.4045C25 23.4085 25 23.4125 25 23.4165C25 23.4206 25 23.4246 25 23.4286C25 23.4327 25 23.4367 25 23.4407C25 23.4447 25 23.4487 25 23.4528C25 23.4568 25 23.4608 25 23.4648C25 23.4688 25 23.4728 25 23.4768C25 23.4809 25 23.4849 25 23.4889C25 23.4929 25 23.4969 25 23.5009C25 23.5049 25 23.5089 25 23.5129C25 23.5169 25 23.5209 25 23.5249C25 23.5289 25 23.5329 25 23.5369C25 23.5409 25 23.5449 25 23.5488C25 23.5528 25 23.5568 25 23.5608C25 23.5648 25 23.5688 25 23.5728C25 23.5767 25 23.5807 25 23.5847C25 23.5887 25 23.5927 25 23.5966C25 23.6006 25 23.6046 25 23.6086C25 23.6125 25 23.6165 25 23.6205C25 23.6244 25 23.6284 25 23.6324C25 23.6363 25 23.6403 25 23.6442C25 23.6482 25 23.6522 25 23.6561C25 23.6601 25 23.664 25 23.668C25 23.6719 25 23.6759 25 23.6798C25 23.6838 25 23.6877 25 23.6917C25 23.6956 25 23.6996 25 23.7035C25 23.7075 25 23.7114 25 23.7153C25 23.7193 25 23.7232 25 23.7271C25 23.7311 25 23.735 25 23.7389C25 23.7429 25 23.7468 25 23.7507C25 23.7546 25 23.7586 25 23.7625C25 23.7664 25 23.7703 25 23.7742C25 23.7782 25 23.7821 25 23.786C25 23.7899 25 23.7938 25 23.7977C25 23.8016 25 23.8055 25 23.8095C25 23.8134 25 23.8173 25 23.8212C25 23.8251 25 23.829 25 23.8329C25 23.8368 25 23.8407 25 23.8446C25 23.8484 25 23.8523 25 23.8562C25 23.8601 25 23.864 25 23.8679C25 23.8718 25 23.8757 25 23.8795C25 23.8834 25 23.8873 25 23.8912C25 23.8951 25 23.8989 25 23.9028C25 23.9067 25 23.9105 25 23.9144C25 23.9183 25 23.9222 25 23.926C25 23.9299 25 23.9337 25 23.9376C25 23.9415 25 23.9453 25 23.9492C25 23.953 25 23.9569 25 23.9607C25 23.9646 25 23.9684 25 23.9723C25 23.9761 25 23.98 25 23.9838C25 23.9877 25 23.9915 25 23.9954C25 23.9992 25 24.003 25 24.0069C25 24.0107 25 24.0145 25 24.0184C25 24.0222 25 24.026 25 24.0298C25 24.0337 25 24.0375 25 24.0413C25 24.0451 25 24.049 25 24.0528C25 24.0566 25 24.0604 25 24.0642C25 24.068 25 24.0718 25 24.0757C25 24.0795 25 24.0833 25 24.0871C25 24.0909 25 24.0947 25 24.0985C25 24.1023 25 24.1061 25 24.1099C25 24.1137 25 24.1175 25 24.1212C25 24.125 25 24.1288 25 24.1326C25 24.1364 25 24.1402 25 24.144C25 24.1477 25 24.1515 25 24.1553C25 24.1591 25 24.1628 25 24.1666C25 24.1704 25 24.1742 25 24.1779C25 24.1817 25 24.1855 25 24.1892C25 24.193 25 24.1967 25 24.2005C25 24.2043 25 24.208 25 24.2118C25 24.2155 25 24.2193 25 24.223C25 24.2268 25 24.2305 25 24.2343C25 24.238 25 24.2418 25 24.2455C25 24.2492 25 24.253 25 24.2567C25 24.2604 25 24.2642 25 24.2679C25 24.2716 25 24.2754 25 24.2791C25 24.2828 25 24.2865 25 24.2903C25 24.294 25 24.2977 25 24.3014C25 24.3051 25 24.3088 25 24.3125C25 24.3163 25 24.32 25 24.3237C25 24.3274 25 24.3311 25 24.3348H29ZM24.3333 29C26.9093 29 29 26.9135 29 24.3348H25C25 24.7016 24.7029 25 24.3333 25V29ZM3 24.3333C3 26.9107 5.08934 29 7.66667 29V25C7.29848 25 7 24.7015 7 24.3333H3Z" fill="black" mask="url(#path-3-inside-1_1352_25097)"/>
</svg>
