<svg width="24" height="24" viewBox="0 0 24 24" fill="none" xmlns="http://www.w3.org/2000/svg">
<mask id="path-1-inside-1_290_4162" fill="white">
<path d="M19 20.9982L19 15.8333C19 13.7162 17.2838 12 15.1667 12L8.83333 12C6.71624 12 5 13.7156 5 15.8327C5 17.5215 5 19.4661 5 21"/>
</mask>
<path d="M20.5 20.9982L20.5 15.8333L17.5 15.8333L17.5 20.9982L20.5 20.9982ZM15.1667 10.5L8.83333 10.5L8.83333 13.5L15.1667 13.5L15.1667 10.5ZM3.5 15.8327C3.5 15.836 3.5 15.8393 3.5 15.8426C3.5 15.8459 3.5 15.8492 3.5 15.8525C3.5 15.8558 3.5 15.8591 3.5 15.8624C3.5 15.8657 3.5 15.869 3.5 15.8723C3.5 15.8756 3.5 15.8789 3.5 15.8823C3.5 15.8856 3.5 15.8889 3.5 15.8922C3.5 15.8955 3.5 15.8988 3.5 15.9021C3.5 15.9054 3.5 15.9087 3.5 15.9121C3.5 15.9154 3.5 15.9187 3.5 15.922C3.5 15.9253 3.5 15.9286 3.5 15.9319C3.5 15.9353 3.5 15.9386 3.5 15.9419C3.5 15.9452 3.5 15.9485 3.5 15.9519C3.5 15.9552 3.5 15.9585 3.5 15.9618C3.5 15.9652 3.5 15.9685 3.5 15.9718C3.5 15.9751 3.5 15.9784 3.5 15.9818C3.5 15.9851 3.5 15.9884 3.5 15.9918C3.5 15.9951 3.5 15.9984 3.5 16.0017C3.5 16.0051 3.5 16.0084 3.5 16.0117C3.5 16.0151 3.5 16.0184 3.5 16.0217C3.5 16.0251 3.5 16.0284 3.5 16.0317C3.5 16.0351 3.5 16.0384 3.5 16.0418C3.5 16.0451 3.5 16.0484 3.5 16.0518C3.5 16.0551 3.5 16.0584 3.5 16.0618C3.5 16.0651 3.5 16.0685 3.5 16.0718C3.5 16.0752 3.5 16.0785 3.5 16.0818C3.5 16.0852 3.5 16.0885 3.5 16.0919C3.5 16.0952 3.5 16.0986 3.5 16.1019C3.5 16.1053 3.5 16.1086 3.5 16.112C3.5 16.1153 3.5 16.1187 3.5 16.122C3.5 16.1254 3.5 16.1287 3.5 16.1321C3.5 16.1354 3.5 16.1388 3.5 16.1421C3.5 16.1455 3.5 16.1488 3.5 16.1522C3.5 16.1555 3.5 16.1589 3.5 16.1623C3.5 16.1656 3.5 16.169 3.5 16.1723C3.5 16.1757 3.5 16.1791 3.5 16.1824C3.5 16.1858 3.5 16.1891 3.5 16.1925C3.5 16.1959 3.5 16.1992 3.5 16.2026C3.5 16.206 3.5 16.2093 3.5 16.2127C3.5 16.216 3.5 16.2194 3.5 16.2228C3.5 16.2261 3.5 16.2295 3.5 16.2329C3.5 16.2363 3.5 16.2396 3.5 16.243C3.5 16.2464 3.5 16.2497 3.5 16.2531C3.5 16.2565 3.5 16.2598 3.5 16.2632C3.5 16.2666 3.5 16.27 3.5 16.2733C3.5 16.2767 3.5 16.2801 3.5 16.2835C3.5 16.2868 3.5 16.2902 3.5 16.2936C3.5 16.297 3.5 16.3004 3.5 16.3037C3.5 16.3071 3.5 16.3105 3.5 16.3139C3.5 16.3173 3.5 16.3206 3.5 16.324C3.5 16.3274 3.5 16.3308 3.5 16.3342C3.5 16.3376 3.5 16.3409 3.5 16.3443C3.5 16.3477 3.5 16.3511 3.5 16.3545C3.5 16.3579 3.5 16.3613 3.5 16.3646C3.5 16.368 3.5 16.3714 3.5 16.3748C3.5 16.3782 3.5 16.3816 3.5 16.385C3.5 16.3884 3.5 16.3918 3.5 16.3952C3.5 16.3985 3.5 16.4019 3.5 16.4053C3.5 16.4087 3.5 16.4121 3.5 16.4155C3.5 16.4189 3.5 16.4223 3.5 16.4257C3.5 16.4291 3.5 16.4325 3.5 16.4359C3.5 16.4393 3.5 16.4427 3.5 16.4461C3.5 16.4495 3.5 16.4529 3.5 16.4563C3.5 16.4597 3.5 16.4631 3.5 16.4665C3.5 16.4699 3.5 16.4733 3.5 16.4767C3.5 16.4801 3.5 16.4835 3.5 16.4869C3.5 16.4903 3.5 16.4937 3.5 16.4971C3.5 16.5005 3.5 16.5039 3.5 16.5073C3.5 16.5107 3.5 16.5142 3.5 16.5176C3.5 16.521 3.5 16.5244 3.5 16.5278C3.5 16.5312 3.5 16.5346 3.5 16.538C3.5 16.5414 3.5 16.5448 3.5 16.5483C3.5 16.5517 3.5 16.5551 3.5 16.5585C3.5 16.5619 3.5 16.5653 3.5 16.5687C3.5 16.5721 3.5 16.5756 3.5 16.579C3.5 16.5824 3.5 16.5858 3.5 16.5892C3.5 16.5926 3.5 16.5961 3.5 16.5995C3.5 16.6029 3.5 16.6063 3.5 16.6097C3.5 16.6132 3.5 16.6166 3.5 16.62C3.5 16.6234 3.5 16.6268 3.5 16.6303C3.5 16.6337 3.5 16.6371 3.5 16.6405C3.5 16.6439 3.5 16.6474 3.5 16.6508C3.5 16.6542 3.5 16.6576 3.5 16.6611C3.5 16.6645 3.5 16.6679 3.5 16.6713C3.5 16.6748 3.5 16.6782 3.5 16.6816C3.5 16.6851 3.5 16.6885 3.5 16.6919C3.5 16.6953 3.5 16.6988 3.5 16.7022C3.5 16.7056 3.5 16.7091 3.5 16.7125C3.5 16.7159 3.5 16.7193 3.5 16.7228C3.5 16.7262 3.5 16.7296 3.5 16.7331C3.5 16.7365 3.5 16.7399 3.5 16.7434C3.5 16.7468 3.5 16.7502 3.5 16.7537C3.5 16.7571 3.5 16.7605 3.5 16.764C3.5 16.7674 3.5 16.7709 3.5 16.7743C3.5 16.7777 3.5 16.7812 3.5 16.7846C3.5 16.788 3.5 16.7915 3.5 16.7949C3.5 16.7984 3.5 16.8018 3.5 16.8052C3.5 16.8087 3.5 16.8121 3.5 16.8156C3.5 16.819 3.5 16.8224 3.5 16.8259C3.5 16.8293 3.5 16.8328 3.5 16.8362C3.5 16.8397 3.5 16.8431 3.5 16.8465C3.5 16.85 3.5 16.8534 3.5 16.8569C3.5 16.8603 3.5 16.8638 3.5 16.8672C3.5 16.8707 3.5 16.8741 3.5 16.8776C3.5 16.881 3.5 16.8844 3.5 16.8879C3.5 16.8913 3.5 16.8948 3.5 16.8982C3.5 16.9017 3.5 16.9051 3.5 16.9086C3.5 16.912 3.5 16.9155 3.5 16.9189C3.5 16.9224 3.5 16.9258 3.5 16.9293C3.5 16.9327 3.5 16.9362 3.5 16.9396C3.5 16.9431 3.5 16.9465 3.5 16.95C3.5 16.9535 3.5 16.9569 3.5 16.9604C3.5 16.9638 3.5 16.9673 3.5 16.9707C3.5 16.9742 3.5 16.9776 3.5 16.9811C3.5 16.9845 3.5 16.988 3.5 16.9915C3.5 16.9949 3.5 16.9984 3.5 17.0018C3.5 17.0053 3.5 17.0087 3.5 17.0122C3.5 17.0157 3.5 17.0191 3.5 17.0226C3.5 17.026 3.5 17.0295 3.5 17.033C3.5 17.0364 3.5 17.0399 3.5 17.0433C3.5 17.0468 3.5 17.0503 3.5 17.0537C3.5 17.0572 3.5 17.0606 3.5 17.0641C3.5 17.0676 3.5 17.071 3.5 17.0745C3.5 17.0779 3.5 17.0814 3.5 17.0849C3.5 17.0883 3.5 17.0918 3.5 17.0953C3.5 17.0987 3.5 17.1022 3.5 17.1057C3.5 17.1091 3.5 17.1126 3.5 17.1161C3.5 17.1195 3.5 17.123 3.5 17.1265C3.5 17.1299 3.5 17.1334 3.5 17.1369C3.5 17.1403 3.5 17.1438 3.5 17.1473C3.5 17.1507 3.5 17.1542 3.5 17.1577C3.5 17.1611 3.5 17.1646 3.5 17.1681C3.5 17.1715 3.5 17.175 3.5 17.1785C3.5 17.1819 3.5 17.1854 3.5 17.1889C3.5 17.1923 3.5 17.1958 3.5 17.1993C3.5 17.2028 3.5 17.2062 3.5 17.2097C3.5 17.2132 3.5 17.2166 3.5 17.2201C3.5 17.2236 3.5 17.2271 3.5 17.2305C3.5 17.234 3.5 17.2375 3.5 17.241C3.5 17.2444 3.5 17.2479 3.5 17.2514C3.5 17.2548 3.5 17.2583 3.5 17.2618C3.5 17.2653 3.5 17.2687 3.5 17.2722C3.5 17.2757 3.5 17.2792 3.5 17.2826C3.5 17.2861 3.5 17.2896 3.5 17.2931C3.5 17.2965 3.5 17.3 3.5 17.3035C3.5 17.307 3.5 17.3105 3.5 17.3139C3.5 17.3174 3.5 17.3209 3.5 17.3244C3.5 17.3278 3.5 17.3313 3.5 17.3348C3.5 17.3383 3.5 17.3418 3.5 17.3452C3.5 17.3487 3.5 17.3522 3.5 17.3557C3.5 17.3591 3.5 17.3626 3.5 17.3661C3.5 17.3696 3.5 17.3731 3.5 17.3765C3.5 17.38 3.5 17.3835 3.5 17.387C3.5 17.3905 3.5 17.3939 3.5 17.3974C3.5 17.4009 3.5 17.4044 3.5 17.4079C3.5 17.4114 3.5 17.4148 3.5 17.4183C3.5 17.4218 3.5 17.4253 3.5 17.4288C3.5 17.4322 3.5 17.4357 3.5 17.4392C3.5 17.4427 3.5 17.4462 3.5 17.4497C3.5 17.4531 3.5 17.4566 3.5 17.4601C3.5 17.4636 3.5 17.4671 3.5 17.4706C3.5 17.474 3.5 17.4775 3.5 17.481C3.5 17.4845 3.5 17.488 3.5 17.4915C3.5 17.4949 3.5 17.4984 3.5 17.5019C3.5 17.5054 3.5 17.5089 3.5 17.5124C3.5 17.5158 3.5 17.5193 3.5 17.5228C3.5 17.5263 3.5 17.5298 3.5 17.5333C3.5 17.5368 3.5 17.5402 3.5 17.5437C3.5 17.5472 3.5 17.5507 3.5 17.5542C3.5 17.5577 3.5 17.5612 3.5 17.5646C3.5 17.5681 3.5 17.5716 3.5 17.5751C3.5 17.5786 3.5 17.5821 3.5 17.5856C3.5 17.5891 3.5 17.5925 3.5 17.596C3.5 17.5995 3.5 17.603 3.5 17.6065C3.5 17.61 3.5 17.6135 3.5 17.617C3.5 17.6204 3.5 17.6239 3.5 17.6274C3.5 17.6309 3.5 17.6344 3.5 17.6379C3.5 17.6414 3.5 17.6449 3.5 17.6483C3.5 17.6518 3.5 17.6553 3.5 17.6588C3.5 17.6623 3.5 17.6658 3.5 17.6693C3.5 17.6728 3.5 17.6763 3.5 17.6797C3.5 17.6832 3.5 17.6867 3.5 17.6902C3.5 17.6937 3.5 17.6972 3.5 17.7007C3.5 17.7042 3.5 17.7077 3.5 17.7111C3.5 17.7146 3.5 17.7181 3.5 17.7216C3.5 17.7251 3.5 17.7286 3.5 17.7321C3.5 17.7356 3.5 17.7391 3.5 17.7425C3.5 17.746 3.5 17.7495 3.5 17.753C3.5 17.7565 3.5 17.76 3.5 17.7635C3.5 17.767 3.5 17.7705 3.5 17.774C3.5 17.7774 3.5 17.7809 3.5 17.7844C3.5 17.7879 3.5 17.7914 3.5 17.7949C3.5 17.7984 3.5 17.8019 3.5 17.8054C3.5 17.8089 3.5 17.8123 3.5 17.8158C3.5 17.8193 3.5 17.8228 3.5 17.8263C3.5 17.8298 3.5 17.8333 3.5 17.8368C3.5 17.8403 3.5 17.8438 3.5 17.8472C3.5 17.8507 3.5 17.8542 3.5 17.8577C3.5 17.8612 3.5 17.8647 3.5 17.8682C3.5 17.8717 3.5 17.8752 3.5 17.8787C3.5 17.8822 3.5 17.8856 3.5 17.8891C3.5 17.8926 3.5 17.8961 3.5 17.8996C3.5 17.9031 3.5 17.9066 3.5 17.9101C3.5 17.9136 3.5 17.9171 3.5 17.9205C3.5 17.924 3.5 17.9275 3.5 17.931C3.5 17.9345 3.5 17.938 3.5 17.9415C3.5 17.945 3.5 17.9485 3.5 17.9519C3.5 17.9554 3.5 17.9589 3.5 17.9624C3.5 17.9659 3.5 17.9694 3.5 17.9729C3.5 17.9764 3.5 17.9799 3.5 17.9834C3.5 17.9868 3.5 17.9903 3.5 17.9938C3.5 17.9973 3.5 18.0008 3.5 18.0043C3.5 18.0078 3.5 18.0113 3.5 18.0148C3.5 18.0182 3.5 18.0217 3.5 18.0252C3.5 18.0287 3.5 18.0322 3.5 18.0357C3.5 18.0392 3.5 18.0427 3.5 18.0462C3.5 18.0496 3.5 18.0531 3.5 18.0566C3.5 18.0601 3.5 18.0636 3.5 18.0671C3.5 18.0706 3.5 18.0741 3.5 18.0776C3.5 18.081 3.5 18.0845 3.5 18.088C3.5 18.0915 3.5 18.095 3.5 18.0985C3.5 18.102 3.5 18.1055 3.5 18.1089C3.5 18.1124 3.5 18.1159 3.5 18.1194C3.5 18.1229 3.5 18.1264 3.5 18.1299C3.5 18.1333 3.5 18.1368 3.5 18.1403C3.5 18.1438 3.5 18.1473 3.5 18.1508C3.5 18.1543 3.5 18.1578 3.5 18.1612C3.5 18.1647 3.5 18.1682 3.5 18.1717C3.5 18.1752 3.5 18.1787 3.5 18.1821C3.5 18.1856 3.5 18.1891 3.5 18.1926C3.5 18.1961 3.5 18.1996 3.5 18.2031C3.5 18.2065 3.5 18.21 3.5 18.2135C3.5 18.217 3.5 18.2205 3.5 18.224C3.5 18.2274 3.5 18.2309 3.5 18.2344C3.5 18.2379 3.5 18.2414 3.5 18.2449C3.5 18.2483 3.5 18.2518 3.5 18.2553C3.5 18.2588 3.5 18.2623 3.5 18.2658C3.5 18.2692 3.5 18.2727 3.5 18.2762C3.5 18.2797 3.5 18.2832 3.5 18.2867C3.5 18.2901 3.5 18.2936 3.5 18.2971C3.5 18.3006 3.5 18.3041 3.5 18.3075C3.5 18.311 3.5 18.3145 3.5 18.318C3.5 18.3215 3.5 18.3249 3.5 18.3284C3.5 18.3319 3.5 18.3354 3.5 18.3389C3.5 18.3423 3.5 18.3458 3.5 18.3493C3.5 18.3528 3.5 18.3563 3.5 18.3597C3.5 18.3632 3.5 18.3667 3.5 18.3702C3.5 18.3736 3.5 18.3771 3.5 18.3806C3.5 18.3841 3.5 18.3876 3.5 18.391C3.5 18.3945 3.5 18.398 3.5 18.4015C3.5 18.4049 3.5 18.4084 3.5 18.4119C3.5 18.4154 3.5 18.4188 3.5 18.4223C3.5 18.4258 3.5 18.4293 3.5 18.4327C3.5 18.4362 3.5 18.4397 3.5 18.4432C3.5 18.4466 3.5 18.4501 3.5 18.4536C3.5 18.4571 3.5 18.4605 3.5 18.464C3.5 18.4675 3.5 18.471 3.5 18.4744C3.5 18.4779 3.5 18.4814 3.5 18.4848C3.5 18.4883 3.5 18.4918 3.5 18.4953C3.5 18.4987 3.5 18.5022 3.5 18.5057C3.5 18.5091 3.5 18.5126 3.5 18.5161C3.5 18.5196 3.5 18.523 3.5 18.5265C3.5 18.53 3.5 18.5334 3.5 18.5369C3.5 18.5404 3.5 18.5438 3.5 18.5473C3.5 18.5508 3.5 18.5542 3.5 18.5577C3.5 18.5612 3.5 18.5646 3.5 18.5681C3.5 18.5716 3.5 18.5751 3.5 18.5785C3.5 18.582 3.5 18.5854 3.5 18.5889C3.5 18.5924 3.5 18.5958 3.5 18.5993C3.5 18.6028 3.5 18.6062 3.5 18.6097C3.5 18.6132 3.5 18.6166 3.5 18.6201C3.5 18.6236 3.5 18.627 3.5 18.6305C3.5 18.6339 3.5 18.6374 3.5 18.6409C3.5 18.6443 3.5 18.6478 3.5 18.6513C3.5 18.6547 3.5 18.6582 3.5 18.6616C3.5 18.6651 3.5 18.6686 3.5 18.672C3.5 18.6755 3.5 18.6789 3.5 18.6824C3.5 18.6859 3.5 18.6893 3.5 18.6928C3.5 18.6962 3.5 18.6997 3.5 18.7031C3.5 18.7066 3.5 18.7101 3.5 18.7135C3.5 18.717 3.5 18.7204 3.5 18.7239C3.5 18.7273 3.5 18.7308 3.5 18.7342C3.5 18.7377 3.5 18.7412 3.5 18.7446C3.5 18.7481 3.5 18.7515 3.5 18.755C3.5 18.7584 3.5 18.7619 3.5 18.7653C3.5 18.7688 3.5 18.7722 3.5 18.7757C3.5 18.7791 3.5 18.7826 3.5 18.786C3.5 18.7895 3.5 18.7929 3.5 18.7964C3.5 18.7998 3.5 18.8033 3.5 18.8067C3.5 18.8102 3.5 18.8136 3.5 18.8171C3.5 18.8205 3.5 18.824 3.5 18.8274C3.5 18.8309 3.5 18.8343 3.5 18.8378C3.5 18.8412 3.5 18.8446 3.5 18.8481C3.5 18.8515 3.5 18.855 3.5 18.8584C3.5 18.8619 3.5 18.8653 3.5 18.8688C3.5 18.8722 3.5 18.8756 3.5 18.8791C3.5 18.8825 3.5 18.886 3.5 18.8894C3.5 18.8928 3.5 18.8963 3.5 18.8997C3.5 18.9032 3.5 18.9066 3.5 18.91C3.5 18.9135 3.5 18.9169 3.5 18.9204C3.5 18.9238 3.5 18.9272 3.5 18.9307C3.5 18.9341 3.5 18.9375 3.5 18.941C3.5 18.9444 3.5 18.9479 3.5 18.9513C3.5 18.9547 3.5 18.9582 3.5 18.9616C3.5 18.965 3.5 18.9685 3.5 18.9719C3.5 18.9753 3.5 18.9788 3.5 18.9822C3.5 18.9856 3.5 18.9891 3.5 18.9925C3.5 18.9959 3.5 18.9993 3.5 19.0028C3.5 19.0062 3.5 19.0096 3.5 19.0131C3.5 19.0165 3.5 19.0199 3.5 19.0233C3.5 19.0268 3.5 19.0302 3.5 19.0336C3.5 19.0371 3.5 19.0405 3.5 19.0439C3.5 19.0473 3.5 19.0508 3.5 19.0542C3.5 19.0576 3.5 19.061 3.5 19.0644C3.5 19.0679 3.5 19.0713 3.5 19.0747C3.5 19.0781 3.5 19.0816 3.5 19.085C3.5 19.0884 3.5 19.0918 3.5 19.0952C3.5 19.0987 3.5 19.1021 3.5 19.1055C3.5 19.1089 3.5 19.1123 3.5 19.1157C3.5 19.1192 3.5 19.1226 3.5 19.126C3.5 19.1294 3.5 19.1328 3.5 19.1362C3.5 19.1397 3.5 19.1431 3.5 19.1465C3.5 19.1499 3.5 19.1533 3.5 19.1567C3.5 19.1601 3.5 19.1635 3.5 19.167C3.5 19.1704 3.5 19.1738 3.5 19.1772C3.5 19.1806 3.5 19.184 3.5 19.1874C3.5 19.1908 3.5 19.1942 3.5 19.1976C3.5 19.201 3.5 19.2044 3.5 19.2078C3.5 19.2113 3.5 19.2147 3.5 19.2181C3.5 19.2215 3.5 19.2249 3.5 19.2283C3.5 19.2317 3.5 19.2351 3.5 19.2385C3.5 19.2419 3.5 19.2453 3.5 19.2487C3.5 19.2521 3.5 19.2555 3.5 19.2589C3.5 19.2623 3.5 19.2657 3.5 19.2691C3.5 19.2725 3.5 19.2759 3.5 19.2793C3.5 19.2827 3.5 19.2861 3.5 19.2895C3.5 19.2929 3.5 19.2962 3.5 19.2996C3.5 19.303 3.5 19.3064 3.5 19.3098C3.5 19.3132 3.5 19.3166 3.5 19.32C3.5 19.3234 3.5 19.3268 3.5 19.3302C3.5 19.3336 3.5 19.3369 3.5 19.3403C3.5 19.3437 3.5 19.3471 3.5 19.3505C3.5 19.3539 3.5 19.3573 3.5 19.3606C3.5 19.364 3.5 19.3674 3.5 19.3708C3.5 19.3742 3.5 19.3776 3.5 19.3809C3.5 19.3843 3.5 19.3877 3.5 19.3911C3.5 19.3945 3.5 19.3979 3.5 19.4012C3.5 19.4046 3.5 19.408 3.5 19.4114C3.5 19.4147 3.5 19.4181 3.5 19.4215C3.5 19.4249 3.5 19.4283 3.5 19.4316C3.5 19.435 3.5 19.4384 3.5 19.4417C3.5 19.4451 3.5 19.4485 3.5 19.4519C3.5 19.4552 3.5 19.4586 3.5 19.462C3.5 19.4653 3.5 19.4687 3.5 19.4721C3.5 19.4755 3.5 19.4788 3.5 19.4822C3.5 19.4856 3.5 19.4889 3.5 19.4923C3.5 19.4957 3.5 19.499 3.5 19.5024C3.5 19.5057 3.5 19.5091 3.5 19.5125C3.5 19.5158 3.5 19.5192 3.5 19.5226C3.5 19.5259 3.5 19.5293 3.5 19.5326C3.5 19.536 3.5 19.5394 3.5 19.5427C3.5 19.5461 3.5 19.5494 3.5 19.5528C3.5 19.5561 3.5 19.5595 3.5 19.5628C3.5 19.5662 3.5 19.5696 3.5 19.5729C3.5 19.5763 3.5 19.5796 3.5 19.583C3.5 19.5863 3.5 19.5897 3.5 19.593C3.5 19.5964 3.5 19.5997 3.5 19.6031C3.5 19.6064 3.5 19.6097 3.5 19.6131C3.5 19.6164 3.5 19.6198 3.5 19.6231C3.5 19.6265 3.5 19.6298 3.5 19.6332C3.5 19.6365 3.5 19.6398 3.5 19.6432C3.5 19.6465 3.5 19.6499 3.5 19.6532C3.5 19.6565 3.5 19.6599 3.5 19.6632C3.5 19.6666 3.5 19.6699 3.5 19.6732C3.5 19.6766 3.5 19.6799 3.5 19.6832C3.5 19.6866 3.5 19.6899 3.5 19.6932C3.5 19.6966 3.5 19.6999 3.5 19.7032C3.5 19.7066 3.5 19.7099 3.5 19.7132C3.5 19.7165 3.5 19.7199 3.5 19.7232C3.5 19.7265 3.5 19.7298 3.5 19.7332C3.5 19.7365 3.5 19.7398 3.5 19.7431C3.5 19.7465 3.5 19.7498 3.5 19.7531C3.5 19.7564 3.5 19.7597 3.5 19.7631C3.5 19.7664 3.5 19.7697 3.5 19.773C3.5 19.7763 3.5 19.7797 3.5 19.783C3.5 19.7863 3.5 19.7896 3.5 19.7929C3.5 19.7962 3.5 19.7995 3.5 19.8029C3.5 19.8062 3.5 19.8095 3.5 19.8128C3.5 19.8161 3.5 19.8194 3.5 19.8227C3.5 19.826 3.5 19.8293 3.5 19.8326C3.5 19.8359 3.5 19.8392 3.5 19.8426C3.5 19.8459 3.5 19.8492 3.5 19.8525C3.5 19.8558 3.5 19.8591 3.5 19.8624C3.5 19.8657 3.5 19.869 3.5 19.8723C3.5 19.8756 3.5 19.8789 3.5 19.8822C3.5 19.8855 3.5 19.8887 3.5 19.892C3.5 19.8953 3.5 19.8986 3.5 19.9019C3.5 19.9052 3.5 19.9085 3.5 19.9118C3.5 19.9151 3.5 19.9184 3.5 19.9217C3.5 19.925 3.5 19.9282 3.5 19.9315C3.5 19.9348 3.5 19.9381 3.5 19.9414C3.5 19.9447 3.5 19.948 3.5 19.9512C3.5 19.9545 3.5 19.9578 3.5 19.9611C3.5 19.9644 3.5 19.9676 3.5 19.9709C3.5 19.9742 3.5 19.9775 3.5 19.9808C3.5 19.984 3.5 19.9873 3.5 19.9906C3.5 19.9939 3.5 19.9971 3.5 20.0004C3.5 20.0037 3.5 20.0069 3.5 20.0102C3.5 20.0135 3.5 20.0168 3.5 20.02C3.5 20.0233 3.5 20.0266 3.5 20.0298C3.5 20.0331 3.5 20.0364 3.5 20.0396C3.5 20.0429 3.5 20.0461 3.5 20.0494C3.5 20.0527 3.5 20.0559 3.5 20.0592C3.5 20.0624 3.5 20.0657 3.5 20.069C3.5 20.0722 3.5 20.0755 3.5 20.0787C3.5 20.082 3.5 20.0852 3.5 20.0885C3.5 20.0917 3.5 20.095 3.5 20.0982C3.5 20.1015 3.5 20.1047 3.5 20.108C3.5 20.1112 3.5 20.1145 3.5 20.1177C3.5 20.121 3.5 20.1242 3.5 20.1275C3.5 20.1307 3.5 20.134 3.5 20.1372C3.5 20.1404 3.5 20.1437 3.5 20.1469C3.5 20.1502 3.5 20.1534 3.5 20.1566C3.5 20.1599 3.5 20.1631 3.5 20.1664C3.5 20.1696 3.5 20.1728 3.5 20.1761C3.5 20.1793 3.5 20.1825 3.5 20.1858C3.5 20.189 3.5 20.1922 3.5 20.1954C3.5 20.1987 3.5 20.2019 3.5 20.2051C3.5 20.2084 3.5 20.2116 3.5 20.2148C3.5 20.218 3.5 20.2213 3.5 20.2245C3.5 20.2277 3.5 20.2309 3.5 20.2341C3.5 20.2374 3.5 20.2406 3.5 20.2438C3.5 20.247 3.5 20.2502 3.5 20.2534C3.5 20.2567 3.5 20.2599 3.5 20.2631C3.5 20.2663 3.5 20.2695 3.5 20.2727C3.5 20.2759 3.5 20.2791 3.5 20.2823C3.5 20.2855 3.5 20.2888 3.5 20.292C3.5 20.2952 3.5 20.2984 3.5 20.3016C3.5 20.3048 3.5 20.308 3.5 20.3112C3.5 20.3144 3.5 20.3176 3.5 20.3208C3.5 20.324 3.5 20.3272 3.5 20.3304C3.5 20.3336 3.5 20.3368 3.5 20.3399C3.5 20.3431 3.5 20.3463 3.5 20.3495C3.5 20.3527 3.5 20.3559 3.5 20.3591C3.5 20.3623 3.5 20.3655 3.5 20.3687C3.5 20.3718 3.5 20.375 3.5 20.3782C3.5 20.3814 3.5 20.3846 3.5 20.3878C3.5 20.3909 3.5 20.3941 3.5 20.3973C3.5 20.4005 3.5 20.4037 3.5 20.4068C3.5 20.41 3.5 20.4132 3.5 20.4164C3.5 20.4195 3.5 20.4227 3.5 20.4259C3.5 20.429 3.5 20.4322 3.5 20.4354C3.5 20.4385 3.5 20.4417 3.5 20.4449C3.5 20.448 3.5 20.4512 3.5 20.4544C3.5 20.4575 3.5 20.4607 3.5 20.4639C3.5 20.467 3.5 20.4702 3.5 20.4733C3.5 20.4765 3.5 20.4797 3.5 20.4828C3.5 20.486 3.5 20.4891 3.5 20.4923C3.5 20.4954 3.5 20.4986 3.5 20.5017C3.5 20.5049 3.5 20.508 3.5 20.5112C3.5 20.5143 3.5 20.5175 3.5 20.5206C3.5 20.5238 3.5 20.5269 3.5 20.5301C3.5 20.5332 3.5 20.5363 3.5 20.5395C3.5 20.5426 3.5 20.5458 3.5 20.5489C3.5 20.552 3.5 20.5552 3.5 20.5583C3.5 20.5614 3.5 20.5646 3.5 20.5677C3.5 20.5708 3.5 20.574 3.5 20.5771C3.5 20.5802 3.5 20.5834 3.5 20.5865C3.5 20.5896 3.5 20.5927 3.5 20.5959C3.5 20.599 3.5 20.6021 3.5 20.6052C3.5 20.6083 3.5 20.6115 3.5 20.6146C3.5 20.6177 3.5 20.6208 3.5 20.6239C3.5 20.6271 3.5 20.6302 3.5 20.6333C3.5 20.6364 3.5 20.6395 3.5 20.6426C3.5 20.6457 3.5 20.6488 3.5 20.6519C3.5 20.6551 3.5 20.6582 3.5 20.6613C3.5 20.6644 3.5 20.6675 3.5 20.6706C3.5 20.6737 3.5 20.6768 3.5 20.6799C3.5 20.683 3.5 20.6861 3.5 20.6892C3.5 20.6923 3.5 20.6954 3.5 20.6985C3.5 20.7016 3.5 20.7046 3.5 20.7077C3.5 20.7108 3.5 20.7139 3.5 20.717C3.5 20.7201 3.5 20.7232 3.5 20.7263C3.5 20.7294 3.5 20.7324 3.5 20.7355C3.5 20.7386 3.5 20.7417 3.5 20.7448C3.5 20.7478 3.5 20.7509 3.5 20.754C3.5 20.7571 3.5 20.7602 3.5 20.7632C3.5 20.7663 3.5 20.7694 3.5 20.7724C3.5 20.7755 3.5 20.7786 3.5 20.7817C3.5 20.7847 3.5 20.7878 3.5 20.7909C3.5 20.7939 3.5 20.797 3.5 20.8C3.5 20.8031 3.5 20.8062 3.5 20.8092C3.5 20.8123 3.5 20.8153 3.5 20.8184C3.5 20.8215 3.5 20.8245 3.5 20.8276C3.5 20.8306 3.5 20.8337 3.5 20.8367C3.5 20.8398 3.5 20.8428 3.5 20.8459C3.5 20.8489 3.5 20.852 3.5 20.855C3.5 20.8581 3.5 20.8611 3.5 20.8641C3.5 20.8672 3.5 20.8702 3.5 20.8733C3.5 20.8763 3.5 20.8793 3.5 20.8824C3.5 20.8854 3.5 20.8884 3.5 20.8915C3.5 20.8945 3.5 20.8975 3.5 20.9006C3.5 20.9036 3.5 20.9066 3.5 20.9097C3.5 20.9127 3.5 20.9157 3.5 20.9187C3.5 20.9218 3.5 20.9248 3.5 20.9278C3.5 20.9308 3.5 20.9338 3.5 20.9369C3.5 20.9399 3.5 20.9429 3.5 20.9459C3.5 20.9489 3.5 20.9519 3.5 20.9549C3.5 20.958 3.5 20.961 3.5 20.964C3.5 20.967 3.5 20.97 3.5 20.973C3.5 20.976 3.5 20.979 3.5 20.982C3.5 20.985 3.5 20.988 3.5 20.991C3.5 20.994 3.5 20.997 3.5 21L6.5 21C6.5 20.997 6.5 20.994 6.5 20.991C6.5 20.988 6.5 20.985 6.5 20.982C6.5 20.979 6.5 20.976 6.5 20.973C6.5 20.97 6.5 20.967 6.5 20.964C6.5 20.961 6.5 20.958 6.5 20.9549C6.5 20.9519 6.5 20.9489 6.5 20.9459C6.5 20.9429 6.5 20.9399 6.5 20.9369C6.5 20.9338 6.5 20.9308 6.5 20.9278C6.5 20.9248 6.5 20.9218 6.5 20.9187C6.5 20.9157 6.5 20.9127 6.5 20.9097C6.5 20.9066 6.5 20.9036 6.5 20.9006C6.5 20.8975 6.5 20.8945 6.5 20.8915C6.5 20.8884 6.5 20.8854 6.5 20.8824C6.5 20.8793 6.5 20.8763 6.5 20.8733C6.5 20.8702 6.5 20.8672 6.5 20.8641C6.5 20.8611 6.5 20.8581 6.5 20.855C6.5 20.852 6.5 20.8489 6.5 20.8459C6.5 20.8428 6.5 20.8398 6.5 20.8367C6.5 20.8337 6.5 20.8306 6.5 20.8276C6.5 20.8245 6.5 20.8215 6.5 20.8184C6.5 20.8153 6.5 20.8123 6.5 20.8092C6.5 20.8062 6.5 20.8031 6.5 20.8C6.5 20.797 6.5 20.7939 6.5 20.7909C6.5 20.7878 6.5 20.7847 6.5 20.7817C6.5 20.7786 6.5 20.7755 6.5 20.7724C6.5 20.7694 6.5 20.7663 6.5 20.7632C6.5 20.7602 6.5 20.7571 6.5 20.754C6.5 20.7509 6.5 20.7478 6.5 20.7448C6.5 20.7417 6.5 20.7386 6.5 20.7355C6.5 20.7324 6.5 20.7294 6.5 20.7263C6.5 20.7232 6.5 20.7201 6.5 20.717C6.5 20.7139 6.5 20.7108 6.5 20.7077C6.5 20.7046 6.5 20.7016 6.5 20.6985C6.5 20.6954 6.5 20.6923 6.5 20.6892C6.5 20.6861 6.5 20.683 6.5 20.6799C6.5 20.6768 6.5 20.6737 6.5 20.6706C6.5 20.6675 6.5 20.6644 6.5 20.6613C6.5 20.6582 6.5 20.6551 6.5 20.6519C6.5 20.6488 6.5 20.6457 6.5 20.6426C6.5 20.6395 6.5 20.6364 6.5 20.6333C6.5 20.6302 6.5 20.6271 6.5 20.6239C6.5 20.6208 6.5 20.6177 6.5 20.6146C6.5 20.6115 6.5 20.6083 6.5 20.6052C6.5 20.6021 6.5 20.599 6.5 20.5959C6.5 20.5927 6.5 20.5896 6.5 20.5865C6.5 20.5834 6.5 20.5802 6.5 20.5771C6.5 20.574 6.5 20.5708 6.5 20.5677C6.5 20.5646 6.5 20.5614 6.5 20.5583C6.5 20.5552 6.5 20.552 6.5 20.5489C6.5 20.5458 6.5 20.5426 6.5 20.5395C6.5 20.5363 6.5 20.5332 6.5 20.5301C6.5 20.5269 6.5 20.5238 6.5 20.5206C6.5 20.5175 6.5 20.5143 6.5 20.5112C6.5 20.508 6.5 20.5049 6.5 20.5017C6.5 20.4986 6.5 20.4954 6.5 20.4923C6.5 20.4891 6.5 20.486 6.5 20.4828C6.5 20.4797 6.5 20.4765 6.5 20.4733C6.5 20.4702 6.5 20.467 6.5 20.4639C6.5 20.4607 6.5 20.4575 6.5 20.4544C6.5 20.4512 6.5 20.448 6.5 20.4449C6.5 20.4417 6.5 20.4385 6.5 20.4354C6.5 20.4322 6.5 20.429 6.5 20.4259C6.5 20.4227 6.5 20.4195 6.5 20.4164C6.5 20.4132 6.5 20.41 6.5 20.4068C6.5 20.4037 6.5 20.4005 6.5 20.3973C6.5 20.3941 6.5 20.3909 6.5 20.3878C6.5 20.3846 6.5 20.3814 6.5 20.3782C6.5 20.375 6.5 20.3718 6.5 20.3687C6.5 20.3655 6.5 20.3623 6.5 20.3591C6.5 20.3559 6.5 20.3527 6.5 20.3495C6.5 20.3463 6.5 20.3431 6.5 20.3399C6.5 20.3368 6.5 20.3336 6.5 20.3304C6.5 20.3272 6.5 20.324 6.5 20.3208C6.5 20.3176 6.5 20.3144 6.5 20.3112C6.5 20.308 6.5 20.3048 6.5 20.3016C6.5 20.2984 6.5 20.2952 6.5 20.292C6.5 20.2888 6.5 20.2855 6.5 20.2823C6.5 20.2791 6.5 20.2759 6.5 20.2727C6.5 20.2695 6.5 20.2663 6.5 20.2631C6.5 20.2599 6.5 20.2567 6.5 20.2534C6.5 20.2502 6.5 20.247 6.5 20.2438C6.5 20.2406 6.5 20.2374 6.5 20.2341C6.5 20.2309 6.5 20.2277 6.5 20.2245C6.5 20.2213 6.5 20.218 6.5 20.2148C6.5 20.2116 6.5 20.2084 6.5 20.2051C6.5 20.2019 6.5 20.1987 6.5 20.1954C6.5 20.1922 6.5 20.189 6.5 20.1858C6.5 20.1825 6.5 20.1793 6.5 20.1761C6.5 20.1728 6.5 20.1696 6.5 20.1664C6.5 20.1631 6.5 20.1599 6.5 20.1566C6.5 20.1534 6.5 20.1502 6.5 20.1469C6.5 20.1437 6.5 20.1405 6.5 20.1372C6.5 20.134 6.5 20.1307 6.5 20.1275C6.5 20.1242 6.5 20.121 6.5 20.1177C6.5 20.1145 6.5 20.1112 6.5 20.108C6.5 20.1048 6.5 20.1015 6.5 20.0982C6.5 20.095 6.5 20.0917 6.5 20.0885C6.5 20.0852 6.5 20.082 6.5 20.0787C6.5 20.0755 6.5 20.0722 6.5 20.069C6.5 20.0657 6.5 20.0624 6.5 20.0592C6.5 20.0559 6.5 20.0527 6.5 20.0494C6.5 20.0461 6.5 20.0429 6.5 20.0396C6.5 20.0364 6.5 20.0331 6.5 20.0298C6.5 20.0266 6.5 20.0233 6.5 20.02C6.5 20.0168 6.5 20.0135 6.5 20.0102C6.5 20.0069 6.5 20.0037 6.5 20.0004C6.5 19.9971 6.5 19.9939 6.5 19.9906C6.5 19.9873 6.5 19.984 6.5 19.9808C6.5 19.9775 6.5 19.9742 6.5 19.9709C6.5 19.9676 6.5 19.9644 6.5 19.9611C6.5 19.9578 6.5 19.9545 6.5 19.9512C6.5 19.948 6.5 19.9447 6.5 19.9414C6.5 19.9381 6.5 19.9348 6.5 19.9315C6.5 19.9282 6.5 19.925 6.5 19.9217C6.5 19.9184 6.5 19.9151 6.5 19.9118C6.5 19.9085 6.5 19.9052 6.5 19.9019C6.5 19.8986 6.5 19.8953 6.5 19.892C6.5 19.8887 6.5 19.8855 6.5 19.8822C6.5 19.8789 6.5 19.8756 6.5 19.8723C6.5 19.869 6.5 19.8657 6.5 19.8624C6.5 19.8591 6.5 19.8558 6.5 19.8525C6.5 19.8492 6.5 19.8459 6.5 19.8426C6.5 19.8392 6.5 19.8359 6.5 19.8326C6.5 19.8293 6.5 19.826 6.5 19.8227C6.5 19.8194 6.5 19.8161 6.5 19.8128C6.5 19.8095 6.5 19.8062 6.5 19.8029C6.5 19.7995 6.5 19.7962 6.5 19.7929C6.5 19.7896 6.5 19.7863 6.5 19.783C6.5 19.7797 6.5 19.7763 6.5 19.773C6.5 19.7697 6.5 19.7664 6.5 19.7631C6.5 19.7597 6.5 19.7564 6.5 19.7531C6.5 19.7498 6.5 19.7465 6.5 19.7431C6.5 19.7398 6.5 19.7365 6.5 19.7332C6.5 19.7298 6.5 19.7265 6.5 19.7232C6.5 19.7199 6.5 19.7165 6.5 19.7132C6.5 19.7099 6.5 19.7066 6.5 19.7032C6.5 19.6999 6.5 19.6966 6.5 19.6932C6.5 19.6899 6.5 19.6866 6.5 19.6832C6.5 19.6799 6.5 19.6766 6.5 19.6732C6.5 19.6699 6.5 19.6666 6.5 19.6632C6.5 19.6599 6.5 19.6565 6.5 19.6532C6.5 19.6499 6.5 19.6465 6.5 19.6432C6.5 19.6398 6.5 19.6365 6.5 19.6332C6.5 19.6298 6.5 19.6265 6.5 19.6231C6.5 19.6198 6.5 19.6164 6.5 19.6131C6.5 19.6097 6.5 19.6064 6.5 19.6031C6.5 19.5997 6.5 19.5964 6.5 19.593C6.5 19.5897 6.5 19.5863 6.5 19.583C6.5 19.5796 6.5 19.5763 6.5 19.5729C6.5 19.5696 6.5 19.5662 6.5 19.5628C6.5 19.5595 6.5 19.5561 6.5 19.5528C6.5 19.5494 6.5 19.5461 6.5 19.5427C6.5 19.5394 6.5 19.536 6.5 19.5326C6.5 19.5293 6.5 19.5259 6.5 19.5226C6.5 19.5192 6.5 19.5158 6.5 19.5125C6.5 19.5091 6.5 19.5057 6.5 19.5024C6.5 19.499 6.5 19.4957 6.5 19.4923C6.5 19.4889 6.5 19.4856 6.5 19.4822C6.5 19.4788 6.5 19.4755 6.5 19.4721C6.5 19.4687 6.5 19.4653 6.5 19.462C6.5 19.4586 6.5 19.4552 6.5 19.4519C6.5 19.4485 6.5 19.4451 6.5 19.4417C6.5 19.4384 6.5 19.435 6.5 19.4316C6.5 19.4283 6.5 19.4249 6.5 19.4215C6.5 19.4181 6.5 19.4147 6.5 19.4114C6.5 19.408 6.5 19.4046 6.5 19.4012C6.5 19.3979 6.5 19.3945 6.5 19.3911C6.5 19.3877 6.5 19.3843 6.5 19.3809C6.5 19.3776 6.5 19.3742 6.5 19.3708C6.5 19.3674 6.5 19.364 6.5 19.3606C6.5 19.3573 6.5 19.3539 6.5 19.3505C6.5 19.3471 6.5 19.3437 6.5 19.3403C6.5 19.3369 6.5 19.3336 6.5 19.3302C6.5 19.3268 6.5 19.3234 6.5 19.32C6.5 19.3166 6.5 19.3132 6.5 19.3098C6.5 19.3064 6.5 19.303 6.5 19.2996C6.5 19.2962 6.5 19.2929 6.5 19.2895C6.5 19.2861 6.5 19.2827 6.5 19.2793C6.5 19.2759 6.5 19.2725 6.5 19.2691C6.5 19.2657 6.5 19.2623 6.5 19.2589C6.5 19.2555 6.5 19.2521 6.5 19.2487C6.5 19.2453 6.5 19.2419 6.5 19.2385C6.5 19.2351 6.5 19.2317 6.5 19.2283C6.5 19.2249 6.5 19.2215 6.5 19.2181C6.5 19.2147 6.5 19.2113 6.5 19.2078C6.5 19.2044 6.5 19.201 6.5 19.1976C6.5 19.1942 6.5 19.1908 6.5 19.1874C6.5 19.184 6.5 19.1806 6.5 19.1772C6.5 19.1738 6.5 19.1704 6.5 19.167C6.5 19.1635 6.5 19.1601 6.5 19.1567C6.5 19.1533 6.5 19.1499 6.5 19.1465C6.5 19.1431 6.5 19.1397 6.5 19.1362C6.5 19.1328 6.5 19.1294 6.5 19.126C6.5 19.1226 6.5 19.1192 6.5 19.1157C6.5 19.1123 6.5 19.1089 6.5 19.1055C6.5 19.1021 6.5 19.0987 6.5 19.0952C6.5 19.0918 6.5 19.0884 6.5 19.085C6.5 19.0816 6.5 19.0781 6.5 19.0747C6.5 19.0713 6.5 19.0679 6.5 19.0644C6.5 19.061 6.5 19.0576 6.5 19.0542C6.5 19.0508 6.5 19.0473 6.5 19.0439C6.5 19.0405 6.5 19.0371 6.5 19.0336C6.5 19.0302 6.5 19.0268 6.5 19.0233C6.5 19.0199 6.5 19.0165 6.5 19.0131C6.5 19.0096 6.5 19.0062 6.5 19.0028C6.5 18.9993 6.5 18.9959 6.5 18.9925C6.5 18.9891 6.5 18.9856 6.5 18.9822C6.5 18.9788 6.5 18.9753 6.5 18.9719C6.5 18.9685 6.5 18.965 6.5 18.9616C6.5 18.9582 6.5 18.9547 6.5 18.9513C6.5 18.9479 6.5 18.9444 6.5 18.941C6.5 18.9375 6.5 18.9341 6.5 18.9307C6.5 18.9272 6.5 18.9238 6.5 18.9204C6.5 18.9169 6.5 18.9135 6.5 18.91C6.5 18.9066 6.5 18.9032 6.5 18.8997C6.5 18.8963 6.5 18.8928 6.5 18.8894C6.5 18.886 6.5 18.8825 6.5 18.8791C6.5 18.8756 6.5 18.8722 6.5 18.8688C6.5 18.8653 6.5 18.8619 6.5 18.8584C6.5 18.855 6.5 18.8515 6.5 18.8481C6.5 18.8446 6.5 18.8412 6.5 18.8378C6.5 18.8343 6.5 18.8309 6.5 18.8274C6.5 18.824 6.5 18.8205 6.5 18.8171C6.5 18.8136 6.5 18.8102 6.5 18.8067C6.5 18.8033 6.5 18.7998 6.5 18.7964C6.5 18.7929 6.5 18.7895 6.5 18.786C6.5 18.7826 6.5 18.7791 6.5 18.7757C6.5 18.7722 6.5 18.7688 6.5 18.7653C6.5 18.7619 6.5 18.7584 6.5 18.755C6.5 18.7515 6.5 18.7481 6.5 18.7446C6.5 18.7412 6.5 18.7377 6.5 18.7342C6.5 18.7308 6.5 18.7273 6.5 18.7239C6.5 18.7204 6.5 18.717 6.5 18.7135C6.5 18.7101 6.5 18.7066 6.5 18.7031C6.5 18.6997 6.5 18.6962 6.5 18.6928C6.5 18.6893 6.5 18.6859 6.5 18.6824C6.5 18.6789 6.5 18.6755 6.5 18.672C6.5 18.6686 6.5 18.6651 6.5 18.6616C6.5 18.6582 6.5 18.6547 6.5 18.6513C6.5 18.6478 6.5 18.6443 6.5 18.6409C6.5 18.6374 6.5 18.6339 6.5 18.6305C6.5 18.627 6.5 18.6236 6.5 18.6201C6.5 18.6166 6.5 18.6132 6.5 18.6097C6.5 18.6062 6.5 18.6028 6.5 18.5993C6.5 18.5958 6.5 18.5924 6.5 18.5889C6.5 18.5854 6.5 18.582 6.5 18.5785C6.5 18.5751 6.5 18.5716 6.5 18.5681C6.5 18.5647 6.5 18.5612 6.5 18.5577C6.5 18.5542 6.5 18.5508 6.5 18.5473C6.5 18.5438 6.5 18.5404 6.5 18.5369C6.5 18.5334 6.5 18.53 6.5 18.5265C6.5 18.523 6.5 18.5196 6.5 18.5161C6.5 18.5126 6.5 18.5091 6.5 18.5057C6.5 18.5022 6.5 18.4987 6.5 18.4953C6.5 18.4918 6.5 18.4883 6.5 18.4848C6.5 18.4814 6.5 18.4779 6.5 18.4744C6.5 18.471 6.5 18.4675 6.5 18.464C6.5 18.4605 6.5 18.4571 6.5 18.4536C6.5 18.4501 6.5 18.4466 6.5 18.4432C6.5 18.4397 6.5 18.4362 6.5 18.4327C6.5 18.4293 6.5 18.4258 6.5 18.4223C6.5 18.4188 6.5 18.4154 6.5 18.4119C6.5 18.4084 6.5 18.4049 6.5 18.4015C6.5 18.398 6.5 18.3945 6.5 18.391C6.5 18.3876 6.5 18.3841 6.5 18.3806C6.5 18.3771 6.5 18.3736 6.5 18.3702C6.5 18.3667 6.5 18.3632 6.5 18.3597C6.5 18.3563 6.5 18.3528 6.5 18.3493C6.5 18.3458 6.5 18.3423 6.5 18.3389C6.5 18.3354 6.5 18.3319 6.5 18.3284C6.5 18.3249 6.5 18.3215 6.5 18.318C6.5 18.3145 6.5 18.311 6.5 18.3075C6.5 18.3041 6.5 18.3006 6.5 18.2971C6.5 18.2936 6.5 18.2901 6.5 18.2867C6.5 18.2832 6.5 18.2797 6.5 18.2762C6.5 18.2727 6.5 18.2692 6.5 18.2658C6.5 18.2623 6.5 18.2588 6.5 18.2553C6.5 18.2518 6.5 18.2483 6.5 18.2449C6.5 18.2414 6.5 18.2379 6.5 18.2344C6.5 18.2309 6.5 18.2274 6.5 18.224C6.5 18.2205 6.5 18.217 6.5 18.2135C6.5 18.21 6.5 18.2065 6.5 18.2031C6.5 18.1996 6.5 18.1961 6.5 18.1926C6.5 18.1891 6.5 18.1856 6.5 18.1821C6.5 18.1787 6.5 18.1752 6.5 18.1717C6.5 18.1682 6.5 18.1647 6.5 18.1612C6.5 18.1578 6.5 18.1543 6.5 18.1508C6.5 18.1473 6.5 18.1438 6.5 18.1403C6.5 18.1368 6.5 18.1333 6.5 18.1299C6.5 18.1264 6.5 18.1229 6.5 18.1194C6.5 18.1159 6.5 18.1124 6.5 18.1089C6.5 18.1055 6.5 18.102 6.5 18.0985C6.5 18.095 6.5 18.0915 6.5 18.088C6.5 18.0845 6.5 18.081 6.5 18.0776C6.5 18.0741 6.5 18.0706 6.5 18.0671C6.5 18.0636 6.5 18.0601 6.5 18.0566C6.5 18.0531 6.5 18.0496 6.5 18.0462C6.5 18.0427 6.5 18.0392 6.5 18.0357C6.5 18.0322 6.5 18.0287 6.5 18.0252C6.5 18.0217 6.5 18.0182 6.5 18.0148C6.5 18.0113 6.5 18.0078 6.5 18.0043C6.5 18.0008 6.5 17.9973 6.5 17.9938C6.5 17.9903 6.5 17.9868 6.5 17.9834C6.5 17.9799 6.5 17.9764 6.5 17.9729C6.5 17.9694 6.5 17.9659 6.5 17.9624C6.5 17.9589 6.5 17.9554 6.5 17.9519C6.5 17.9485 6.5 17.945 6.5 17.9415C6.5 17.938 6.5 17.9345 6.5 17.931C6.5 17.9275 6.5 17.924 6.5 17.9205C6.5 17.9171 6.5 17.9136 6.5 17.9101C6.5 17.9066 6.5 17.9031 6.5 17.8996C6.5 17.8961 6.5 17.8926 6.5 17.8891C6.5 17.8856 6.5 17.8822 6.5 17.8787C6.5 17.8752 6.5 17.8717 6.5 17.8682C6.5 17.8647 6.5 17.8612 6.5 17.8577C6.5 17.8542 6.5 17.8507 6.5 17.8472C6.5 17.8438 6.5 17.8403 6.5 17.8368C6.5 17.8333 6.5 17.8298 6.5 17.8263C6.5 17.8228 6.5 17.8193 6.5 17.8158C6.5 17.8123 6.5 17.8089 6.5 17.8054C6.5 17.8019 6.5 17.7984 6.5 17.7949C6.5 17.7914 6.5 17.7879 6.5 17.7844C6.5 17.7809 6.5 17.7774 6.5 17.774C6.5 17.7705 6.5 17.767 6.5 17.7635C6.5 17.76 6.5 17.7565 6.5 17.753C6.5 17.7495 6.5 17.746 6.5 17.7426C6.5 17.7391 6.5 17.7356 6.5 17.7321C6.5 17.7286 6.5 17.7251 6.5 17.7216C6.5 17.7181 6.5 17.7146 6.5 17.7111C6.5 17.7077 6.5 17.7042 6.5 17.7007C6.5 17.6972 6.5 17.6937 6.5 17.6902C6.5 17.6867 6.5 17.6832 6.5 17.6797C6.5 17.6763 6.5 17.6728 6.5 17.6693C6.5 17.6658 6.5 17.6623 6.5 17.6588C6.5 17.6553 6.5 17.6518 6.5 17.6483C6.5 17.6449 6.5 17.6414 6.5 17.6379C6.5 17.6344 6.5 17.6309 6.5 17.6274C6.5 17.6239 6.5 17.6204 6.5 17.617C6.5 17.6135 6.5 17.61 6.5 17.6065C6.5 17.603 6.5 17.5995 6.5 17.596C6.5 17.5925 6.5 17.5891 6.5 17.5856C6.5 17.5821 6.5 17.5786 6.5 17.5751C6.5 17.5716 6.5 17.5681 6.5 17.5646C6.5 17.5612 6.5 17.5577 6.5 17.5542C6.5 17.5507 6.5 17.5472 6.5 17.5437C6.5 17.5402 6.5 17.5368 6.5 17.5333C6.5 17.5298 6.5 17.5263 6.5 17.5228C6.5 17.5193 6.5 17.5158 6.5 17.5124C6.5 17.5089 6.5 17.5054 6.5 17.5019C6.5 17.4984 6.5 17.4949 6.5 17.4915C6.5 17.488 6.5 17.4845 6.5 17.481C6.5 17.4775 6.5 17.474 6.5 17.4706C6.5 17.4671 6.5 17.4636 6.5 17.4601C6.5 17.4566 6.5 17.4531 6.5 17.4497C6.5 17.4462 6.5 17.4427 6.5 17.4392C6.5 17.4357 6.5 17.4322 6.5 17.4288C6.5 17.4253 6.5 17.4218 6.5 17.4183C6.5 17.4148 6.5 17.4114 6.5 17.4079C6.5 17.4044 6.5 17.4009 6.5 17.3974C6.5 17.3939 6.5 17.3905 6.5 17.387C6.5 17.3835 6.5 17.38 6.5 17.3765C6.5 17.3731 6.5 17.3696 6.5 17.3661C6.5 17.3626 6.5 17.3591 6.5 17.3557C6.5 17.3522 6.5 17.3487 6.5 17.3452C6.5 17.3418 6.5 17.3383 6.5 17.3348C6.5 17.3313 6.5 17.3278 6.5 17.3244C6.5 17.3209 6.5 17.3174 6.5 17.3139C6.5 17.3105 6.5 17.307 6.5 17.3035C6.5 17.3 6.5 17.2965 6.5 17.2931C6.5 17.2896 6.5 17.2861 6.5 17.2826C6.5 17.2792 6.5 17.2757 6.5 17.2722C6.5 17.2687 6.5 17.2653 6.5 17.2618C6.5 17.2583 6.5 17.2548 6.5 17.2514C6.5 17.2479 6.5 17.2444 6.5 17.241C6.5 17.2375 6.5 17.234 6.5 17.2305C6.5 17.2271 6.5 17.2236 6.5 17.2201C6.5 17.2166 6.5 17.2132 6.5 17.2097C6.5 17.2062 6.5 17.2028 6.5 17.1993C6.5 17.1958 6.5 17.1924 6.5 17.1889C6.5 17.1854 6.5 17.1819 6.5 17.1785C6.5 17.175 6.5 17.1715 6.5 17.1681C6.5 17.1646 6.5 17.1611 6.5 17.1577C6.5 17.1542 6.5 17.1507 6.5 17.1473C6.5 17.1438 6.5 17.1403 6.5 17.1369C6.5 17.1334 6.5 17.1299 6.5 17.1265C6.5 17.123 6.5 17.1195 6.5 17.1161C6.5 17.1126 6.5 17.1091 6.5 17.1057C6.5 17.1022 6.5 17.0987 6.5 17.0953C6.5 17.0918 6.5 17.0883 6.5 17.0849C6.5 17.0814 6.5 17.0779 6.5 17.0745C6.5 17.071 6.5 17.0676 6.5 17.0641C6.5 17.0606 6.5 17.0572 6.5 17.0537C6.5 17.0503 6.5 17.0468 6.5 17.0433C6.5 17.0399 6.5 17.0364 6.5 17.033C6.5 17.0295 6.5 17.026 6.5 17.0226C6.5 17.0191 6.5 17.0157 6.5 17.0122C6.5 17.0087 6.5 17.0053 6.5 17.0018C6.5 16.9984 6.5 16.9949 6.5 16.9915C6.5 16.988 6.5 16.9845 6.5 16.9811C6.5 16.9776 6.5 16.9742 6.5 16.9707C6.5 16.9673 6.5 16.9638 6.5 16.9604C6.5 16.9569 6.5 16.9535 6.5 16.95C6.5 16.9465 6.5 16.9431 6.5 16.9396C6.5 16.9362 6.5 16.9327 6.5 16.9293C6.5 16.9258 6.5 16.9224 6.5 16.9189C6.5 16.9155 6.5 16.912 6.5 16.9086C6.5 16.9051 6.5 16.9017 6.5 16.8982C6.5 16.8948 6.5 16.8913 6.5 16.8879C6.5 16.8844 6.5 16.881 6.5 16.8776C6.5 16.8741 6.5 16.8707 6.5 16.8672C6.5 16.8638 6.5 16.8603 6.5 16.8569C6.5 16.8534 6.5 16.85 6.5 16.8465C6.5 16.8431 6.5 16.8397 6.5 16.8362C6.5 16.8328 6.5 16.8293 6.5 16.8259C6.5 16.8224 6.5 16.819 6.5 16.8156C6.5 16.8121 6.5 16.8087 6.5 16.8052C6.5 16.8018 6.5 16.7984 6.5 16.7949C6.5 16.7915 6.5 16.788 6.5 16.7846C6.5 16.7812 6.5 16.7777 6.5 16.7743C6.5 16.7709 6.5 16.7674 6.5 16.764C6.5 16.7605 6.5 16.7571 6.5 16.7537C6.5 16.7502 6.5 16.7468 6.5 16.7434C6.5 16.7399 6.5 16.7365 6.5 16.7331C6.5 16.7296 6.5 16.7262 6.5 16.7228C6.5 16.7193 6.5 16.7159 6.5 16.7125C6.5 16.7091 6.5 16.7056 6.5 16.7022C6.5 16.6988 6.5 16.6953 6.5 16.6919C6.5 16.6885 6.5 16.6851 6.5 16.6816C6.5 16.6782 6.5 16.6748 6.5 16.6713C6.5 16.6679 6.5 16.6645 6.5 16.6611C6.5 16.6576 6.5 16.6542 6.5 16.6508C6.5 16.6474 6.5 16.6439 6.5 16.6405C6.5 16.6371 6.5 16.6337 6.5 16.6303C6.5 16.6268 6.5 16.6234 6.5 16.62C6.5 16.6166 6.5 16.6132 6.5 16.6097C6.5 16.6063 6.5 16.6029 6.5 16.5995C6.5 16.5961 6.5 16.5926 6.5 16.5892C6.5 16.5858 6.5 16.5824 6.5 16.579C6.5 16.5756 6.5 16.5721 6.5 16.5687C6.5 16.5653 6.5 16.5619 6.5 16.5585C6.5 16.5551 6.5 16.5517 6.5 16.5483C6.5 16.5448 6.5 16.5414 6.5 16.538C6.5 16.5346 6.5 16.5312 6.5 16.5278C6.5 16.5244 6.5 16.521 6.5 16.5176C6.5 16.5142 6.5 16.5107 6.5 16.5073C6.5 16.5039 6.5 16.5005 6.5 16.4971C6.5 16.4937 6.5 16.4903 6.5 16.4869C6.5 16.4835 6.5 16.4801 6.5 16.4767C6.5 16.4733 6.5 16.4699 6.5 16.4665C6.5 16.4631 6.5 16.4597 6.5 16.4563C6.5 16.4529 6.5 16.4495 6.5 16.4461C6.5 16.4427 6.5 16.4393 6.5 16.4359C6.5 16.4325 6.5 16.4291 6.5 16.4257C6.5 16.4223 6.5 16.4189 6.5 16.4155C6.5 16.4121 6.5 16.4087 6.5 16.4053C6.5 16.4019 6.5 16.3985 6.5 16.3952C6.5 16.3918 6.5 16.3884 6.5 16.385C6.5 16.3816 6.5 16.3782 6.5 16.3748C6.5 16.3714 6.5 16.368 6.5 16.3646C6.5 16.3613 6.5 16.3579 6.5 16.3545C6.5 16.3511 6.5 16.3477 6.5 16.3443C6.5 16.3409 6.5 16.3376 6.5 16.3342C6.5 16.3308 6.5 16.3274 6.5 16.324C6.5 16.3206 6.5 16.3173 6.5 16.3139C6.5 16.3105 6.5 16.3071 6.5 16.3037C6.5 16.3004 6.5 16.297 6.5 16.2936C6.5 16.2902 6.5 16.2868 6.5 16.2835C6.5 16.2801 6.5 16.2767 6.5 16.2733C6.5 16.27 6.5 16.2666 6.5 16.2632C6.5 16.2598 6.5 16.2565 6.5 16.2531C6.5 16.2497 6.5 16.2464 6.5 16.243C6.5 16.2396 6.5 16.2363 6.5 16.2329C6.5 16.2295 6.5 16.2261 6.5 16.2228C6.5 16.2194 6.5 16.216 6.5 16.2127C6.5 16.2093 6.5 16.206 6.5 16.2026C6.5 16.1992 6.5 16.1959 6.5 16.1925C6.5 16.1891 6.5 16.1858 6.5 16.1824C6.5 16.1791 6.5 16.1757 6.5 16.1723C6.5 16.169 6.5 16.1656 6.5 16.1623C6.5 16.1589 6.5 16.1555 6.5 16.1522C6.5 16.1488 6.5 16.1455 6.5 16.1421C6.5 16.1388 6.5 16.1354 6.5 16.1321C6.5 16.1287 6.5 16.1254 6.5 16.122C6.5 16.1187 6.5 16.1153 6.5 16.112C6.5 16.1086 6.5 16.1053 6.5 16.1019C6.5 16.0986 6.5 16.0952 6.5 16.0919C6.5 16.0885 6.5 16.0852 6.5 16.0818C6.5 16.0785 6.5 16.0752 6.5 16.0718C6.5 16.0685 6.5 16.0651 6.5 16.0618C6.5 16.0584 6.5 16.0551 6.5 16.0518C6.5 16.0484 6.5 16.0451 6.5 16.0418C6.5 16.0384 6.5 16.0351 6.5 16.0317C6.5 16.0284 6.5 16.0251 6.5 16.0217C6.5 16.0184 6.5 16.0151 6.5 16.0117C6.5 16.0084 6.5 16.0051 6.5 16.0017C6.5 15.9984 6.5 15.9951 6.5 15.9918C6.5 15.9884 6.5 15.9851 6.5 15.9818C6.5 15.9785 6.5 15.9751 6.5 15.9718C6.5 15.9685 6.5 15.9652 6.5 15.9618C6.5 15.9585 6.5 15.9552 6.5 15.9519C6.5 15.9485 6.5 15.9452 6.5 15.9419C6.5 15.9386 6.5 15.9353 6.5 15.9319C6.5 15.9286 6.5 15.9253 6.5 15.922C6.5 15.9187 6.5 15.9154 6.5 15.9121C6.5 15.9087 6.5 15.9054 6.5 15.9021C6.5 15.8988 6.5 15.8955 6.5 15.8922C6.5 15.8889 6.5 15.8856 6.5 15.8823C6.5 15.8789 6.5 15.8756 6.5 15.8723C6.5 15.869 6.5 15.8657 6.5 15.8624C6.5 15.8591 6.5 15.8558 6.5 15.8525C6.5 15.8492 6.5 15.8459 6.5 15.8426C6.5 15.8393 6.5 15.836 6.5 15.8327L3.5 15.8327ZM8.83333 10.5C5.88814 10.5 3.5 12.8869 3.5 15.8327L6.5 15.8327C6.5 14.5444 7.54435 13.5 8.83333 13.5L8.83333 10.5ZM20.5 15.8333C20.5 12.8878 18.1122 10.5 15.1667 10.5L15.1667 13.5C16.4553 13.5 17.5 14.5447 17.5 15.8333L20.5 15.8333Z" fill="white" mask="url(#path-1-inside-1_290_4162)"/>
<path d="M15.25 7C15.25 8.79493 13.7949 10.25 12 10.25C10.2051 10.25 8.75 8.79493 8.75 7C8.75 5.20507 10.2051 3.75 12 3.75C13.7949 3.75 15.25 5.20507 15.25 7Z" stroke="white" stroke-width="1.5" stroke-miterlimit="10"/>
</svg>
