<svg width="24" height="24" viewBox="0 0 24 24" fill="none" xmlns="http://www.w3.org/2000/svg">
<path d="M2 4H3.39682H4.73842V16H17.6028L20 7.0641H7.46518" stroke="white" stroke-width="1.5" stroke-linejoin="round"/>
<path d="M5.75 21.5C6.7165 21.5 7.5 20.7165 7.5 19.75C7.5 18.7835 6.7165 18 5.75 18C4.7835 18 4 18.7835 4 19.75C4 20.7165 4.7835 21.5 5.75 21.5Z" fill="white"/>
<path d="M16.75 21.5C17.7165 21.5 18.5 20.7165 18.5 19.75C18.5 18.7835 17.7165 18 16.75 18C15.7835 18 15 18.7835 15 19.75C15 20.7165 15.7835 21.5 16.75 21.5Z" fill="white"/>
</svg>
