<svg xmlns="http://www.w3.org/2000/svg" width="16" height="9.6" viewBox="0 0 16 9.6">
  <g id="Icon" transform="translate(0 -98.725)">
    <path id="패스_3314" data-name="패스 3314" d="M8,98.725c-3.057,0-5.829,1.683-7.875,4.418a.641.641,0,0,0,0,.761c2.046,2.738,4.818,4.421,7.875,4.421s5.829-1.683,7.875-4.418a.641.641,0,0,0,0-.761C13.829,100.408,11.057,98.725,8,98.725Zm.219,8.18a3.387,3.387,0,1,1,3.139-3.159A3.378,3.378,0,0,1,8.219,106.905Zm-.1-1.562a1.824,1.824,0,1,1,1.692-1.7A1.815,1.815,0,0,1,8.118,105.344Z" transform="translate(0 0)" fill="#fff"/>
  </g>
</svg>
