<svg xmlns="http://www.w3.org/2000/svg" width="50" height="58.125" viewBox="0 0 50 58.125">
  <g id="Bell" transform="translate(-31.628 -2.25)">
    <circle id="타원_114" data-name="타원 114" cx="7.5" cy="7.5" r="7.5" transform="translate(49.629 45.375)" fill="#e2e2e2"/>
    <path id="패스_3421" data-name="패스 3421" d="M230.837,11.25a1.876,1.876,0,0,1-1.875-1.875v-7.5a1.875,1.875,0,0,1,3.75,0v7.5A1.876,1.876,0,0,1,230.837,11.25Z" transform="translate(-174.334 2.25)" fill="#e2e2e2"/>
    <path id="패스_3420" data-name="패스 3420" d="M77.253,109H36a4.376,4.376,0,0,1-2.845-7.7,16.755,16.755,0,0,0,5.97-12.83V81.5a17.5,17.5,0,0,1,35,0v6.97a16.751,16.751,0,0,0,5.945,12.812A4.373,4.373,0,0,1,77.253,109Z" transform="translate(0 -56.125)" fill="#fff"/>
  </g>
</svg>
