<svg xmlns="http://www.w3.org/2000/svg" width="20" height="15" viewBox="0 0 20 15">
  <g id="Icon" transform="translate(0 -4426.63)">
    <path id="패스_3323" data-name="패스 3323" d="M4.776,18.53A6.193,6.193,0,0,1,3,13.8c0-3.839,2.756-7.279,6.764-8.98l1,1.511C7.024,8.313,6.293,10.88,6,12.5a4.1,4.1,0,0,1,2.164-.341,3.836,3.836,0,0,1-.307,7.665A4.389,4.389,0,0,1,4.776,18.53Zm11.216,0A6.193,6.193,0,0,1,14.216,13.8c0-3.839,2.756-7.279,6.764-8.98l1,1.511C18.241,8.313,17.51,10.88,17.218,12.5a4.1,4.1,0,0,1,2.164-.341,3.836,3.836,0,0,1-.307,7.665A4.389,4.389,0,0,1,15.992,18.53Z" transform="translate(-3 4421.807)" fill="#fff"/>
  </g>
</svg>
