<svg width="30" height="20" viewBox="0 0 30 20" fill="none" xmlns="http://www.w3.org/2000/svg">
<path d="M15 17.1712C22.7326 17.1712 29 13.9622 29 10.0016C29 6.04096 22.7326 2.82812 15 2.82812C7.2674 2.82812 1 6.04286 1 10.0016C1 13.9603 7.26835 17.1712 15 17.1712ZM17.6347 13.6532C17.3796 14.5308 16.8292 15.2935 16.0766 15.8121C15.7834 15.9477 15.4652 16.0209 15.1422 16.0273C15.073 16.0273 15.0237 16.0273 15.0028 16.0273C12.634 16.0449 10.2752 15.7171 8.00095 15.054C7.98389 15.0492 7.93745 15.0303 7.92323 15.0246C7.73369 14.963 7.63891 14.8758 7.63891 14.7715C7.64094 14.7277 7.6522 14.6848 7.67196 14.6456C7.69172 14.6064 7.71954 14.5718 7.75359 14.5441C7.78107 14.5147 7.82467 14.4796 7.88059 14.4313C9.24744 13.3972 10.7681 12.5839 12.3871 12.0212C13.4558 11.5856 14.557 11.2342 15.6805 10.9701C16.3913 10.8214 19.0269 10.4176 17.6357 13.6532H17.6347ZM24.7086 6.42953C24.7293 6.383 24.7622 6.34288 24.8037 6.31337C24.8452 6.28386 24.8939 6.26604 24.9446 6.26178C25.0493 6.26123 25.1513 6.29447 25.2356 6.35656C26.8799 7.36874 27.8542 8.63113 27.8542 10.0006C27.8542 12.4733 24.6755 14.5981 20.1311 15.5278C19.8382 15.5847 19.6449 15.5837 19.5785 15.5098C19.5528 15.4786 19.5387 15.4394 19.5387 15.3989C19.5387 15.3585 19.5528 15.3193 19.5785 15.288C19.6138 15.2283 19.6544 15.1718 19.6998 15.1194C21.7021 12.5281 23.3496 9.68124 24.5987 6.65415C24.6376 6.5679 24.6774 6.48261 24.7086 6.42953ZM12.407 6.33476C12.6637 5.45864 13.2138 4.69741 13.9651 4.17865C14.2582 4.04279 14.5765 3.96983 14.8995 3.96446C14.9687 3.96446 15.018 3.96446 15.0379 3.96446C17.4068 3.94591 19.7656 4.2735 22.0398 4.93684C22.055 4.93684 22.1014 4.95959 22.1156 4.96528C22.3052 5.02688 22.3999 5.11218 22.3999 5.21832C22.3973 5.26213 22.3856 5.30493 22.3658 5.34406C22.3459 5.38319 22.3181 5.41781 22.2843 5.44578C22.2559 5.47326 22.2132 5.51023 22.1564 5.55761C20.7912 6.59196 19.2721 7.40555 17.6546 7.96866C16.5865 8.40404 15.486 8.75514 14.3631 9.01876C13.6495 9.16945 11.0148 9.57034 12.407 6.33476ZM9.86705 4.47435C10.1599 4.41748 10.3523 4.41843 10.4215 4.49235C10.4443 4.52446 10.4566 4.56288 10.4566 4.60229C10.4566 4.6417 10.4443 4.68013 10.4215 4.71223C10.3851 4.77118 10.3442 4.82726 10.2992 4.87998C8.29734 7.47217 6.65048 10.32 5.40225 13.348C5.36244 13.4333 5.32169 13.5186 5.28852 13.5745C5.26797 13.6208 5.23544 13.6608 5.19428 13.6902C5.15313 13.7197 5.10485 13.7377 5.05443 13.7423C4.94932 13.742 4.84693 13.7089 4.76158 13.6475C3.11914 12.6344 2.14203 11.3729 2.14203 10.0025C2.14203 7.52796 5.32169 5.40218 9.86705 4.47435Z" fill="#002C5F"/>
</svg>
