<svg width="24" height="24" viewBox="0 0 24 24" fill="none" xmlns="http://www.w3.org/2000/svg">
<path d="M3 6L3.75 6L3 6ZM4 5L4 5.75L4 5ZM3 9.78874L2.68258 10.4683L2.25 10.2662L2.25 9.78874L3 9.78874ZM3 14.3233L2.25 14.3233L2.25 13.8458L2.68258 13.6437L3 14.3233ZM20 5L20 4.25L20 5ZM2.25 6C2.25 5.0335 3.0335 4.25 4 4.25L4 5.75C3.86193 5.75 3.75 5.86193 3.75 6L2.25 6ZM2.25 9.78874L2.25 6L3.75 6L3.75 9.78874L2.25 9.78874ZM3.31742 9.10922C4.4237 9.626 5.19176 10.7509 5.19176 12.056L3.69176 12.056C3.69176 11.3535 3.27939 10.747 2.68258 10.4683L3.31742 9.10922ZM5.19176 12.056C5.19176 13.3611 4.4237 14.486 3.31742 15.0028L2.68258 13.6437C3.27939 13.365 3.69176 12.7585 3.69176 12.056L5.19176 12.056ZM2.25 18L2.25 14.3233L3.75 14.3233L3.75 18L2.25 18ZM4 19.75C3.0335 19.75 2.25 18.9665 2.25 18L3.75 18C3.75 18.1381 3.86193 18.25 4 18.25L4 19.75ZM20 19.75L4 19.75L4 18.25L20 18.25L20 19.75ZM21.75 18C21.75 18.9665 20.9665 19.75 20 19.75L20 18.25C20.1381 18.25 20.25 18.1381 20.25 18L21.75 18ZM21.75 6L21.75 18L20.25 18L20.25 6L21.75 6ZM20 4.25C20.9665 4.25 21.75 5.0335 21.75 6L20.25 6C20.25 5.86193 20.1381 5.75 20 5.75L20 4.25ZM4 4.25L20 4.25L20 5.75L4 5.75L4 4.25Z" fill="black"/>
<path d="M12.9483 9H14.5L11.0517 15H9.5L12.9483 9Z" fill="black"/>
<circle cx="9.5" cy="10.5" r="1" stroke="black"/>
<circle cx="14.5" cy="13.5" r="1" stroke="black"/>
</svg>
