<svg width="48" height="48" viewBox="0 0 48 48" fill="none" xmlns="http://www.w3.org/2000/svg">
<path d="M24 48C37.2548 48 48 37.2548 48 24C48 10.7452 37.2548 0 24 0C10.7452 0 0 10.7452 0 24C0 37.2548 10.7452 48 24 48Z" fill="black" fill-opacity="0.25"/>
<path d="M47.3 24C47.3 36.8682 36.8682 47.3 24 47.3C11.1318 47.3 0.7 36.8682 0.7 24C0.7 11.1318 11.1318 0.7 24 0.7C36.8682 0.7 47.3 11.1318 47.3 24Z" stroke="white" stroke-opacity="0.5" stroke-width="1.4"/>
<path d="M31 24L19.8 31L19.8 17L31 24Z" fill="white"/>
</svg>
