<svg width="36" height="36" viewBox="0 0 36 36" fill="none" xmlns="http://www.w3.org/2000/svg">
<path d="M30 16.7265V30.4008C30 31.5054 29.1046 32.4008 28 32.4008H27.3333V32.4008C26.9164 32.4008 26.5267 32.194 26.293 31.8487L26.0793 31.5331C25.3608 30.4716 23.837 30.3654 22.9782 31.317L22.4467 31.9059C22.1623 32.221 21.7578 32.4008 21.3333 32.4008V32.4008V32.4008C20.9089 32.4008 20.5044 32.221 20.22 31.9059L19.4847 31.0912C18.6905 30.2112 17.3095 30.2112 16.5153 31.0912L15.78 31.9059C15.4957 32.221 15.0911 32.4008 14.6667 32.4008V32.4008C14.2423 32.4008 13.8377 32.221 13.5534 31.9059L13.0218 31.317C12.163 30.3654 10.6393 30.4716 9.92073 31.5331L9.70706 31.8487C9.47336 32.194 9.08361 32.4008 8.6667 32.4008V32.4008H8.00003C6.89546 32.4008 6.00003 31.5054 6.00003 30.4008L6 5.60034C6 4.49577 6.89715 3.60034 8.00172 3.60034C10.6396 3.60034 11.4855 3.60034 15.1084 3.60034" stroke="black" stroke-width="1.4"/>
<path d="M21.1199 3.00049L23.7623 12.6006L26.4048 3.00049L29.0375 12.6006L31.6799 3.00049" stroke="#00AAD2" stroke-width="1.4" stroke-linejoin="bevel"/>
<path d="M19.2 7.80029H22.08" stroke="#00AAD2" stroke-width="1.2" stroke-linejoin="bevel"/>
<path d="M30.72 7.80029H33.6" stroke="#00AAD2" stroke-width="1.2" stroke-linejoin="bevel"/>
<path d="M9 12.5002H14" stroke="black" stroke-width="1.4"/>
<path d="M9 16.5002H19.5" stroke="black" stroke-width="1.4"/>
<path d="M9 20.5002H17" stroke="black" stroke-width="1.4"/>
</svg>
