<svg width="36" height="36" viewBox="0 0 36 36" fill="none" xmlns="http://www.w3.org/2000/svg">
<path d="M32.9998 17.9717C33.0064 21.4913 31.7752 24.9011 29.5216 27.6046C27.2679 30.308 24.1353 32.133 20.672 32.76C17.2087 33.387 13.6352 32.7762 10.5767 31.0345C7.51832 29.2927 5.16976 26.5309 3.94202 23.2324C2.71427 19.9338 2.68554 16.3086 3.86084 12.9911C5.03614 9.67348 7.34063 6.8749 10.3711 5.08489C13.4015 3.29487 16.9649 2.62743 20.4377 3.19946C23.9105 3.77148 27.0716 5.54653 29.3678 8.21393" stroke="white" stroke-width="1.4" stroke-miterlimit="10"/>
<path d="M29.6284 3.20312L29.4599 8.48738L24.1756 8.30683" stroke="white" stroke-width="1.4" stroke-miterlimit="10"/>
<path d="M21.8391 23H20.232L17.9998 15.8163L15.7677 23H14.1605L11.1248 13H12.732L14.9641 20.0627L17.1962 13H18.8034L21.0355 20.0627L23.2677 13H24.8748L21.8391 23Z" fill="#00AAD2"/>
<path d="M13.6248 16.75H9.87482V18H13.6248V16.75Z" fill="#00AAD2"/>
<path d="M26.1248 16.75H22.3748V18H26.1248V16.75Z" fill="#00AAD2"/>
</svg>
