<svg width="36" height="36" viewBox="0 0 36 36" fill="none" xmlns="http://www.w3.org/2000/svg">
<path d="M30 16.7262V30.4006C30 31.5051 29.1046 32.4006 28 32.4006H27.3333V32.4006C26.9164 32.4006 26.5267 32.1937 26.293 31.8485L26.0793 31.5328C25.3608 30.4713 23.837 30.3651 22.9782 31.3167L22.4467 31.9057C22.1623 32.2207 21.7578 32.4006 21.3333 32.4006V32.4006V32.4006C20.9089 32.4006 20.5044 32.2207 20.22 31.9057L19.4847 31.091C18.6905 30.211 17.3095 30.211 16.5153 31.091L15.78 31.9057C15.4957 32.2207 15.0911 32.4006 14.6667 32.4006V32.4006C14.2423 32.4006 13.8377 32.2207 13.5534 31.9057L13.0218 31.3167C12.163 30.3651 10.6393 30.4713 9.92073 31.5328L9.70706 31.8485C9.47336 32.1937 9.08361 32.4006 8.6667 32.4006V32.4006H8.00003C6.89546 32.4006 6.00003 31.5051 6.00003 30.4006L6 5.6001C6 4.49553 6.89715 3.6001 8.00172 3.6001C10.6396 3.6001 11.4855 3.6001 15.1084 3.6001" stroke="white" stroke-width="1.4"/>
<path d="M9 12.5H14" stroke="white" stroke-width="1.4"/>
<path d="M9 16.5H19.5" stroke="white" stroke-width="1.4"/>
<path d="M9 20.5H17" stroke="white" stroke-width="1.4"/>
<path d="M21.1199 3.00024L23.7623 12.6004L26.4048 3.00024L29.0375 12.6004L31.6799 3.00024" stroke="#00AAD2" stroke-width="1.4" stroke-linejoin="bevel"/>
<path d="M19.2 7.80005H22.08" stroke="#00AAD2" stroke-width="1.2" stroke-linejoin="bevel"/>
<path d="M30.72 7.80005H33.6" stroke="#00AAD2" stroke-width="1.2" stroke-linejoin="bevel"/>
</svg>
