<svg width="36" height="36" viewBox="0 0 36 36" fill="none" xmlns="http://www.w3.org/2000/svg">
<path d="M9.68122 22.9257C10.6798 22.9257 11.4893 22.1162 11.4893 21.1176C11.4893 20.1191 10.6798 19.3096 9.68122 19.3096C8.68266 19.3096 7.87317 20.1191 7.87317 21.1176C7.87317 22.1162 8.68266 22.9257 9.68122 22.9257Z" stroke="black" stroke-width="1.4" stroke-miterlimit="10"/>
<path d="M25.377 22.9257C26.3756 22.9257 27.1851 22.1162 27.1851 21.1176C27.1851 20.1191 26.3756 19.3096 25.377 19.3096C24.3785 19.3096 23.569 20.1191 23.569 21.1176C23.569 22.1162 24.3785 22.9257 25.377 22.9257Z" stroke="black" stroke-width="1.4" stroke-miterlimit="10"/>
<path d="M19.6743 7.36256C16.1583 7.36256 10.671 7.36256 10.671 7.36256C10.3271 7.36105 9.99227 7.4734 9.7188 7.68202C9.44533 7.89065 9.24855 8.18383 9.15912 8.51596L7.24976 15.3585H22.5242" stroke="black" stroke-width="1.4" stroke-miterlimit="10"/>
<path d="M19.7112 15.3586H6.72754C6.00412 15.3586 5.31032 15.646 4.79879 16.1576C4.28725 16.6691 3.99988 17.3629 3.99988 18.0863V28.0306C3.99988 28.3406 4.12304 28.6379 4.34227 28.8571C4.5615 29.0763 4.85884 29.1996 5.16888 29.1996H8.06799C8.37803 29.1996 8.67537 29.0763 8.8946 28.8571C9.11383 28.6379 9.23699 28.3406 9.23699 28.0306V26.4173H25.79V28.015C25.79 28.325 25.9132 28.6223 26.1324 28.8415C26.3516 29.0607 26.6489 29.184 26.959 29.184H29.9049C30.2149 29.184 30.5122 29.0607 30.7315 28.8415C30.9507 28.6223 31.0739 28.325 31.0739 28.015V17.6532" stroke="black" stroke-width="1.4" stroke-miterlimit="10"/>
<path d="M24.2001 9.28884L27.2778 12.4L32.2001 6.80005" stroke="#00AAD2" stroke-width="1.5"/>
</svg>
