<svg width="119" height="144" viewBox="0 0 119 144" fill="none" xmlns="http://www.w3.org/2000/svg">
<path d="M39.9219 75.3584C37.419 76.6806 32.5662 78.236 29.8608 79.1972C28.94 79.5236 28.0313 79.85 27.148 80.187C26.1267 80.5766 21.0084 82.2763 15.5662 84.0679C6.90428 86.9259 1.24913 94.2966 1.50857 102.447C1.5 113.583 1.5 141.044 1.50898 143.775" stroke="white" stroke-width="2"/>
<path d="M76.6289 73.7754C79.4827 75.4601 86.3086 78.1797 89.4968 79.3169C90.2961 79.6012 91.0864 79.8795 91.8557 80.1803C92.877 80.5699 97.9953 82.2697 103.437 84.0612C112.099 86.9132 117.755 94.2975 117.489 102.447C117.498 116.315 117.498 143.775 117.489 141.775" stroke="#00142F" stroke-width="2"/>
<path d="M31.5 42.5213C29.0792 40.7995 27.5 37.9714 27.5 34.7744C27.5 32.4989 28.3 30.4103 29.6342 28.7744" stroke="white" stroke-width="2" stroke-linecap="round"/>
<path d="M86.5 42.5213C88.9208 40.7995 90.5 37.9714 90.5 34.7744C90.5 32.4989 89.7 30.4103 88.3658 28.7744" stroke="white" stroke-width="2" stroke-linecap="round"/>
<path d="M57.5 6.78125C56.8171 10.4019 51.661 18.4709 36.5 21.7812" stroke="#43D1FF" stroke-width="2" stroke-linecap="round"/>
<path d="M75.5 5.78125C75.7602 9.8847 77.7244 19.0295 83.5 22.7813" stroke="#00142F" stroke-width="2" stroke-linecap="round"/>
<path d="M87.389 20.0471C88.9415 14.1706 88.3997 6.25501 85.3553 1.74614" stroke="#00142F" stroke-width="2" stroke-linecap="round"/>
<rect x="56.5625" y="101.701" width="7.99791" height="2" rx="1" transform="rotate(-120 56.5625 101.701)" fill="#00142F"/>
<rect width="7.99791" height="2" rx="1" transform="matrix(0.5 -0.866025 -0.866025 -0.5 62.2344 101.702)" fill="#00142F"/>
<path d="M43.5 55.7734L43.5 75.7734" stroke="#00142F" stroke-width="2" stroke-linecap="round"/>
<rect x="47.5" y="130.998" width="23.9277" height="2" rx="1" transform="rotate(-68.2442 47.5 130.998)" fill="#00142F"/>
<path d="M35.5 24.7812L39.1721 47.6464C40.1921 51.9722 50.1882 61.0359 50.1882 61.0359C50.1882 61.0359 51.448 62.1122 53.5 62.7812" stroke="#43D1FF" stroke-width="2" stroke-linecap="round"/>
<circle cx="59" cy="63.2812" r="1.5" fill="#00142F"/>
<circle cx="58" cy="105.275" r="1.5" fill="#00142F"/>
<path d="M82.5 24.7812L78.7615 47.1091C77.7231 51.3333 67.5462 60.184 67.5462 60.184C67.5462 60.184 66.396 61.1265 64.5 61.7812" stroke="#00142F" stroke-width="2" stroke-linecap="round"/>
<path d="M72.5 2.78125C68.0746 4.65921 62.4717 5.78125 56.3776 5.78125C51.2725 5.78125 46.5122 4.99388 42.5 3.63435" stroke="#00142F" stroke-width="2" stroke-linecap="round"/>
<path d="M46.1775 8.93102C44.5272 9.91002 42.4334 10.5025 40.1517 10.5181C38.2404 10.5312 36.4553 10.1377 34.9483 9.4474" stroke="#E63312" stroke-width="2" stroke-linecap="round"/>
<path d="M40.5132 72.5618C41.2887 72.0707 42.299 72.1705 42.9634 72.804L56.8211 86.0169C57.6365 86.7945 57.6491 88.0919 56.8487 88.885L49.0546 96.609C48.0978 97.5571 46.4963 97.3075 45.8734 96.1132L36.1601 77.4876C35.6794 76.5658 35.9851 75.4294 36.8634 74.8731L40.5132 72.5618Z" fill="white"/>
<path d="M77.104 71.5618C76.3285 71.0707 75.3182 71.1705 74.6538 71.804L60.7961 85.0169C59.9806 85.7945 59.9681 87.0919 60.7685 87.885L68.5626 95.609C69.5194 96.5571 71.1209 96.3075 71.7438 95.1132L81.457 76.4876C81.9378 75.5658 81.6321 74.4294 80.7537 73.8731L77.104 71.5618Z" fill="white"/>
</svg>
