<svg width="21" height="35" viewBox="0 0 21 35" fill="none" xmlns="http://www.w3.org/2000/svg">
<path d="M19.9753 15.2086C19.7489 15.0133 19.496 14.8911 19.2626 14.8456L18.6538 14.2088V7.68145C18.6538 5.18487 17.0319 0.884766 10.502 0.884766C3.97201 0.884766 2.3501 5.18487 2.3501 7.68145V14.2088L1.74133 14.8456C1.50787 14.8902 1.25502 15.0133 1.02861 15.2086C0.536132 15.6341 0.35729 16.2406 0.628637 16.5626C0.844481 16.8195 2.01797 15.8946 2.3501 15.3451V28.2178C2.3501 31.6857 4.80456 34.1823 10.502 34.1823C16.1994 34.1823 18.6538 31.6857 18.6538 28.2178V15.3442C18.9859 15.8937 20.1594 16.8177 20.3753 16.5617C20.6466 16.2397 20.4678 15.6341 19.9753 15.2086ZM15.3765 2.92912C15.5342 2.75073 16.0795 3.03437 16.5958 3.5633C17.1121 4.09134 17.4028 4.66486 17.2451 4.84325C17.0874 5.02164 16.5421 4.73711 16.0258 4.20907C15.5095 3.68104 15.2188 3.10751 15.3765 2.92912ZM17.2072 11.9967C16.8416 14 16.187 17.2985 16.187 17.2985C16.187 17.2985 14.7942 16.4699 10.5011 16.4699C6.20798 16.4699 4.81513 17.2985 4.81513 17.2985C4.81513 17.2985 4.16055 14.0009 3.79493 11.9967C4.25129 10.4554 8.08714 9.56169 10.5002 9.56169C12.9132 9.56169 16.7491 10.4554 17.2054 11.9967H17.2072ZM4.40811 3.5633C4.92437 3.03437 5.46971 2.75073 5.62741 2.92912C5.7851 3.10751 5.49437 3.68015 4.97811 4.20907C4.46185 4.73711 3.91651 5.02164 3.75881 4.84325C3.60112 4.66486 3.89184 4.09223 4.40811 3.5633ZM3.31567 14.4781L4.18345 18.1771C4.18345 18.1771 4.63981 20.2196 4.41163 22.8081C4.18345 25.3974 3.31567 22.8081 3.31567 22.8081V14.4781ZM5.47676 32.1156C5.31465 32.2887 4.7517 32.013 4.21957 31.5011C3.68745 30.9891 3.38791 30.4334 3.55002 30.2612C3.71212 30.0882 4.27508 30.3638 4.8072 30.8758C5.33932 31.3878 5.63886 31.9435 5.47676 32.1156ZM4.46361 28.1268C4.48652 27.6434 4.76051 26.6096 5.10321 25.6855C5.44592 24.7624 6.13045 24.6964 7.06695 24.6964H13.9378C14.8743 24.6964 15.5589 24.7624 15.9016 25.6855C16.2443 26.6096 16.5183 27.6425 16.5412 28.1268C16.0161 29.2703 14.1916 31.2049 10.5028 31.2049C6.81411 31.2049 4.98868 29.2694 4.46361 28.1268ZM16.7843 31.5011C16.2522 32.013 15.6893 32.2887 15.5272 32.1156C15.365 31.9435 15.6646 31.3878 16.1967 30.8758C16.7288 30.3638 17.2918 30.0882 17.4539 30.2612C17.616 30.4343 17.3165 30.9891 16.7843 31.5011ZM17.6882 22.809C17.6882 22.809 16.8205 25.3983 16.5923 22.809C16.3641 20.2196 16.8205 18.178 16.8205 18.178L17.6882 14.479V22.809Z" fill="#AACAE6"/>
</svg>
