<svg width="60" height="60" viewBox="0 0 60 60" fill="none" xmlns="http://www.w3.org/2000/svg">
<path d="M29 52V23C29 21.8954 28.1046 21 27 21H9C7.89543 21 7 21.8954 7 23V52" stroke="black" stroke-width="1.4"/>
<path d="M22 52V46C22 44.8954 21.1046 44 20 44H16C14.8954 44 14 44.8954 14 46V52" stroke="black" stroke-width="1.4"/>
<path fill-rule="evenodd" clip-rule="evenodd" d="M31.5211 8.86745C30.6622 8.49168 29.7001 9.12096 29.7001 10.0585V18.0003H28.3V10.0585C28.3 8.11134 30.2984 6.80439 32.0823 7.58483L52.0823 16.3348C53.065 16.7648 53.7001 17.7357 53.7001 18.8085V34.7604L52.3001 33.6404V18.8085C52.3001 18.292 51.9943 17.8245 51.5211 17.6174L31.5211 8.86745Z" fill="black"/>
<path d="M36 29H46" stroke="black" stroke-width="1.4"/>
<path d="M36 21H46" stroke="black" stroke-width="1.4"/>
<path d="M13 36H23" stroke="black" stroke-width="1.4"/>
<path d="M13 29H23" stroke="black" stroke-width="1.4"/>
<path opacity="0.3" d="M47 58C53.0751 58 58 53.0751 58 47C58 40.9249 53.0751 36 47 36C40.9249 36 36 40.9249 36 47C36 53.0751 40.9249 58 47 58Z" fill="#00AAD2"/>
<path fill-rule="evenodd" clip-rule="evenodd" d="M40.0806 47.0005L38.6602 47.8206L39.1621 48.6856L40.5532 47.8824L40.5577 49.5027L41.5577 49.5L41.5531 47.8507L42.9961 48.6838L43.4981 47.8189L42.0806 47.0005L43.4922 46.1856L42.9903 45.3206L41.5485 46.1531L41.544 44.5L40.544 44.5027L40.5484 46.1159L39.1679 45.3189L38.666 46.1838L40.0806 47.0005Z" fill="black"/>
<path fill-rule="evenodd" clip-rule="evenodd" d="M46.0006 47.0005L44.5801 47.8206L45.082 48.6856L46.4731 47.8824L46.4776 49.5027L47.4776 49.5L47.4731 47.8507L48.9161 48.6838L49.418 47.8189L48.0006 47.0005L49.4121 46.1856L48.9102 45.3206L47.4684 46.1531L47.4639 44.5L46.4639 44.5027L46.4683 46.1159L45.0879 45.3189L44.5859 46.1838L46.0006 47.0005Z" fill="black"/>
<path fill-rule="evenodd" clip-rule="evenodd" d="M51.9224 47.0005L50.502 47.8206L51.0039 48.6856L52.395 47.8824L52.3995 49.5027L53.3994 49.5L53.3949 47.8507L54.8379 48.6838L55.3399 47.8189L53.9224 47.0005L55.334 46.1856L54.8321 45.3206L53.3903 46.1531L53.3858 44.5L52.3858 44.5027L52.3902 46.1159L51.0097 45.3189L50.5078 46.1838L51.9224 47.0005Z" fill="black"/>
</svg>
