<svg width="36" height="36" viewBox="0 0 36 36" fill="none" xmlns="http://www.w3.org/2000/svg">
<path d="M16.0158 28.9877L10.3814 32.65V29.6026V28.8692H9.64806H6.71919H5.73321V27.8818V12.1512V11.1638H6.71919H29.2906H30.2665V12.1512V27.8818V28.8692H29.2906H16.4155H16.1981L16.0158 28.9877Z" stroke="black" stroke-width="1.46667"/>
<path d="M17.9998 6.89795V10.5377" stroke="black" stroke-width="1.46667"/>
<path d="M19.8662 4.52851C19.8662 5.50102 19.0498 6.32394 17.9995 6.32394C16.9493 6.32394 16.1329 5.50102 16.1329 4.52851C16.1329 3.556 16.9493 2.73309 17.9995 2.73309C19.0498 2.73309 19.8662 3.556 19.8662 4.52851Z" stroke="black" stroke-width="1.46667"/>
<rect x="13.5554" y="16.4219" width="1.83333" height="3.66667" rx="0.916667" fill="black"/>
<rect x="20.2777" y="16.4221" width="1.83333" height="3.66667" rx="0.916667" fill="black"/>
<mask id="path-6-inside-1_3869_4170" fill="white">
<path d="M21.3465 21.6941V21.9633C21.3465 22.6516 20.9939 23.3117 20.3663 23.7984C19.7387 24.285 18.8875 24.5585 17.9999 24.5585C17.1123 24.5585 16.261 24.285 15.6334 23.7984C15.0058 23.3117 14.6532 22.6516 14.6532 21.9633V21.6941"/>
</mask>
<path d="M21.3465 21.9633H22.8132H21.3465ZM17.9999 24.5585V26.0251V24.5585ZM19.8799 21.6941V21.9633H22.8132V21.6941H19.8799ZM19.8799 21.9633C19.8799 22.1247 19.7993 22.3821 19.4676 22.6393L21.2651 24.9574C22.1886 24.2412 22.8132 23.1784 22.8132 21.9633H19.8799ZM19.4676 22.6393C19.1273 22.9032 18.6024 23.0918 17.9999 23.0918V26.0251C19.1725 26.0251 20.3501 25.6669 21.2651 24.9574L19.4676 22.6393ZM17.9999 23.0918C17.3973 23.0918 16.8725 22.9032 16.5322 22.6393L14.7347 24.9574C15.6496 25.6669 16.8272 26.0251 17.9999 26.0251V23.0918ZM16.5322 22.6393C16.2004 22.3821 16.1199 22.1247 16.1199 21.9633H13.1865C13.1865 23.1784 13.8111 24.2412 14.7347 24.9574L16.5322 22.6393ZM16.1199 21.9633V21.6941H13.1865V21.9633H16.1199Z" fill="black" mask="url(#path-6-inside-1_3869_4170)"/>
</svg>
