<svg width="16" height="16" viewBox="0 0 16 16" fill="none" xmlns="http://www.w3.org/2000/svg">
<path d="M13.6161 14.141L13.1913 13.7172L13.1856 13.7231L13.6161 14.141ZM13.5447 14.219L13.9887 14.6227L14.0001 14.6101L14.0107 14.597L13.5447 14.219ZM11.717 14.9992L11.732 14.3994L11.7245 14.3992H11.717V14.9992ZM11.5264 14.9992L11.467 15.5963L11.4966 15.5992H11.5264V14.9992ZM8.75258 14.1818L9.02656 13.648L9.02 13.6446L9.01337 13.6414L8.75258 14.1818ZM3.81857 10.332L4.27952 9.94769L4.27173 9.93872L3.81857 10.332ZM1.41119 6.32871L1.97118 6.11287L1.96609 6.10049L1.41119 6.32871ZM1.0056 4.00114L0.407257 3.95665L0.406613 3.96531L0.40622 3.97398L1.0056 4.00114ZM1.68709 2.54217L2.10559 2.97219L2.11068 2.96711L1.68709 2.54217ZM2.76458 1.46811L3.1882 1.89309L3.19394 1.88722L2.76458 1.46811ZM3.84468 1L3.85451 0.400081L3.84321 0.399895L3.83191 0.400136L3.84468 1ZM4.90041 1.45945L4.46773 1.87513L4.47987 1.88777L4.49273 1.89968L4.90041 1.45945ZM5.49225 2.04372L5.92675 1.62985L5.9205 1.62348L5.49225 2.04372ZM5.7873 2.34193L6.21072 1.91682L5.7873 2.34193ZM6.6446 3.19581L6.22118 3.62092L6.23836 3.63803L6.25685 3.65369L6.6446 3.19581ZM7.14862 4.28157H6.54862H7.14862ZM6.6446 5.36734L6.25685 4.90946L6.23836 4.92512L6.22118 4.94223L6.6446 5.36734ZM6.55756 5.45403L6.97499 5.8851L6.98097 5.87914L6.55756 5.45403ZM6.37478 5.63694L6.80277 6.05758L6.81016 6.04978L6.37478 5.63694ZM6.49576 7.67844L6.96573 7.30526L6.9584 7.29638L6.49576 7.67844ZM9.08592 10.0286L8.75993 10.5325L8.77189 10.5398L9.08592 10.0286ZM9.39663 10.1967L9.1403 10.7392L9.15464 10.746L9.16932 10.752L9.39663 10.1967ZM10.6308 9.32985L11.0542 9.75495L11.0618 9.74735L11.0692 9.73949L10.6308 9.32985ZM11.7109 8.847L11.7242 8.24715L11.7108 8.24685L11.6975 8.24715L11.7109 8.847ZM12.7745 9.33331L12.3291 9.73535L12.3395 9.7469L12.3505 9.75789L12.7745 9.33331ZM14.5108 11.0671L14.0869 11.4917L14.0993 11.5041L14.1124 11.5157L14.5108 11.0671ZM14.5186 13.2343L14.9098 13.6894L14.9202 13.6801L14.5186 13.2343ZM14.4551 13.3002L14.8798 13.724L14.9033 13.7004L14.924 13.6745L14.4551 13.3002ZM9.79188 10.1654L10.2153 10.5905L10.2153 10.5905L9.79188 10.1654ZM5.77978 6.22686L6.17017 6.68249L6.18025 6.67385L6.18995 6.66477L5.77978 6.22686ZM5.72851 6.5151L6.26195 6.2403L6.25782 6.23256L5.72851 6.5151ZM13.6161 14.141C13.1856 13.7231 13.1856 13.7231 13.1856 13.7231C13.1856 13.7231 13.1856 13.7231 13.1856 13.7231C13.1856 13.7231 13.1856 13.7231 13.1855 13.7231C13.1855 13.7232 13.1855 13.7232 13.1854 13.7232C13.1854 13.7233 13.1853 13.7234 13.1852 13.7235C13.185 13.7237 13.1847 13.724 13.1845 13.7243C13.1839 13.7249 13.1831 13.7257 13.1822 13.7266C13.1803 13.7285 13.1778 13.7312 13.1747 13.7344C13.1687 13.7407 13.1603 13.7495 13.1509 13.7595C13.1362 13.7752 13.1049 13.8088 13.0787 13.8411L14.0107 14.597C14.0068 14.6019 14.0111 14.5965 14.0266 14.58C14.0322 14.5739 14.0375 14.5684 14.0414 14.5644C14.0433 14.5624 14.0448 14.5609 14.0457 14.5599C14.0461 14.5594 14.0465 14.5591 14.0466 14.5589C14.0467 14.5589 14.0467 14.5588 14.0467 14.5588C14.0467 14.5588 14.0467 14.5589 14.0467 14.5589C14.0466 14.5589 14.0466 14.5589 14.0466 14.5589C14.0466 14.5589 14.0466 14.559 14.0466 14.559C14.0466 14.559 14.0466 14.559 14.0466 14.559C14.0466 14.559 14.0465 14.559 13.6161 14.141ZM13.1008 13.8154C12.9285 14.0049 12.7171 14.1553 12.4808 14.2561L12.9519 15.3598C13.3466 15.1913 13.7002 14.9399 13.9887 14.6227L13.1008 13.8154ZM12.4808 14.2561C12.2446 14.357 11.9891 14.4059 11.732 14.3994L11.7019 15.5991C12.131 15.6098 12.5573 15.5282 12.9519 15.3598L12.4808 14.2561ZM11.717 14.3992H11.7144V15.5992H11.717V14.3992ZM11.7144 14.3992C11.7143 14.3992 11.7141 14.3992 11.714 14.3992C11.7139 14.3992 11.7138 14.3992 11.7136 14.3992C11.7135 14.3992 11.7134 14.3992 11.7133 14.3992C11.7132 14.3992 11.713 14.3992 11.7129 14.3992C11.7128 14.3992 11.7127 14.3992 11.7125 14.3992C11.7124 14.3992 11.7123 14.3992 11.7122 14.3992C11.7121 14.3992 11.7119 14.3992 11.7118 14.3992C11.7117 14.3992 11.7116 14.3992 11.7114 14.3992C11.7113 14.3992 11.7112 14.3992 11.7111 14.3992C11.7109 14.3992 11.7108 14.3992 11.7107 14.3992C11.7106 14.3992 11.7105 14.3992 11.7103 14.3992C11.7102 14.3992 11.7101 14.3992 11.71 14.3992C11.7098 14.3992 11.7097 14.3992 11.7096 14.3992C11.7095 14.3992 11.7094 14.3992 11.7092 14.3992C11.7091 14.3992 11.709 14.3992 11.7089 14.3992C11.7087 14.3992 11.7086 14.3992 11.7085 14.3992C11.7084 14.3992 11.7083 14.3992 11.7081 14.3992C11.708 14.3992 11.7079 14.3992 11.7078 14.3992C11.7076 14.3992 11.7075 14.3992 11.7074 14.3992C11.7073 14.3992 11.7072 14.3992 11.707 14.3992C11.7069 14.3992 11.7068 14.3992 11.7067 14.3992C11.7065 14.3992 11.7064 14.3992 11.7063 14.3992C11.7062 14.3992 11.706 14.3992 11.7059 14.3992C11.7058 14.3992 11.7057 14.3992 11.7056 14.3992C11.7054 14.3992 11.7053 14.3992 11.7052 14.3992C11.7051 14.3992 11.7049 14.3992 11.7048 14.3992C11.7047 14.3992 11.7046 14.3992 11.7045 14.3992C11.7043 14.3992 11.7042 14.3992 11.7041 14.3992C11.704 14.3992 11.7038 14.3992 11.7037 14.3992C11.7036 14.3992 11.7035 14.3992 11.7034 14.3992C11.7032 14.3992 11.7031 14.3992 11.703 14.3992C11.7029 14.3992 11.7027 14.3992 11.7026 14.3992C11.7025 14.3992 11.7024 14.3992 11.7022 14.3992C11.7021 14.3992 11.702 14.3992 11.7019 14.3992C11.7018 14.3992 11.7016 14.3992 11.7015 14.3992C11.7014 14.3992 11.7013 14.3992 11.7011 14.3992C11.701 14.3992 11.7009 14.3992 11.7008 14.3992C11.7007 14.3992 11.7005 14.3992 11.7004 14.3992C11.7003 14.3992 11.7002 14.3992 11.7 14.3992C11.6999 14.3992 11.6998 14.3992 11.6997 14.3992C11.6996 14.3992 11.6994 14.3992 11.6993 14.3992C11.6992 14.3992 11.6991 14.3992 11.6989 14.3992C11.6988 14.3992 11.6987 14.3992 11.6986 14.3992C11.6984 14.3992 11.6983 14.3992 11.6982 14.3992C11.6981 14.3992 11.698 14.3992 11.6978 14.3992C11.6977 14.3992 11.6976 14.3992 11.6975 14.3992C11.6973 14.3992 11.6972 14.3992 11.6971 14.3992C11.697 14.3992 11.6969 14.3992 11.6967 14.3992C11.6966 14.3992 11.6965 14.3992 11.6964 14.3992C11.6962 14.3992 11.6961 14.3992 11.696 14.3992C11.6959 14.3992 11.6957 14.3992 11.6956 14.3992C11.6955 14.3992 11.6954 14.3992 11.6953 14.3992C11.6951 14.3992 11.695 14.3992 11.6949 14.3992C11.6948 14.3992 11.6946 14.3992 11.6945 14.3992C11.6944 14.3992 11.6943 14.3992 11.6942 14.3992C11.694 14.3992 11.6939 14.3992 11.6938 14.3992C11.6937 14.3992 11.6935 14.3992 11.6934 14.3992C11.6933 14.3992 11.6932 14.3992 11.6931 14.3992C11.6929 14.3992 11.6928 14.3992 11.6927 14.3992C11.6926 14.3992 11.6924 14.3992 11.6923 14.3992C11.6922 14.3992 11.6921 14.3992 11.6919 14.3992C11.6918 14.3992 11.6917 14.3992 11.6916 14.3992C11.6915 14.3992 11.6913 14.3992 11.6912 14.3992C11.6911 14.3992 11.691 14.3992 11.6908 14.3992C11.6907 14.3992 11.6906 14.3992 11.6905 14.3992C11.6903 14.3992 11.6902 14.3992 11.6901 14.3992C11.69 14.3992 11.6899 14.3992 11.6897 14.3992C11.6896 14.3992 11.6895 14.3992 11.6894 14.3992C11.6892 14.3992 11.6891 14.3992 11.689 14.3992C11.6889 14.3992 11.6888 14.3992 11.6886 14.3992C11.6885 14.3992 11.6884 14.3992 11.6883 14.3992C11.6881 14.3992 11.688 14.3992 11.6879 14.3992C11.6878 14.3992 11.6876 14.3992 11.6875 14.3992C11.6874 14.3992 11.6873 14.3992 11.6872 14.3992C11.687 14.3992 11.6869 14.3992 11.6868 14.3992C11.6867 14.3992 11.6865 14.3992 11.6864 14.3992C11.6863 14.3992 11.6862 14.3992 11.6861 14.3992C11.6859 14.3992 11.6858 14.3992 11.6857 14.3992C11.6856 14.3992 11.6854 14.3992 11.6853 14.3992C11.6852 14.3992 11.6851 14.3992 11.6849 14.3992C11.6848 14.3992 11.6847 14.3992 11.6846 14.3992C11.6845 14.3992 11.6843 14.3992 11.6842 14.3992C11.6841 14.3992 11.684 14.3992 11.6838 14.3992C11.6837 14.3992 11.6836 14.3992 11.6835 14.3992C11.6834 14.3992 11.6832 14.3992 11.6831 14.3992C11.683 14.3992 11.6829 14.3992 11.6827 14.3992C11.6826 14.3992 11.6825 14.3992 11.6824 14.3992C11.6822 14.3992 11.6821 14.3992 11.682 14.3992C11.6819 14.3992 11.6818 14.3992 11.6816 14.3992C11.6815 14.3992 11.6814 14.3992 11.6813 14.3992C11.6811 14.3992 11.681 14.3992 11.6809 14.3992C11.6808 14.3992 11.6806 14.3992 11.6805 14.3992C11.6804 14.3992 11.6803 14.3992 11.6802 14.3992C11.68 14.3992 11.6799 14.3992 11.6798 14.3992C11.6797 14.3992 11.6795 14.3992 11.6794 14.3992C11.6793 14.3992 11.6792 14.3992 11.6791 14.3992C11.6789 14.3992 11.6788 14.3992 11.6787 14.3992C11.6786 14.3992 11.6784 14.3992 11.6783 14.3992C11.6782 14.3992 11.6781 14.3992 11.6779 14.3992C11.6778 14.3992 11.6777 14.3992 11.6776 14.3992C11.6775 14.3992 11.6773 14.3992 11.6772 14.3992C11.6771 14.3992 11.677 14.3992 11.6768 14.3992C11.6767 14.3992 11.6766 14.3992 11.6765 14.3992C11.6763 14.3992 11.6762 14.3992 11.6761 14.3992C11.676 14.3992 11.6759 14.3992 11.6757 14.3992C11.6756 14.3992 11.6755 14.3992 11.6754 14.3992C11.6752 14.3992 11.6751 14.3992 11.675 14.3992C11.6749 14.3992 11.6748 14.3992 11.6746 14.3992C11.6745 14.3992 11.6744 14.3992 11.6743 14.3992C11.6741 14.3992 11.674 14.3992 11.6739 14.3992C11.6738 14.3992 11.6736 14.3992 11.6735 14.3992C11.6734 14.3992 11.6733 14.3992 11.6732 14.3992C11.673 14.3992 11.6729 14.3992 11.6728 14.3992C11.6727 14.3992 11.6725 14.3992 11.6724 14.3992C11.6723 14.3992 11.6722 14.3992 11.672 14.3992C11.6719 14.3992 11.6718 14.3992 11.6717 14.3992C11.6716 14.3992 11.6714 14.3992 11.6713 14.3992C11.6712 14.3992 11.6711 14.3992 11.6709 14.3992C11.6708 14.3992 11.6707 14.3992 11.6706 14.3992C11.6705 14.3992 11.6703 14.3992 11.6702 14.3992C11.6701 14.3992 11.67 14.3992 11.6698 14.3992C11.6697 14.3992 11.6696 14.3992 11.6695 14.3992C11.6693 14.3992 11.6692 14.3992 11.6691 14.3992C11.669 14.3992 11.6689 14.3992 11.6687 14.3992C11.6686 14.3992 11.6685 14.3992 11.6684 14.3992C11.6682 14.3992 11.6681 14.3992 11.668 14.3992C11.6679 14.3992 11.6677 14.3992 11.6676 14.3992C11.6675 14.3992 11.6674 14.3992 11.6673 14.3992C11.6671 14.3992 11.667 14.3992 11.6669 14.3992C11.6668 14.3992 11.6666 14.3992 11.6665 14.3992C11.6664 14.3992 11.6663 14.3992 11.6661 14.3992C11.666 14.3992 11.6659 14.3992 11.6658 14.3992C11.6657 14.3992 11.6655 14.3992 11.6654 14.3992C11.6653 14.3992 11.6652 14.3992 11.665 14.3992C11.6649 14.3992 11.6648 14.3992 11.6647 14.3992C11.6645 14.3992 11.6644 14.3992 11.6643 14.3992C11.6642 14.3992 11.6641 14.3992 11.6639 14.3992C11.6638 14.3992 11.6637 14.3992 11.6636 14.3992C11.6634 14.3992 11.6633 14.3992 11.6632 14.3992C11.6631 14.3992 11.663 14.3992 11.6628 14.3992C11.6627 14.3992 11.6626 14.3992 11.6625 14.3992C11.6623 14.3992 11.6622 14.3992 11.6621 14.3992C11.662 14.3992 11.6618 14.3992 11.6617 14.3992C11.6616 14.3992 11.6615 14.3992 11.6614 14.3992C11.6612 14.3992 11.6611 14.3992 11.661 14.3992C11.6609 14.3992 11.6607 14.3992 11.6606 14.3992C11.6605 14.3992 11.6604 14.3992 11.6602 14.3992C11.6601 14.3992 11.66 14.3992 11.6599 14.3992C11.6598 14.3992 11.6596 14.3992 11.6595 14.3992C11.6594 14.3992 11.6593 14.3992 11.6591 14.3992C11.659 14.3992 11.6589 14.3992 11.6588 14.3992C11.6586 14.3992 11.6585 14.3992 11.6584 14.3992C11.6583 14.3992 11.6582 14.3992 11.658 14.3992C11.6579 14.3992 11.6578 14.3992 11.6577 14.3992C11.6575 14.3992 11.6574 14.3992 11.6573 14.3992C11.6572 14.3992 11.6571 14.3992 11.6569 14.3992C11.6568 14.3992 11.6567 14.3992 11.6566 14.3992C11.6564 14.3992 11.6563 14.3992 11.6562 14.3992C11.6561 14.3992 11.6559 14.3992 11.6558 14.3992C11.6557 14.3992 11.6556 14.3992 11.6555 14.3992C11.6553 14.3992 11.6552 14.3992 11.6551 14.3992C11.655 14.3992 11.6548 14.3992 11.6547 14.3992C11.6546 14.3992 11.6545 14.3992 11.6543 14.3992C11.6542 14.3992 11.6541 14.3992 11.654 14.3992C11.6539 14.3992 11.6537 14.3992 11.6536 14.3992C11.6535 14.3992 11.6534 14.3992 11.6532 14.3992C11.6531 14.3992 11.653 14.3992 11.6529 14.3992C11.6527 14.3992 11.6526 14.3992 11.6525 14.3992C11.6524 14.3992 11.6523 14.3992 11.6521 14.3992C11.652 14.3992 11.6519 14.3992 11.6518 14.3992C11.6516 14.3992 11.6515 14.3992 11.6514 14.3992C11.6513 14.3992 11.6511 14.3992 11.651 14.3992C11.6509 14.3992 11.6508 14.3992 11.6507 14.3992C11.6505 14.3992 11.6504 14.3992 11.6503 14.3992C11.6502 14.3992 11.65 14.3992 11.6499 14.3992C11.6498 14.3992 11.6497 14.3992 11.6495 14.3992C11.6494 14.3992 11.6493 14.3992 11.6492 14.3992C11.6491 14.3992 11.6489 14.3992 11.6488 14.3992C11.6487 14.3992 11.6486 14.3992 11.6484 14.3992C11.6483 14.3992 11.6482 14.3992 11.6481 14.3992C11.648 14.3992 11.6478 14.3992 11.6477 14.3992C11.6476 14.3992 11.6475 14.3992 11.6473 14.3992C11.6472 14.3992 11.6471 14.3992 11.647 14.3992C11.6468 14.3992 11.6467 14.3992 11.6466 14.3992C11.6465 14.3992 11.6464 14.3992 11.6462 14.3992C11.6461 14.3992 11.646 14.3992 11.6459 14.3992C11.6457 14.3992 11.6456 14.3992 11.6455 14.3992C11.6454 14.3992 11.6452 14.3992 11.6451 14.3992C11.645 14.3992 11.6449 14.3992 11.6448 14.3992C11.6446 14.3992 11.6445 14.3992 11.6444 14.3992C11.6443 14.3992 11.6441 14.3992 11.644 14.3992C11.6439 14.3992 11.6438 14.3992 11.6436 14.3992C11.6435 14.3992 11.6434 14.3992 11.6433 14.3992C11.6432 14.3992 11.643 14.3992 11.6429 14.3992C11.6428 14.3992 11.6427 14.3992 11.6425 14.3992C11.6424 14.3992 11.6423 14.3992 11.6422 14.3992C11.642 14.3992 11.6419 14.3992 11.6418 14.3992C11.6417 14.3992 11.6416 14.3992 11.6414 14.3992C11.6413 14.3992 11.6412 14.3992 11.6411 14.3992C11.6409 14.3992 11.6408 14.3992 11.6407 14.3992C11.6406 14.3992 11.6405 14.3992 11.6403 14.3992C11.6402 14.3992 11.6401 14.3992 11.64 14.3992C11.6398 14.3992 11.6397 14.3992 11.6396 14.3992C11.6395 14.3992 11.6393 14.3992 11.6392 14.3992C11.6391 14.3992 11.639 14.3992 11.6389 14.3992C11.6387 14.3992 11.6386 14.3992 11.6385 14.3992C11.6384 14.3992 11.6382 14.3992 11.6381 14.3992C11.638 14.3992 11.6379 14.3992 11.6377 14.3992C11.6376 14.3992 11.6375 14.3992 11.6374 14.3992C11.6373 14.3992 11.6371 14.3992 11.637 14.3992C11.6369 14.3992 11.6368 14.3992 11.6366 14.3992C11.6365 14.3992 11.6364 14.3992 11.6363 14.3992C11.6361 14.3992 11.636 14.3992 11.6359 14.3992C11.6358 14.3992 11.6357 14.3992 11.6355 14.3992C11.6354 14.3992 11.6353 14.3992 11.6352 14.3992C11.635 14.3992 11.6349 14.3992 11.6348 14.3992C11.6347 14.3992 11.6346 14.3992 11.6344 14.3992C11.6343 14.3992 11.6342 14.3992 11.6341 14.3992C11.6339 14.3992 11.6338 14.3992 11.6337 14.3992C11.6336 14.3992 11.6334 14.3992 11.6333 14.3992C11.6332 14.3992 11.6331 14.3992 11.633 14.3992C11.6328 14.3992 11.6327 14.3992 11.6326 14.3992C11.6325 14.3992 11.6323 14.3992 11.6322 14.3992C11.6321 14.3992 11.632 14.3992 11.6318 14.3992C11.6317 14.3992 11.6316 14.3992 11.6315 14.3992C11.6314 14.3992 11.6312 14.3992 11.6311 14.3992C11.631 14.3992 11.6309 14.3992 11.6307 14.3992C11.6306 14.3992 11.6305 14.3992 11.6304 14.3992C11.6302 14.3992 11.6301 14.3992 11.63 14.3992C11.6299 14.3992 11.6298 14.3992 11.6296 14.3992C11.6295 14.3992 11.6294 14.3992 11.6293 14.3992C11.6291 14.3992 11.629 14.3992 11.6289 14.3992C11.6288 14.3992 11.6287 14.3992 11.6285 14.3992C11.6284 14.3992 11.6283 14.3992 11.6282 14.3992C11.628 14.3992 11.6279 14.3992 11.6278 14.3992C11.6277 14.3992 11.6275 14.3992 11.6274 14.3992C11.6273 14.3992 11.6272 14.3992 11.6271 14.3992C11.6269 14.3992 11.6268 14.3992 11.6267 14.3992C11.6266 14.3992 11.6264 14.3992 11.6263 14.3992C11.6262 14.3992 11.6261 14.3992 11.6259 14.3992C11.6258 14.3992 11.6257 14.3992 11.6256 14.3992C11.6255 14.3992 11.6253 14.3992 11.6252 14.3992C11.6251 14.3992 11.625 14.3992 11.6248 14.3992C11.6247 14.3992 11.6246 14.3992 11.6245 14.3992C11.6244 14.3992 11.6242 14.3992 11.6241 14.3992C11.624 14.3992 11.6239 14.3992 11.6237 14.3992C11.6236 14.3992 11.6235 14.3992 11.6234 14.3992C11.6232 14.3992 11.6231 14.3992 11.623 14.3992C11.6229 14.3992 11.6228 14.3992 11.6226 14.3992C11.6225 14.3992 11.6224 14.3992 11.6223 14.3992C11.6221 14.3992 11.622 14.3992 11.6219 14.3992C11.6218 14.3992 11.6216 14.3992 11.6215 14.3992C11.6214 14.3992 11.6213 14.3992 11.6212 14.3992C11.621 14.3992 11.6209 14.3992 11.6208 14.3992C11.6207 14.3992 11.6205 14.3992 11.6204 14.3992C11.6203 14.3992 11.6202 14.3992 11.6201 14.3992C11.6199 14.3992 11.6198 14.3992 11.6197 14.3992C11.6196 14.3992 11.6194 14.3992 11.6193 14.3992C11.6192 14.3992 11.6191 14.3992 11.6189 14.3992C11.6188 14.3992 11.6187 14.3992 11.6186 14.3992C11.6185 14.3992 11.6183 14.3992 11.6182 14.3992C11.6181 14.3992 11.618 14.3992 11.6178 14.3992C11.6177 14.3992 11.6176 14.3992 11.6175 14.3992C11.6173 14.3992 11.6172 14.3992 11.6171 14.3992C11.617 14.3992 11.6169 14.3992 11.6167 14.3992C11.6166 14.3992 11.6165 14.3992 11.6164 14.3992C11.6162 14.3992 11.6161 14.3992 11.616 14.3992C11.6159 14.3992 11.6158 14.3992 11.6156 14.3992C11.6155 14.3992 11.6154 14.3992 11.6153 14.3992C11.6151 14.3992 11.615 14.3992 11.6149 14.3992C11.6148 14.3992 11.6146 14.3992 11.6145 14.3992C11.6144 14.3992 11.6143 14.3992 11.6142 14.3992C11.614 14.3992 11.6139 14.3992 11.6138 14.3992C11.6137 14.3992 11.6135 14.3992 11.6134 14.3992C11.6133 14.3992 11.6132 14.3992 11.6131 14.3992C11.6129 14.3992 11.6128 14.3992 11.6127 14.3992C11.6126 14.3992 11.6124 14.3992 11.6123 14.3992C11.6122 14.3992 11.6121 14.3992 11.6119 14.3992C11.6118 14.3992 11.6117 14.3992 11.6116 14.3992C11.6115 14.3992 11.6113 14.3992 11.6112 14.3992C11.6111 14.3992 11.611 14.3992 11.6108 14.3992C11.6107 14.3992 11.6106 14.3992 11.6105 14.3992C11.6104 14.3992 11.6102 14.3992 11.6101 14.3992C11.61 14.3992 11.6099 14.3992 11.6097 14.3992C11.6096 14.3992 11.6095 14.3992 11.6094 14.3992C11.6092 14.3992 11.6091 14.3992 11.609 14.3992C11.6089 14.3992 11.6088 14.3992 11.6086 14.3992C11.6085 14.3992 11.6084 14.3992 11.6083 14.3992C11.6081 14.3992 11.608 14.3992 11.6079 14.3992C11.6078 14.3992 11.6077 14.3992 11.6075 14.3992C11.6074 14.3992 11.6073 14.3992 11.6072 14.3992C11.607 14.3992 11.6069 14.3992 11.6068 14.3992C11.6067 14.3992 11.6065 14.3992 11.6064 14.3992C11.6063 14.3992 11.6062 14.3992 11.6061 14.3992C11.6059 14.3992 11.6058 14.3992 11.6057 14.3992C11.6056 14.3992 11.6054 14.3992 11.6053 14.3992C11.6052 14.3992 11.6051 14.3992 11.605 14.3992C11.6048 14.3992 11.6047 14.3992 11.6046 14.3992C11.6045 14.3992 11.6043 14.3992 11.6042 14.3992C11.6041 14.3992 11.604 14.3992 11.6038 14.3992C11.6037 14.3992 11.6036 14.3992 11.6035 14.3992C11.6034 14.3992 11.6032 14.3992 11.6031 14.3992C11.603 14.3992 11.6029 14.3992 11.6027 14.3992C11.6026 14.3992 11.6025 14.3992 11.6024 14.3992C11.6023 14.3992 11.6021 14.3992 11.602 14.3992C11.6019 14.3992 11.6018 14.3992 11.6016 14.3992C11.6015 14.3992 11.6014 14.3992 11.6013 14.3992C11.6012 14.3992 11.601 14.3992 11.6009 14.3992C11.6008 14.3992 11.6007 14.3992 11.6005 14.3992C11.6004 14.3992 11.6003 14.3992 11.6002 14.3992C11.6 14.3992 11.5999 14.3992 11.5998 14.3992C11.5997 14.3992 11.5996 14.3992 11.5994 14.3992C11.5993 14.3992 11.5992 14.3992 11.5991 14.3992C11.5989 14.3992 11.5988 14.3992 11.5987 14.3992C11.5986 14.3992 11.5985 14.3992 11.5983 14.3992C11.5982 14.3992 11.5981 14.3992 11.598 14.3992C11.5978 14.3992 11.5977 14.3992 11.5976 14.3992C11.5975 14.3992 11.5974 14.3992 11.5972 14.3992C11.5971 14.3992 11.597 14.3992 11.5969 14.3992C11.5967 14.3992 11.5966 14.3992 11.5965 14.3992C11.5964 14.3992 11.5962 14.3992 11.5961 14.3992C11.596 14.3992 11.5959 14.3992 11.5958 14.3992C11.5956 14.3992 11.5955 14.3992 11.5954 14.3992C11.5953 14.3992 11.5951 14.3992 11.595 14.3992C11.5949 14.3992 11.5948 14.3992 11.5947 14.3992C11.5945 14.3992 11.5944 14.3992 11.5943 14.3992C11.5942 14.3992 11.594 14.3992 11.5939 14.3992C11.5938 14.3992 11.5937 14.3992 11.5936 14.3992C11.5934 14.3992 11.5933 14.3992 11.5932 14.3992C11.5931 14.3992 11.5929 14.3992 11.5928 14.3992C11.5927 14.3992 11.5926 14.3992 11.5925 14.3992C11.5923 14.3992 11.5922 14.3992 11.5921 14.3992C11.592 14.3992 11.5918 14.3992 11.5917 14.3992C11.5916 14.3992 11.5915 14.3992 11.5914 14.3992C11.5912 14.3992 11.5911 14.3992 11.591 14.3992C11.5909 14.3992 11.5907 14.3992 11.5906 14.3992C11.5905 14.3992 11.5904 14.3992 11.5902 14.3992C11.5901 14.3992 11.59 14.3992 11.5899 14.3992C11.5898 14.3992 11.5896 14.3992 11.5895 14.3992C11.5894 14.3992 11.5893 14.3992 11.5891 14.3992C11.589 14.3992 11.5889 14.3992 11.5888 14.3992C11.5887 14.3992 11.5885 14.3992 11.5884 14.3992C11.5883 14.3992 11.5882 14.3992 11.588 14.3992C11.5879 14.3992 11.5878 14.3992 11.5877 14.3992C11.5876 14.3992 11.5874 14.3992 11.5873 14.3992C11.5872 14.3992 11.5871 14.3992 11.5869 14.3992C11.5868 14.3992 11.5867 14.3992 11.5866 14.3992C11.5865 14.3992 11.5863 14.3992 11.5862 14.3992C11.5861 14.3992 11.586 14.3992 11.5858 14.3992C11.5857 14.3992 11.5856 14.3992 11.5855 14.3992C11.5854 14.3992 11.5852 14.3992 11.5851 14.3992C11.585 14.3992 11.5849 14.3992 11.5847 14.3992C11.5846 14.3992 11.5845 14.3992 11.5844 14.3992C11.5843 14.3992 11.5841 14.3992 11.584 14.3992C11.5839 14.3992 11.5838 14.3992 11.5836 14.3992C11.5835 14.3992 11.5834 14.3992 11.5833 14.3992C11.5832 14.3992 11.583 14.3992 11.5829 14.3992C11.5828 14.3992 11.5827 14.3992 11.5825 14.3992C11.5824 14.3992 11.5823 14.3992 11.5822 14.3992C11.5821 14.3992 11.5819 14.3992 11.5818 14.3992C11.5817 14.3992 11.5816 14.3992 11.5814 14.3992C11.5813 14.3992 11.5812 14.3992 11.5811 14.3992C11.581 14.3992 11.5808 14.3992 11.5807 14.3992C11.5806 14.3992 11.5805 14.3992 11.5803 14.3992C11.5802 14.3992 11.5801 14.3992 11.58 14.3992C11.5799 14.3992 11.5797 14.3992 11.5796 14.3992C11.5795 14.3992 11.5794 14.3992 11.5792 14.3992C11.5791 14.3992 11.579 14.3992 11.5789 14.3992C11.5788 14.3992 11.5786 14.3992 11.5785 14.3992C11.5784 14.3992 11.5783 14.3992 11.5781 14.3992C11.578 14.3992 11.5779 14.3992 11.5778 14.3992C11.5777 14.3992 11.5775 14.3992 11.5774 14.3992C11.5773 14.3992 11.5772 14.3992 11.577 14.3992C11.5769 14.3992 11.5768 14.3992 11.5767 14.3992C11.5766 14.3992 11.5764 14.3992 11.5763 14.3992C11.5762 14.3992 11.5761 14.3992 11.5759 14.3992C11.5758 14.3992 11.5757 14.3992 11.5756 14.3992C11.5755 14.3992 11.5753 14.3992 11.5752 14.3992C11.5751 14.3992 11.575 14.3992 11.5748 14.3992C11.5747 14.3992 11.5746 14.3992 11.5745 14.3992C11.5744 14.3992 11.5742 14.3992 11.5741 14.3992C11.574 14.3992 11.5739 14.3992 11.5737 14.3992C11.5736 14.3992 11.5735 14.3992 11.5734 14.3992C11.5733 14.3992 11.5731 14.3992 11.573 14.3992C11.5729 14.3992 11.5728 14.3992 11.5726 14.3992C11.5725 14.3992 11.5724 14.3992 11.5723 14.3992C11.5722 14.3992 11.572 14.3992 11.5719 14.3992C11.5718 14.3992 11.5717 14.3992 11.5715 14.3992C11.5714 14.3992 11.5713 14.3992 11.5712 14.3992C11.5711 14.3992 11.5709 14.3992 11.5708 14.3992C11.5707 14.3992 11.5706 14.3992 11.5704 14.3992C11.5703 14.3992 11.5702 14.3992 11.5701 14.3992C11.57 14.3992 11.5698 14.3992 11.5697 14.3992C11.5696 14.3992 11.5695 14.3992 11.5693 14.3992C11.5692 14.3992 11.5691 14.3992 11.569 14.3992C11.5689 14.3992 11.5687 14.3992 11.5686 14.3992C11.5685 14.3992 11.5684 14.3992 11.5683 14.3992C11.5681 14.3992 11.568 14.3992 11.5679 14.3992C11.5678 14.3992 11.5676 14.3992 11.5675 14.3992C11.5674 14.3992 11.5673 14.3992 11.5672 14.3992C11.567 14.3992 11.5669 14.3992 11.5668 14.3992C11.5667 14.3992 11.5665 14.3992 11.5664 14.3992C11.5663 14.3992 11.5662 14.3992 11.5661 14.3992C11.5659 14.3992 11.5658 14.3992 11.5657 14.3992C11.5656 14.3992 11.5654 14.3992 11.5653 14.3992C11.5652 14.3992 11.5651 14.3992 11.565 14.3992C11.5648 14.3992 11.5647 14.3992 11.5646 14.3992C11.5645 14.3992 11.5644 14.3992 11.5642 14.3992C11.5641 14.3992 11.564 14.3992 11.5639 14.3992C11.5637 14.3992 11.5636 14.3992 11.5635 14.3992C11.5634 14.3992 11.5633 14.3992 11.5631 14.3992C11.563 14.3992 11.5629 14.3992 11.5628 14.3992C11.5626 14.3992 11.5625 14.3992 11.5624 14.3992C11.5623 14.3992 11.5622 14.3992 11.562 14.3992C11.5619 14.3992 11.5618 14.3992 11.5617 14.3992C11.5615 14.3992 11.5614 14.3992 11.5613 14.3992C11.5612 14.3992 11.5611 14.3992 11.5609 14.3992C11.5608 14.3992 11.5607 14.3992 11.5606 14.3992C11.5605 14.3992 11.5603 14.3992 11.5602 14.3992C11.5601 14.3992 11.56 14.3992 11.5598 14.3992C11.5597 14.3992 11.5596 14.3992 11.5595 14.3992C11.5594 14.3992 11.5592 14.3992 11.5591 14.3992C11.559 14.3992 11.5589 14.3992 11.5587 14.3992C11.5586 14.3992 11.5585 14.3992 11.5584 14.3992C11.5583 14.3992 11.5581 14.3992 11.558 14.3992C11.5579 14.3992 11.5578 14.3992 11.5577 14.3992C11.5575 14.3992 11.5574 14.3992 11.5573 14.3992C11.5572 14.3992 11.557 14.3992 11.5569 14.3992C11.5568 14.3992 11.5567 14.3992 11.5566 14.3992C11.5564 14.3992 11.5563 14.3992 11.5562 14.3992C11.5561 14.3992 11.5559 14.3992 11.5558 14.3992C11.5557 14.3992 11.5556 14.3992 11.5555 14.3992C11.5553 14.3992 11.5552 14.3992 11.5551 14.3992C11.555 14.3992 11.5549 14.3992 11.5547 14.3992C11.5546 14.3992 11.5545 14.3992 11.5544 14.3992C11.5542 14.3992 11.5541 14.3992 11.554 14.3992C11.5539 14.3992 11.5538 14.3992 11.5536 14.3992C11.5535 14.3992 11.5534 14.3992 11.5533 14.3992C11.5532 14.3992 11.553 14.3992 11.5529 14.3992C11.5528 14.3992 11.5527 14.3992 11.5525 14.3992C11.5524 14.3992 11.5523 14.3992 11.5522 14.3992C11.5521 14.3992 11.5519 14.3992 11.5518 14.3992C11.5517 14.3992 11.5516 14.3992 11.5514 14.3992C11.5513 14.3992 11.5512 14.3992 11.5511 14.3992C11.551 14.3992 11.5508 14.3992 11.5507 14.3992C11.5506 14.3992 11.5505 14.3992 11.5504 14.3992C11.5502 14.3992 11.5501 14.3992 11.55 14.3992C11.5499 14.3992 11.5497 14.3992 11.5496 14.3992C11.5495 14.3992 11.5494 14.3992 11.5493 14.3992C11.5491 14.3992 11.549 14.3992 11.5489 14.3992C11.5488 14.3992 11.5487 14.3992 11.5485 14.3992C11.5484 14.3992 11.5483 14.3992 11.5482 14.3992C11.548 14.3992 11.5479 14.3992 11.5478 14.3992C11.5477 14.3992 11.5476 14.3992 11.5474 14.3992C11.5473 14.3992 11.5472 14.3992 11.5471 14.3992C11.547 14.3992 11.5468 14.3992 11.5467 14.3992C11.5466 14.3992 11.5465 14.3992 11.5463 14.3992C11.5462 14.3992 11.5461 14.3992 11.546 14.3992C11.5459 14.3992 11.5457 14.3992 11.5456 14.3992C11.5455 14.3992 11.5454 14.3992 11.5453 14.3992C11.5451 14.3992 11.545 14.3992 11.5449 14.3992C11.5448 14.3992 11.5447 14.3992 11.5445 14.3992C11.5444 14.3992 11.5443 14.3992 11.5442 14.3992C11.544 14.3992 11.5439 14.3992 11.5438 14.3992C11.5437 14.3992 11.5436 14.3992 11.5434 14.3992C11.5433 14.3992 11.5432 14.3992 11.5431 14.3992C11.543 14.3992 11.5428 14.3992 11.5427 14.3992C11.5426 14.3992 11.5425 14.3992 11.5423 14.3992C11.5422 14.3992 11.5421 14.3992 11.542 14.3992C11.5419 14.3992 11.5417 14.3992 11.5416 14.3992C11.5415 14.3992 11.5414 14.3992 11.5413 14.3992C11.5411 14.3992 11.541 14.3992 11.5409 14.3992C11.5408 14.3992 11.5406 14.3992 11.5405 14.3992C11.5404 14.3992 11.5403 14.3992 11.5402 14.3992C11.54 14.3992 11.5399 14.3992 11.5398 14.3992C11.5397 14.3992 11.5396 14.3992 11.5394 14.3992C11.5393 14.3992 11.5392 14.3992 11.5391 14.3992C11.539 14.3992 11.5388 14.3992 11.5387 14.3992C11.5386 14.3992 11.5385 14.3992 11.5383 14.3992C11.5382 14.3992 11.5381 14.3992 11.538 14.3992C11.5379 14.3992 11.5377 14.3992 11.5376 14.3992C11.5375 14.3992 11.5374 14.3992 11.5373 14.3992C11.5371 14.3992 11.537 14.3992 11.5369 14.3992C11.5368 14.3992 11.5367 14.3992 11.5365 14.3992C11.5364 14.3992 11.5363 14.3992 11.5362 14.3992C11.536 14.3992 11.5359 14.3992 11.5358 14.3992C11.5357 14.3992 11.5356 14.3992 11.5354 14.3992C11.5353 14.3992 11.5352 14.3992 11.5351 14.3992C11.535 14.3992 11.5348 14.3992 11.5347 14.3992C11.5346 14.3992 11.5345 14.3992 11.5344 14.3992C11.5342 14.3992 11.5341 14.3992 11.534 14.3992C11.5339 14.3992 11.5337 14.3992 11.5336 14.3992C11.5335 14.3992 11.5334 14.3992 11.5333 14.3992C11.5331 14.3992 11.533 14.3992 11.5329 14.3992C11.5328 14.3992 11.5327 14.3992 11.5325 14.3992C11.5324 14.3992 11.5323 14.3992 11.5322 14.3992C11.5321 14.3992 11.5319 14.3992 11.5318 14.3992C11.5317 14.3992 11.5316 14.3992 11.5315 14.3992C11.5313 14.3992 11.5312 14.3992 11.5311 14.3992C11.531 14.3992 11.5308 14.3992 11.5307 14.3992C11.5306 14.3992 11.5305 14.3992 11.5304 14.3992C11.5302 14.3992 11.5301 14.3992 11.53 14.3992C11.5299 14.3992 11.5298 14.3992 11.5296 14.3992C11.5295 14.3992 11.5294 14.3992 11.5293 14.3992C11.5292 14.3992 11.529 14.3992 11.5289 14.3992C11.5288 14.3992 11.5287 14.3992 11.5286 14.3992C11.5284 14.3992 11.5283 14.3992 11.5282 14.3992C11.5281 14.3992 11.5279 14.3992 11.5278 14.3992C11.5277 14.3992 11.5276 14.3992 11.5275 14.3992C11.5273 14.3992 11.5272 14.3992 11.5271 14.3992C11.527 14.3992 11.5269 14.3992 11.5267 14.3992C11.5266 14.3992 11.5265 14.3992 11.5264 14.3992V15.5992C11.5265 15.5992 11.5266 15.5992 11.5267 15.5992C11.5269 15.5992 11.527 15.5992 11.5271 15.5992C11.5272 15.5992 11.5273 15.5992 11.5275 15.5992C11.5276 15.5992 11.5277 15.5992 11.5278 15.5992C11.5279 15.5992 11.5281 15.5992 11.5282 15.5992C11.5283 15.5992 11.5284 15.5992 11.5286 15.5992C11.5287 15.5992 11.5288 15.5992 11.5289 15.5992C11.529 15.5992 11.5292 15.5992 11.5293 15.5992C11.5294 15.5992 11.5295 15.5992 11.5296 15.5992C11.5298 15.5992 11.5299 15.5992 11.53 15.5992C11.5301 15.5992 11.5302 15.5992 11.5304 15.5992C11.5305 15.5992 11.5306 15.5992 11.5307 15.5992C11.5308 15.5992 11.531 15.5992 11.5311 15.5992C11.5312 15.5992 11.5313 15.5992 11.5315 15.5992C11.5316 15.5992 11.5317 15.5992 11.5318 15.5992C11.5319 15.5992 11.5321 15.5992 11.5322 15.5992C11.5323 15.5992 11.5324 15.5992 11.5325 15.5992C11.5327 15.5992 11.5328 15.5992 11.5329 15.5992C11.533 15.5992 11.5331 15.5992 11.5333 15.5992C11.5334 15.5992 11.5335 15.5992 11.5336 15.5992C11.5337 15.5992 11.5339 15.5992 11.534 15.5992C11.5341 15.5992 11.5342 15.5992 11.5344 15.5992C11.5345 15.5992 11.5346 15.5992 11.5347 15.5992C11.5348 15.5992 11.535 15.5992 11.5351 15.5992C11.5352 15.5992 11.5353 15.5992 11.5354 15.5992C11.5356 15.5992 11.5357 15.5992 11.5358 15.5992C11.5359 15.5992 11.536 15.5992 11.5362 15.5992C11.5363 15.5992 11.5364 15.5992 11.5365 15.5992C11.5367 15.5992 11.5368 15.5992 11.5369 15.5992C11.537 15.5992 11.5371 15.5992 11.5373 15.5992C11.5374 15.5992 11.5375 15.5992 11.5376 15.5992C11.5377 15.5992 11.5379 15.5992 11.538 15.5992C11.5381 15.5992 11.5382 15.5992 11.5383 15.5992C11.5385 15.5992 11.5386 15.5992 11.5387 15.5992C11.5388 15.5992 11.539 15.5992 11.5391 15.5992C11.5392 15.5992 11.5393 15.5992 11.5394 15.5992C11.5396 15.5992 11.5397 15.5992 11.5398 15.5992C11.5399 15.5992 11.54 15.5992 11.5402 15.5992C11.5403 15.5992 11.5404 15.5992 11.5405 15.5992C11.5406 15.5992 11.5408 15.5992 11.5409 15.5992C11.541 15.5992 11.5411 15.5992 11.5413 15.5992C11.5414 15.5992 11.5415 15.5992 11.5416 15.5992C11.5417 15.5992 11.5419 15.5992 11.542 15.5992C11.5421 15.5992 11.5422 15.5992 11.5423 15.5992C11.5425 15.5992 11.5426 15.5992 11.5427 15.5992C11.5428 15.5992 11.543 15.5992 11.5431 15.5992C11.5432 15.5992 11.5433 15.5992 11.5434 15.5992C11.5436 15.5992 11.5437 15.5992 11.5438 15.5992C11.5439 15.5992 11.544 15.5992 11.5442 15.5992C11.5443 15.5992 11.5444 15.5992 11.5445 15.5992C11.5447 15.5992 11.5448 15.5992 11.5449 15.5992C11.545 15.5992 11.5451 15.5992 11.5453 15.5992C11.5454 15.5992 11.5455 15.5992 11.5456 15.5992C11.5457 15.5992 11.5459 15.5992 11.546 15.5992C11.5461 15.5992 11.5462 15.5992 11.5463 15.5992C11.5465 15.5992 11.5466 15.5992 11.5467 15.5992C11.5468 15.5992 11.547 15.5992 11.5471 15.5992C11.5472 15.5992 11.5473 15.5992 11.5474 15.5992C11.5476 15.5992 11.5477 15.5992 11.5478 15.5992C11.5479 15.5992 11.548 15.5992 11.5482 15.5992C11.5483 15.5992 11.5484 15.5992 11.5485 15.5992C11.5487 15.5992 11.5488 15.5992 11.5489 15.5992C11.549 15.5992 11.5491 15.5992 11.5493 15.5992C11.5494 15.5992 11.5495 15.5992 11.5496 15.5992C11.5497 15.5992 11.5499 15.5992 11.55 15.5992C11.5501 15.5992 11.5502 15.5992 11.5504 15.5992C11.5505 15.5992 11.5506 15.5992 11.5507 15.5992C11.5508 15.5992 11.551 15.5992 11.5511 15.5992C11.5512 15.5992 11.5513 15.5992 11.5514 15.5992C11.5516 15.5992 11.5517 15.5992 11.5518 15.5992C11.5519 15.5992 11.5521 15.5992 11.5522 15.5992C11.5523 15.5992 11.5524 15.5992 11.5525 15.5992C11.5527 15.5992 11.5528 15.5992 11.5529 15.5992C11.553 15.5992 11.5532 15.5992 11.5533 15.5992C11.5534 15.5992 11.5535 15.5992 11.5536 15.5992C11.5538 15.5992 11.5539 15.5992 11.554 15.5992C11.5541 15.5992 11.5542 15.5992 11.5544 15.5992C11.5545 15.5992 11.5546 15.5992 11.5547 15.5992C11.5549 15.5992 11.555 15.5992 11.5551 15.5992C11.5552 15.5992 11.5553 15.5992 11.5555 15.5992C11.5556 15.5992 11.5557 15.5992 11.5558 15.5992C11.5559 15.5992 11.5561 15.5992 11.5562 15.5992C11.5563 15.5992 11.5564 15.5992 11.5566 15.5992C11.5567 15.5992 11.5568 15.5992 11.5569 15.5992C11.557 15.5992 11.5572 15.5992 11.5573 15.5992C11.5574 15.5992 11.5575 15.5992 11.5577 15.5992C11.5578 15.5992 11.5579 15.5992 11.558 15.5992C11.5581 15.5992 11.5583 15.5992 11.5584 15.5992C11.5585 15.5992 11.5586 15.5992 11.5587 15.5992C11.5589 15.5992 11.559 15.5992 11.5591 15.5992C11.5592 15.5992 11.5594 15.5992 11.5595 15.5992C11.5596 15.5992 11.5597 15.5992 11.5598 15.5992C11.56 15.5992 11.5601 15.5992 11.5602 15.5992C11.5603 15.5992 11.5605 15.5992 11.5606 15.5992C11.5607 15.5992 11.5608 15.5992 11.5609 15.5992C11.5611 15.5992 11.5612 15.5992 11.5613 15.5992C11.5614 15.5992 11.5615 15.5992 11.5617 15.5992C11.5618 15.5992 11.5619 15.5992 11.562 15.5992C11.5622 15.5992 11.5623 15.5992 11.5624 15.5992C11.5625 15.5992 11.5626 15.5992 11.5628 15.5992C11.5629 15.5992 11.563 15.5992 11.5631 15.5992C11.5633 15.5992 11.5634 15.5992 11.5635 15.5992C11.5636 15.5992 11.5637 15.5992 11.5639 15.5992C11.564 15.5992 11.5641 15.5992 11.5642 15.5992C11.5644 15.5992 11.5645 15.5992 11.5646 15.5992C11.5647 15.5992 11.5648 15.5992 11.565 15.5992C11.5651 15.5992 11.5652 15.5992 11.5653 15.5992C11.5654 15.5992 11.5656 15.5992 11.5657 15.5992C11.5658 15.5992 11.5659 15.5992 11.5661 15.5992C11.5662 15.5992 11.5663 15.5992 11.5664 15.5992C11.5665 15.5992 11.5667 15.5992 11.5668 15.5992C11.5669 15.5992 11.567 15.5992 11.5672 15.5992C11.5673 15.5992 11.5674 15.5992 11.5675 15.5992C11.5676 15.5992 11.5678 15.5992 11.5679 15.5992C11.568 15.5992 11.5681 15.5992 11.5683 15.5992C11.5684 15.5992 11.5685 15.5992 11.5686 15.5992C11.5687 15.5992 11.5689 15.5992 11.569 15.5992C11.5691 15.5992 11.5692 15.5992 11.5693 15.5992C11.5695 15.5992 11.5696 15.5992 11.5697 15.5992C11.5698 15.5992 11.57 15.5992 11.5701 15.5992C11.5702 15.5992 11.5703 15.5992 11.5704 15.5992C11.5706 15.5992 11.5707 15.5992 11.5708 15.5992C11.5709 15.5992 11.5711 15.5992 11.5712 15.5992C11.5713 15.5992 11.5714 15.5992 11.5715 15.5992C11.5717 15.5992 11.5718 15.5992 11.5719 15.5992C11.572 15.5992 11.5722 15.5992 11.5723 15.5992C11.5724 15.5992 11.5725 15.5992 11.5726 15.5992C11.5728 15.5992 11.5729 15.5992 11.573 15.5992C11.5731 15.5992 11.5733 15.5992 11.5734 15.5992C11.5735 15.5992 11.5736 15.5992 11.5737 15.5992C11.5739 15.5992 11.574 15.5992 11.5741 15.5992C11.5742 15.5992 11.5744 15.5992 11.5745 15.5992C11.5746 15.5992 11.5747 15.5992 11.5748 15.5992C11.575 15.5992 11.5751 15.5992 11.5752 15.5992C11.5753 15.5992 11.5755 15.5992 11.5756 15.5992C11.5757 15.5992 11.5758 15.5992 11.5759 15.5992C11.5761 15.5992 11.5762 15.5992 11.5763 15.5992C11.5764 15.5992 11.5766 15.5992 11.5767 15.5992C11.5768 15.5992 11.5769 15.5992 11.577 15.5992C11.5772 15.5992 11.5773 15.5992 11.5774 15.5992C11.5775 15.5992 11.5777 15.5992 11.5778 15.5992C11.5779 15.5992 11.578 15.5992 11.5781 15.5992C11.5783 15.5992 11.5784 15.5992 11.5785 15.5992C11.5786 15.5992 11.5788 15.5992 11.5789 15.5992C11.579 15.5992 11.5791 15.5992 11.5792 15.5992C11.5794 15.5992 11.5795 15.5992 11.5796 15.5992C11.5797 15.5992 11.5799 15.5992 11.58 15.5992C11.5801 15.5992 11.5802 15.5992 11.5803 15.5992C11.5805 15.5992 11.5806 15.5992 11.5807 15.5992C11.5808 15.5992 11.581 15.5992 11.5811 15.5992C11.5812 15.5992 11.5813 15.5992 11.5814 15.5992C11.5816 15.5992 11.5817 15.5992 11.5818 15.5992C11.5819 15.5992 11.5821 15.5992 11.5822 15.5992C11.5823 15.5992 11.5824 15.5992 11.5825 15.5992C11.5827 15.5992 11.5828 15.5992 11.5829 15.5992C11.583 15.5992 11.5832 15.5992 11.5833 15.5992C11.5834 15.5992 11.5835 15.5992 11.5836 15.5992C11.5838 15.5992 11.5839 15.5992 11.584 15.5992C11.5841 15.5992 11.5843 15.5992 11.5844 15.5992C11.5845 15.5992 11.5846 15.5992 11.5847 15.5992C11.5849 15.5992 11.585 15.5992 11.5851 15.5992C11.5852 15.5992 11.5854 15.5992 11.5855 15.5992C11.5856 15.5992 11.5857 15.5992 11.5858 15.5992C11.586 15.5992 11.5861 15.5992 11.5862 15.5992C11.5863 15.5992 11.5865 15.5992 11.5866 15.5992C11.5867 15.5992 11.5868 15.5992 11.5869 15.5992C11.5871 15.5992 11.5872 15.5992 11.5873 15.5992C11.5874 15.5992 11.5876 15.5992 11.5877 15.5992C11.5878 15.5992 11.5879 15.5992 11.588 15.5992C11.5882 15.5992 11.5883 15.5992 11.5884 15.5992C11.5885 15.5992 11.5887 15.5992 11.5888 15.5992C11.5889 15.5992 11.589 15.5992 11.5891 15.5992C11.5893 15.5992 11.5894 15.5992 11.5895 15.5992C11.5896 15.5992 11.5898 15.5992 11.5899 15.5992C11.59 15.5992 11.5901 15.5992 11.5902 15.5992C11.5904 15.5992 11.5905 15.5992 11.5906 15.5992C11.5907 15.5992 11.5909 15.5992 11.591 15.5992C11.5911 15.5992 11.5912 15.5992 11.5914 15.5992C11.5915 15.5992 11.5916 15.5992 11.5917 15.5992C11.5918 15.5992 11.592 15.5992 11.5921 15.5992C11.5922 15.5992 11.5923 15.5992 11.5925 15.5992C11.5926 15.5992 11.5927 15.5992 11.5928 15.5992C11.5929 15.5992 11.5931 15.5992 11.5932 15.5992C11.5933 15.5992 11.5934 15.5992 11.5936 15.5992C11.5937 15.5992 11.5938 15.5992 11.5939 15.5992C11.594 15.5992 11.5942 15.5992 11.5943 15.5992C11.5944 15.5992 11.5945 15.5992 11.5947 15.5992C11.5948 15.5992 11.5949 15.5992 11.595 15.5992C11.5951 15.5992 11.5953 15.5992 11.5954 15.5992C11.5955 15.5992 11.5956 15.5992 11.5958 15.5992C11.5959 15.5992 11.596 15.5992 11.5961 15.5992C11.5962 15.5992 11.5964 15.5992 11.5965 15.5992C11.5966 15.5992 11.5967 15.5992 11.5969 15.5992C11.597 15.5992 11.5971 15.5992 11.5972 15.5992C11.5974 15.5992 11.5975 15.5992 11.5976 15.5992C11.5977 15.5992 11.5978 15.5992 11.598 15.5992C11.5981 15.5992 11.5982 15.5992 11.5983 15.5992C11.5985 15.5992 11.5986 15.5992 11.5987 15.5992C11.5988 15.5992 11.5989 15.5992 11.5991 15.5992C11.5992 15.5992 11.5993 15.5992 11.5994 15.5992C11.5996 15.5992 11.5997 15.5992 11.5998 15.5992C11.5999 15.5992 11.6 15.5992 11.6002 15.5992C11.6003 15.5992 11.6004 15.5992 11.6005 15.5992C11.6007 15.5992 11.6008 15.5992 11.6009 15.5992C11.601 15.5992 11.6012 15.5992 11.6013 15.5992C11.6014 15.5992 11.6015 15.5992 11.6016 15.5992C11.6018 15.5992 11.6019 15.5992 11.602 15.5992C11.6021 15.5992 11.6023 15.5992 11.6024 15.5992C11.6025 15.5992 11.6026 15.5992 11.6027 15.5992C11.6029 15.5992 11.603 15.5992 11.6031 15.5992C11.6032 15.5992 11.6034 15.5992 11.6035 15.5992C11.6036 15.5992 11.6037 15.5992 11.6038 15.5992C11.604 15.5992 11.6041 15.5992 11.6042 15.5992C11.6043 15.5992 11.6045 15.5992 11.6046 15.5992C11.6047 15.5992 11.6048 15.5992 11.605 15.5992C11.6051 15.5992 11.6052 15.5992 11.6053 15.5992C11.6054 15.5992 11.6056 15.5992 11.6057 15.5992C11.6058 15.5992 11.6059 15.5992 11.6061 15.5992C11.6062 15.5992 11.6063 15.5992 11.6064 15.5992C11.6065 15.5992 11.6067 15.5992 11.6068 15.5992C11.6069 15.5992 11.607 15.5992 11.6072 15.5992C11.6073 15.5992 11.6074 15.5992 11.6075 15.5992C11.6077 15.5992 11.6078 15.5992 11.6079 15.5992C11.608 15.5992 11.6081 15.5992 11.6083 15.5992C11.6084 15.5992 11.6085 15.5992 11.6086 15.5992C11.6088 15.5992 11.6089 15.5992 11.609 15.5992C11.6091 15.5992 11.6092 15.5992 11.6094 15.5992C11.6095 15.5992 11.6096 15.5992 11.6097 15.5992C11.6099 15.5992 11.61 15.5992 11.6101 15.5992C11.6102 15.5992 11.6104 15.5992 11.6105 15.5992C11.6106 15.5992 11.6107 15.5992 11.6108 15.5992C11.611 15.5992 11.6111 15.5992 11.6112 15.5992C11.6113 15.5992 11.6115 15.5992 11.6116 15.5992C11.6117 15.5992 11.6118 15.5992 11.6119 15.5992C11.6121 15.5992 11.6122 15.5992 11.6123 15.5992C11.6124 15.5992 11.6126 15.5992 11.6127 15.5992C11.6128 15.5992 11.6129 15.5992 11.6131 15.5992C11.6132 15.5992 11.6133 15.5992 11.6134 15.5992C11.6135 15.5992 11.6137 15.5992 11.6138 15.5992C11.6139 15.5992 11.614 15.5992 11.6142 15.5992C11.6143 15.5992 11.6144 15.5992 11.6145 15.5992C11.6146 15.5992 11.6148 15.5992 11.6149 15.5992C11.615 15.5992 11.6151 15.5992 11.6153 15.5992C11.6154 15.5992 11.6155 15.5992 11.6156 15.5992C11.6158 15.5992 11.6159 15.5992 11.616 15.5992C11.6161 15.5992 11.6162 15.5992 11.6164 15.5992C11.6165 15.5992 11.6166 15.5992 11.6167 15.5992C11.6169 15.5992 11.617 15.5992 11.6171 15.5992C11.6172 15.5992 11.6173 15.5992 11.6175 15.5992C11.6176 15.5992 11.6177 15.5992 11.6178 15.5992C11.618 15.5992 11.6181 15.5992 11.6182 15.5992C11.6183 15.5992 11.6185 15.5992 11.6186 15.5992C11.6187 15.5992 11.6188 15.5992 11.6189 15.5992C11.6191 15.5992 11.6192 15.5992 11.6193 15.5992C11.6194 15.5992 11.6196 15.5992 11.6197 15.5992C11.6198 15.5992 11.6199 15.5992 11.6201 15.5992C11.6202 15.5992 11.6203 15.5992 11.6204 15.5992C11.6205 15.5992 11.6207 15.5992 11.6208 15.5992C11.6209 15.5992 11.621 15.5992 11.6212 15.5992C11.6213 15.5992 11.6214 15.5992 11.6215 15.5992C11.6216 15.5992 11.6218 15.5992 11.6219 15.5992C11.622 15.5992 11.6221 15.5992 11.6223 15.5992C11.6224 15.5992 11.6225 15.5992 11.6226 15.5992C11.6228 15.5992 11.6229 15.5992 11.623 15.5992C11.6231 15.5992 11.6232 15.5992 11.6234 15.5992C11.6235 15.5992 11.6236 15.5992 11.6237 15.5992C11.6239 15.5992 11.624 15.5992 11.6241 15.5992C11.6242 15.5992 11.6244 15.5992 11.6245 15.5992C11.6246 15.5992 11.6247 15.5992 11.6248 15.5992C11.625 15.5992 11.6251 15.5992 11.6252 15.5992C11.6253 15.5992 11.6255 15.5992 11.6256 15.5992C11.6257 15.5992 11.6258 15.5992 11.6259 15.5992C11.6261 15.5992 11.6262 15.5992 11.6263 15.5992C11.6264 15.5992 11.6266 15.5992 11.6267 15.5992C11.6268 15.5992 11.6269 15.5992 11.6271 15.5992C11.6272 15.5992 11.6273 15.5992 11.6274 15.5992C11.6275 15.5992 11.6277 15.5992 11.6278 15.5992C11.6279 15.5992 11.628 15.5992 11.6282 15.5992C11.6283 15.5992 11.6284 15.5992 11.6285 15.5992C11.6287 15.5992 11.6288 15.5992 11.6289 15.5992C11.629 15.5992 11.6291 15.5992 11.6293 15.5992C11.6294 15.5992 11.6295 15.5992 11.6296 15.5992C11.6298 15.5992 11.6299 15.5992 11.63 15.5992C11.6301 15.5992 11.6302 15.5992 11.6304 15.5992C11.6305 15.5992 11.6306 15.5992 11.6307 15.5992C11.6309 15.5992 11.631 15.5992 11.6311 15.5992C11.6312 15.5992 11.6314 15.5992 11.6315 15.5992C11.6316 15.5992 11.6317 15.5992 11.6318 15.5992C11.632 15.5992 11.6321 15.5992 11.6322 15.5992C11.6323 15.5992 11.6325 15.5992 11.6326 15.5992C11.6327 15.5992 11.6328 15.5992 11.633 15.5992C11.6331 15.5992 11.6332 15.5992 11.6333 15.5992C11.6334 15.5992 11.6336 15.5992 11.6337 15.5992C11.6338 15.5992 11.6339 15.5992 11.6341 15.5992C11.6342 15.5992 11.6343 15.5992 11.6344 15.5992C11.6346 15.5992 11.6347 15.5992 11.6348 15.5992C11.6349 15.5992 11.635 15.5992 11.6352 15.5992C11.6353 15.5992 11.6354 15.5992 11.6355 15.5992C11.6357 15.5992 11.6358 15.5992 11.6359 15.5992C11.636 15.5992 11.6361 15.5992 11.6363 15.5992C11.6364 15.5992 11.6365 15.5992 11.6366 15.5992C11.6368 15.5992 11.6369 15.5992 11.637 15.5992C11.6371 15.5992 11.6373 15.5992 11.6374 15.5992C11.6375 15.5992 11.6376 15.5992 11.6377 15.5992C11.6379 15.5992 11.638 15.5992 11.6381 15.5992C11.6382 15.5992 11.6384 15.5992 11.6385 15.5992C11.6386 15.5992 11.6387 15.5992 11.6389 15.5992C11.639 15.5992 11.6391 15.5992 11.6392 15.5992C11.6393 15.5992 11.6395 15.5992 11.6396 15.5992C11.6397 15.5992 11.6398 15.5992 11.64 15.5992C11.6401 15.5992 11.6402 15.5992 11.6403 15.5992C11.6405 15.5992 11.6406 15.5992 11.6407 15.5992C11.6408 15.5992 11.6409 15.5992 11.6411 15.5992C11.6412 15.5992 11.6413 15.5992 11.6414 15.5992C11.6416 15.5992 11.6417 15.5992 11.6418 15.5992C11.6419 15.5992 11.642 15.5992 11.6422 15.5992C11.6423 15.5992 11.6424 15.5992 11.6425 15.5992C11.6427 15.5992 11.6428 15.5992 11.6429 15.5992C11.643 15.5992 11.6432 15.5992 11.6433 15.5992C11.6434 15.5992 11.6435 15.5992 11.6436 15.5992C11.6438 15.5992 11.6439 15.5992 11.644 15.5992C11.6441 15.5992 11.6443 15.5992 11.6444 15.5992C11.6445 15.5992 11.6446 15.5992 11.6448 15.5992C11.6449 15.5992 11.645 15.5992 11.6451 15.5992C11.6452 15.5992 11.6454 15.5992 11.6455 15.5992C11.6456 15.5992 11.6457 15.5992 11.6459 15.5992C11.646 15.5992 11.6461 15.5992 11.6462 15.5992C11.6464 15.5992 11.6465 15.5992 11.6466 15.5992C11.6467 15.5992 11.6468 15.5992 11.647 15.5992C11.6471 15.5992 11.6472 15.5992 11.6473 15.5992C11.6475 15.5992 11.6476 15.5992 11.6477 15.5992C11.6478 15.5992 11.648 15.5992 11.6481 15.5992C11.6482 15.5992 11.6483 15.5992 11.6484 15.5992C11.6486 15.5992 11.6487 15.5992 11.6488 15.5992C11.6489 15.5992 11.6491 15.5992 11.6492 15.5992C11.6493 15.5992 11.6494 15.5992 11.6495 15.5992C11.6497 15.5992 11.6498 15.5992 11.6499 15.5992C11.65 15.5992 11.6502 15.5992 11.6503 15.5992C11.6504 15.5992 11.6505 15.5992 11.6507 15.5992C11.6508 15.5992 11.6509 15.5992 11.651 15.5992C11.6511 15.5992 11.6513 15.5992 11.6514 15.5992C11.6515 15.5992 11.6516 15.5992 11.6518 15.5992C11.6519 15.5992 11.652 15.5992 11.6521 15.5992C11.6523 15.5992 11.6524 15.5992 11.6525 15.5992C11.6526 15.5992 11.6527 15.5992 11.6529 15.5992C11.653 15.5992 11.6531 15.5992 11.6532 15.5992C11.6534 15.5992 11.6535 15.5992 11.6536 15.5992C11.6537 15.5992 11.6539 15.5992 11.654 15.5992C11.6541 15.5992 11.6542 15.5992 11.6543 15.5992C11.6545 15.5992 11.6546 15.5992 11.6547 15.5992C11.6548 15.5992 11.655 15.5992 11.6551 15.5992C11.6552 15.5992 11.6553 15.5992 11.6555 15.5992C11.6556 15.5992 11.6557 15.5992 11.6558 15.5992C11.6559 15.5992 11.6561 15.5992 11.6562 15.5992C11.6563 15.5992 11.6564 15.5992 11.6566 15.5992C11.6567 15.5992 11.6568 15.5992 11.6569 15.5992C11.6571 15.5992 11.6572 15.5992 11.6573 15.5992C11.6574 15.5992 11.6575 15.5992 11.6577 15.5992C11.6578 15.5992 11.6579 15.5992 11.658 15.5992C11.6582 15.5992 11.6583 15.5992 11.6584 15.5992C11.6585 15.5992 11.6586 15.5992 11.6588 15.5992C11.6589 15.5992 11.659 15.5992 11.6591 15.5992C11.6593 15.5992 11.6594 15.5992 11.6595 15.5992C11.6596 15.5992 11.6598 15.5992 11.6599 15.5992C11.66 15.5992 11.6601 15.5992 11.6602 15.5992C11.6604 15.5992 11.6605 15.5992 11.6606 15.5992C11.6607 15.5992 11.6609 15.5992 11.661 15.5992C11.6611 15.5992 11.6612 15.5992 11.6614 15.5992C11.6615 15.5992 11.6616 15.5992 11.6617 15.5992C11.6618 15.5992 11.662 15.5992 11.6621 15.5992C11.6622 15.5992 11.6623 15.5992 11.6625 15.5992C11.6626 15.5992 11.6627 15.5992 11.6628 15.5992C11.663 15.5992 11.6631 15.5992 11.6632 15.5992C11.6633 15.5992 11.6634 15.5992 11.6636 15.5992C11.6637 15.5992 11.6638 15.5992 11.6639 15.5992C11.6641 15.5992 11.6642 15.5992 11.6643 15.5992C11.6644 15.5992 11.6645 15.5992 11.6647 15.5992C11.6648 15.5992 11.6649 15.5992 11.665 15.5992C11.6652 15.5992 11.6653 15.5992 11.6654 15.5992C11.6655 15.5992 11.6657 15.5992 11.6658 15.5992C11.6659 15.5992 11.666 15.5992 11.6661 15.5992C11.6663 15.5992 11.6664 15.5992 11.6665 15.5992C11.6666 15.5992 11.6668 15.5992 11.6669 15.5992C11.667 15.5992 11.6671 15.5992 11.6673 15.5992C11.6674 15.5992 11.6675 15.5992 11.6676 15.5992C11.6677 15.5992 11.6679 15.5992 11.668 15.5992C11.6681 15.5992 11.6682 15.5992 11.6684 15.5992C11.6685 15.5992 11.6686 15.5992 11.6687 15.5992C11.6689 15.5992 11.669 15.5992 11.6691 15.5992C11.6692 15.5992 11.6693 15.5992 11.6695 15.5992C11.6696 15.5992 11.6697 15.5992 11.6698 15.5992C11.67 15.5992 11.6701 15.5992 11.6702 15.5992C11.6703 15.5992 11.6705 15.5992 11.6706 15.5992C11.6707 15.5992 11.6708 15.5992 11.6709 15.5992C11.6711 15.5992 11.6712 15.5992 11.6713 15.5992C11.6714 15.5992 11.6716 15.5992 11.6717 15.5992C11.6718 15.5992 11.6719 15.5992 11.672 15.5992C11.6722 15.5992 11.6723 15.5992 11.6724 15.5992C11.6725 15.5992 11.6727 15.5992 11.6728 15.5992C11.6729 15.5992 11.673 15.5992 11.6732 15.5992C11.6733 15.5992 11.6734 15.5992 11.6735 15.5992C11.6736 15.5992 11.6738 15.5992 11.6739 15.5992C11.674 15.5992 11.6741 15.5992 11.6743 15.5992C11.6744 15.5992 11.6745 15.5992 11.6746 15.5992C11.6748 15.5992 11.6749 15.5992 11.675 15.5992C11.6751 15.5992 11.6752 15.5992 11.6754 15.5992C11.6755 15.5992 11.6756 15.5992 11.6757 15.5992C11.6759 15.5992 11.676 15.5992 11.6761 15.5992C11.6762 15.5992 11.6763 15.5992 11.6765 15.5992C11.6766 15.5992 11.6767 15.5992 11.6768 15.5992C11.677 15.5992 11.6771 15.5992 11.6772 15.5992C11.6773 15.5992 11.6775 15.5992 11.6776 15.5992C11.6777 15.5992 11.6778 15.5992 11.6779 15.5992C11.6781 15.5992 11.6782 15.5992 11.6783 15.5992C11.6784 15.5992 11.6786 15.5992 11.6787 15.5992C11.6788 15.5992 11.6789 15.5992 11.6791 15.5992C11.6792 15.5992 11.6793 15.5992 11.6794 15.5992C11.6795 15.5992 11.6797 15.5992 11.6798 15.5992C11.6799 15.5992 11.68 15.5992 11.6802 15.5992C11.6803 15.5992 11.6804 15.5992 11.6805 15.5992C11.6806 15.5992 11.6808 15.5992 11.6809 15.5992C11.681 15.5992 11.6811 15.5992 11.6813 15.5992C11.6814 15.5992 11.6815 15.5992 11.6816 15.5992C11.6818 15.5992 11.6819 15.5992 11.682 15.5992C11.6821 15.5992 11.6822 15.5992 11.6824 15.5992C11.6825 15.5992 11.6826 15.5992 11.6827 15.5992C11.6829 15.5992 11.683 15.5992 11.6831 15.5992C11.6832 15.5992 11.6834 15.5992 11.6835 15.5992C11.6836 15.5992 11.6837 15.5992 11.6838 15.5992C11.684 15.5992 11.6841 15.5992 11.6842 15.5992C11.6843 15.5992 11.6845 15.5992 11.6846 15.5992C11.6847 15.5992 11.6848 15.5992 11.6849 15.5992C11.6851 15.5992 11.6852 15.5992 11.6853 15.5992C11.6854 15.5992 11.6856 15.5992 11.6857 15.5992C11.6858 15.5992 11.6859 15.5992 11.6861 15.5992C11.6862 15.5992 11.6863 15.5992 11.6864 15.5992C11.6865 15.5992 11.6867 15.5992 11.6868 15.5992C11.6869 15.5992 11.687 15.5992 11.6872 15.5992C11.6873 15.5992 11.6874 15.5992 11.6875 15.5992C11.6876 15.5992 11.6878 15.5992 11.6879 15.5992C11.688 15.5992 11.6881 15.5992 11.6883 15.5992C11.6884 15.5992 11.6885 15.5992 11.6886 15.5992C11.6888 15.5992 11.6889 15.5992 11.689 15.5992C11.6891 15.5992 11.6892 15.5992 11.6894 15.5992C11.6895 15.5992 11.6896 15.5992 11.6897 15.5992C11.6899 15.5992 11.69 15.5992 11.6901 15.5992C11.6902 15.5992 11.6903 15.5992 11.6905 15.5992C11.6906 15.5992 11.6907 15.5992 11.6908 15.5992C11.691 15.5992 11.6911 15.5992 11.6912 15.5992C11.6913 15.5992 11.6915 15.5992 11.6916 15.5992C11.6917 15.5992 11.6918 15.5992 11.6919 15.5992C11.6921 15.5992 11.6922 15.5992 11.6923 15.5992C11.6924 15.5992 11.6926 15.5992 11.6927 15.5992C11.6928 15.5992 11.6929 15.5992 11.6931 15.5992C11.6932 15.5992 11.6933 15.5992 11.6934 15.5992C11.6935 15.5992 11.6937 15.5992 11.6938 15.5992C11.6939 15.5992 11.694 15.5992 11.6942 15.5992C11.6943 15.5992 11.6944 15.5992 11.6945 15.5992C11.6946 15.5992 11.6948 15.5992 11.6949 15.5992C11.695 15.5992 11.6951 15.5992 11.6953 15.5992C11.6954 15.5992 11.6955 15.5992 11.6956 15.5992C11.6957 15.5992 11.6959 15.5992 11.696 15.5992C11.6961 15.5992 11.6962 15.5992 11.6964 15.5992C11.6965 15.5992 11.6966 15.5992 11.6967 15.5992C11.6969 15.5992 11.697 15.5992 11.6971 15.5992C11.6972 15.5992 11.6973 15.5992 11.6975 15.5992C11.6976 15.5992 11.6977 15.5992 11.6978 15.5992C11.698 15.5992 11.6981 15.5992 11.6982 15.5992C11.6983 15.5992 11.6984 15.5992 11.6986 15.5992C11.6987 15.5992 11.6988 15.5992 11.6989 15.5992C11.6991 15.5992 11.6992 15.5992 11.6993 15.5992C11.6994 15.5992 11.6996 15.5992 11.6997 15.5992C11.6998 15.5992 11.6999 15.5992 11.7 15.5992C11.7002 15.5992 11.7003 15.5992 11.7004 15.5992C11.7005 15.5992 11.7007 15.5992 11.7008 15.5992C11.7009 15.5992 11.701 15.5992 11.7011 15.5992C11.7013 15.5992 11.7014 15.5992 11.7015 15.5992C11.7016 15.5992 11.7018 15.5992 11.7019 15.5992C11.702 15.5992 11.7021 15.5992 11.7022 15.5992C11.7024 15.5992 11.7025 15.5992 11.7026 15.5992C11.7027 15.5992 11.7029 15.5992 11.703 15.5992C11.7031 15.5992 11.7032 15.5992 11.7034 15.5992C11.7035 15.5992 11.7036 15.5992 11.7037 15.5992C11.7038 15.5992 11.704 15.5992 11.7041 15.5992C11.7042 15.5992 11.7043 15.5992 11.7045 15.5992C11.7046 15.5992 11.7047 15.5992 11.7048 15.5992C11.7049 15.5992 11.7051 15.5992 11.7052 15.5992C11.7053 15.5992 11.7054 15.5992 11.7056 15.5992C11.7057 15.5992 11.7058 15.5992 11.7059 15.5992C11.706 15.5992 11.7062 15.5992 11.7063 15.5992C11.7064 15.5992 11.7065 15.5992 11.7067 15.5992C11.7068 15.5992 11.7069 15.5992 11.707 15.5992C11.7072 15.5992 11.7073 15.5992 11.7074 15.5992C11.7075 15.5992 11.7076 15.5992 11.7078 15.5992C11.7079 15.5992 11.708 15.5992 11.7081 15.5992C11.7083 15.5992 11.7084 15.5992 11.7085 15.5992C11.7086 15.5992 11.7087 15.5992 11.7089 15.5992C11.709 15.5992 11.7091 15.5992 11.7092 15.5992C11.7094 15.5992 11.7095 15.5992 11.7096 15.5992C11.7097 15.5992 11.7098 15.5992 11.71 15.5992C11.7101 15.5992 11.7102 15.5992 11.7103 15.5992C11.7105 15.5992 11.7106 15.5992 11.7107 15.5992C11.7108 15.5992 11.7109 15.5992 11.7111 15.5992C11.7112 15.5992 11.7113 15.5992 11.7114 15.5992C11.7116 15.5992 11.7117 15.5992 11.7118 15.5992C11.7119 15.5992 11.7121 15.5992 11.7122 15.5992C11.7123 15.5992 11.7124 15.5992 11.7125 15.5992C11.7127 15.5992 11.7128 15.5992 11.7129 15.5992C11.713 15.5992 11.7132 15.5992 11.7133 15.5992C11.7134 15.5992 11.7135 15.5992 11.7136 15.5992C11.7138 15.5992 11.7139 15.5992 11.714 15.5992C11.7141 15.5992 11.7143 15.5992 11.7144 15.5992V14.3992ZM11.5858 14.4022C10.6926 14.3133 9.82432 14.0574 9.02656 13.648L8.4786 14.7156C9.41033 15.1938 10.4242 15.4926 11.467 15.5963L11.5858 14.4022ZM9.01337 13.6414C7.18861 12.7607 5.57449 11.5012 4.27943 9.94777L3.35771 10.7162C4.76253 12.4013 6.51316 13.7672 8.49179 14.7221L9.01337 13.6414ZM4.27173 9.93872C3.28834 8.8055 2.50993 7.51103 1.97104 6.11292L0.851338 6.54451C1.44031 8.07254 2.29097 9.48708 3.3654 10.7252L4.27173 9.93872ZM1.96609 6.10049C1.69608 5.44398 1.57288 4.73689 1.60499 4.02831L0.40622 3.97398C0.366184 4.85737 0.519794 5.73879 0.856291 6.55694L1.96609 6.10049ZM1.60395 4.04564C1.63417 3.63934 1.81231 3.25755 2.10556 2.97216L1.26863 2.11219C0.76579 2.60155 0.459254 3.25739 0.407257 3.95665L1.60395 4.04564ZM2.11068 2.96711L3.18816 1.89305L2.34099 1.04317L1.2635 2.11723L2.11068 2.96711ZM3.19394 1.88722C3.36819 1.7087 3.60647 1.60521 3.85744 1.59986L3.83191 0.400136C3.2673 0.412153 2.72962 0.644952 2.33522 1.049L3.19394 1.88722ZM3.83485 1.59992C3.95358 1.60187 4.07068 1.62725 4.17934 1.67454L4.65819 0.574219C4.40441 0.463776 4.13124 0.404616 3.85451 0.400081L3.83485 1.59992ZM4.17934 1.67454C4.28798 1.72182 4.38598 1.79003 4.46773 1.87513L5.33308 1.04376C5.14138 0.844228 4.91198 0.684667 4.65819 0.574219L4.17934 1.67454ZM4.49273 1.89968C4.69093 2.08322 4.8739 2.27024 5.064 2.46396L5.9205 1.62348C5.73461 1.43404 5.53113 1.22577 5.30808 1.01922L4.49273 1.89968ZM5.0578 2.45754C5.16125 2.56616 5.26491 2.66846 5.36389 2.76704L6.21072 1.91682C6.10604 1.81256 6.01647 1.72413 5.92671 1.6299L5.0578 2.45754ZM5.36389 2.76704L6.22118 3.62092L7.06801 2.7707L6.21072 1.91682L5.36389 2.76704ZM6.25685 3.65369C6.34852 3.73132 6.42198 3.82771 6.4723 3.93611L7.56074 3.43084C7.437 3.16428 7.25665 2.92788 7.03234 2.73793L6.25685 3.65369ZM6.4723 3.93611C6.52261 4.04448 6.54862 4.16234 6.54862 4.28157H7.74862C7.74862 3.9877 7.68449 3.69742 7.56074 3.43084L6.4723 3.93611ZM6.54862 4.28157C6.54862 4.4008 6.5226 4.51867 6.4723 4.62704L7.56074 5.13231C7.68449 4.86573 7.74862 4.57543 7.74862 4.28157H6.54862ZM6.4723 4.62704C6.42198 4.73544 6.34852 4.83183 6.25685 4.90946L7.03234 5.82522C7.25665 5.63527 7.43699 5.39887 7.56074 5.13231L6.4723 4.62704ZM6.22118 4.94223L6.13414 5.02892L6.98097 5.87914L7.06801 5.79245L6.22118 4.94223ZM6.14017 5.023C6.07627 5.08488 6.00777 5.15199 5.93939 5.2241L6.81016 6.04978C6.86016 5.99706 6.91352 5.94455 6.97495 5.88506L6.14017 5.023ZM6.02588 8.05155C6.79581 9.02118 7.71934 9.85909 8.76002 10.5323L9.41182 9.52478C8.48056 8.92233 7.65433 8.17265 6.96565 7.30533L6.02588 8.05155ZM8.77189 10.5398C8.89095 10.6129 9.01393 10.6795 9.1403 10.7392L9.65296 9.65424C9.56617 9.61323 9.48171 9.56751 9.39995 9.51729L8.77189 10.5398ZM11.0692 9.73949C11.153 9.64981 11.2541 9.57763 11.3666 9.52731L10.8769 8.4318C10.6184 8.54734 10.3857 8.71336 10.1924 8.9202L11.0692 9.73949ZM11.3666 9.52731C11.4792 9.477 11.6008 9.44962 11.7243 9.44685L11.6975 8.24715C11.4144 8.25349 11.1354 8.31625 10.8769 8.4318L11.3666 9.52731ZM11.6976 9.44685C11.8173 9.44951 11.9351 9.47654 12.0437 9.52621L12.5427 8.43488C12.2855 8.31728 12.007 8.25342 11.7242 8.24715L11.6976 9.44685ZM12.0437 9.52621C12.1523 9.57588 12.2494 9.6471 12.3291 9.73535L13.2198 8.93128C13.0304 8.72137 12.7999 8.55248 12.5427 8.43488L12.0437 9.52621ZM12.3505 9.75789L14.0869 11.4917L14.9348 10.6425L13.1984 8.90873L12.3505 9.75789ZM14.1124 11.5157C14.2027 11.5959 14.2748 11.6939 14.3243 11.8033L15.4177 11.3089C15.2987 11.0456 15.1253 10.8103 14.9092 10.6184L14.1124 11.5157ZM14.3243 11.8033C14.3738 11.9128 14.3996 12.0313 14.4 12.1511L15.6 12.1468C15.5989 11.8578 15.5368 11.5723 15.4177 11.3089L14.3243 11.8033ZM14.4 12.1511C14.4004 12.2709 14.3755 12.3896 14.3268 12.4994L15.4238 12.9859C15.541 12.7217 15.601 12.4358 15.6 12.1468L14.4 12.1511ZM14.3268 12.4994C14.2781 12.6092 14.2067 12.7077 14.117 12.7885L14.9202 13.6801C15.135 13.4866 15.3066 13.2501 15.4238 12.9859L14.3268 12.4994ZM14.1275 12.7793C14.0759 12.8236 14.0286 12.8727 13.9862 12.9258L14.924 13.6745C14.9197 13.6798 14.915 13.6848 14.9097 13.6893L14.1275 12.7793ZM14.0304 12.8764L13.1914 13.7172L14.0408 14.5648L14.8798 13.724L14.0304 12.8764ZM10.2153 10.5905L11.0542 9.75495L10.2074 8.90474L9.36846 9.74031L10.2153 10.5905ZM9.16932 10.752C9.26826 10.7925 9.41276 10.832 9.57348 10.8352C9.7283 10.8382 9.99742 10.8075 10.2153 10.5905L9.36846 9.74031C9.47642 9.63278 9.59088 9.63532 9.59705 9.63544C9.60264 9.63555 9.60621 9.63595 9.60773 9.63614C9.6093 9.63635 9.61002 9.63651 9.61014 9.63654C9.61026 9.63657 9.61085 9.63669 9.61229 9.63714C9.61352 9.63753 9.61738 9.63877 9.62394 9.64145L9.16932 10.752ZM5.94685 5.21637C5.75383 5.41277 5.56772 5.6034 5.36962 5.78895L6.18995 6.66477C6.41001 6.45865 6.61522 6.24827 6.8027 6.05751L5.94685 5.21637ZM5.19513 6.78988C5.42806 7.24203 5.70899 7.66801 6.03313 8.0605L6.9584 7.29638C6.68893 6.97009 6.45545 6.61604 6.26189 6.24032L5.19513 6.78988ZM5.3894 5.77122C5.22936 5.90834 4.94148 6.31485 5.1992 6.79765L6.25782 6.23256C6.30554 6.32196 6.30956 6.42885 6.28177 6.51672C6.26018 6.58496 6.22178 6.63827 6.17017 6.68249L5.3894 5.77122Z" fill="#9C9C9C"/>
</svg>
