<svg width="16" height="16" viewBox="0 0 16 16" fill="none" xmlns="http://www.w3.org/2000/svg">
<path d="M14.0357 5.47117C13.5335 4.04695 12.5438 2.84622 11.2416 2.0813C9.93952 1.31638 8.40884 1.03657 6.92031 1.29134C5.43177 1.54611 4.08128 2.31905 3.10766 3.47348C2.13403 4.6279 1.6 6.08943 1.6 7.59961" stroke="#AF6249" stroke-width="1.2"/>
<path d="M14.3002 0.599609V5.63969H9.68018" stroke="#AF6249" stroke-width="1.2" stroke-miterlimit="10"/>
<path d="M1.97464 10.557C2.48285 11.9762 3.47576 13.1706 4.77835 13.9294C6.08095 14.6883 7.60962 14.963 9.09492 14.7051C10.5802 14.4472 11.9268 13.6732 12.8973 12.5196C13.8678 11.3661 14.4 9.90694 14.4 8.39941" stroke="#AF6249" stroke-width="1.2"/>
<path d="M1.56019 15.2598V10.2197H6.18018" stroke="#AF6249" stroke-width="1.2" stroke-miterlimit="10"/>
</svg>
