<svg width="16" height="16" viewBox="0 0 16 16" fill="none" xmlns="http://www.w3.org/2000/svg">
<path d="M12.1679 10.8936L8 15.1431L3.83214 10.8936C3.00612 10.0513 2.44232 8.97687 2.21379 7.80545C1.98526 6.63397 2.10265 5.41983 2.55067 4.31702C2.99865 3.21432 3.7565 2.27369 4.72662 1.61278C5.69659 0.951959 6.83572 0.6 8 0.6C9.16428 0.6 10.3034 0.951959 11.2734 1.61278C12.2435 2.27369 13.0013 3.21432 13.4493 4.31702C13.8973 5.41983 14.0147 6.63397 13.7862 7.80545C13.5577 8.97687 12.9939 10.0513 12.1679 10.8936Z" stroke="#9C9C9C" stroke-width="1.2"/>
<path d="M9.72157 6.58829C9.72157 7.56407 8.94326 8.34123 8.00014 8.34123C7.05702 8.34123 6.27871 7.56407 6.27871 6.58829C6.27871 5.61252 7.05702 4.83535 8.00014 4.83535C8.94326 4.83535 9.72157 5.61252 9.72157 6.58829Z" stroke="#9C9C9C" stroke-width="1.2" stroke-miterlimit="10"/>
</svg>
