<svg id="Icon_Mypage_Default" xmlns="http://www.w3.org/2000/svg" width="20" height="20" viewBox="0 0 20 20">
  <rect id="Guide" width="20" height="20" fill="#fff"/>
  <g id="Icon" transform="translate(-297.134 -235.915)">
    <g id="패스_3214" data-name="패스 3214" fill="none" stroke-miterlimit="10">
      <path d="M316.134,255.415v-3a9,9,0,0,0-9-9h0a9,9,0,0,0-9,9v3Z" stroke="none"/>
      <path d="M 314.6340026855469 253.9149932861328 L 314.6340026855469 252.4149932861328 C 314.6340026855469 248.2794799804688 311.2695007324219 244.9149932861328 307.1340026855469 244.9149932861328 C 302.9985046386719 244.9149932861328 299.6340026855469 248.2794799804688 299.6340026855469 252.4149932861328 L 299.6340026855469 253.9149932861328 L 314.6340026855469 253.9149932861328 M 316.1340026855469 255.4149932861328 L 298.1340026855469 255.4149932861328 L 298.1340026855469 252.4149932861328 C 298.1340026855469 247.4450073242188 302.1640014648438 243.4149932861328 307.1340026855469 243.4149932861328 C 312.1050109863281 243.4149932861328 316.1340026855469 247.4450073242188 316.1340026855469 252.4149932861328 L 316.1340026855469 255.4149932861328 Z" stroke="none" fill="#000"/>
    </g>
    <g id="타원_60" data-name="타원 60" transform="translate(303.134 236.915)" fill="none" stroke="#000" stroke-miterlimit="10" stroke-width="1.5">
      <circle cx="4" cy="4" r="4" stroke="none"/>
      <circle cx="4" cy="4" r="3.25" fill="none"/>
    </g>
  </g>
</svg>
