<svg id="Icon_Wish" xmlns="http://www.w3.org/2000/svg" width="20" height="20" viewBox="0 0 20 20">
  <rect id="Guide" width="20" height="20" transform="translate(0)" fill="#fff"/>
  <g id="Icon" transform="translate(-228.767 -226.234)">
    <g id="패스_3212" data-name="패스 3212" fill="none" stroke-miterlimit="10">
      <path d="M239.26,245.234l7.871-8.127a5.909,5.909,0,0,0,0-8.162,5.545,5.545,0,0,0-8.009,0l-.354.365-.353-.365a5.552,5.552,0,0,0-7.729-.278c-.1.089-.192.182-.283.278a5.91,5.91,0,0,0,0,8.163Z" stroke="none"/>
      <path d="M 239.1986694335938 243.1421356201172 C 241.2776489257812 240.9956665039062 245.847412109375 236.2770538330078 246.0477294921875 236.0702209472656 C 246.8341979980469 235.2373352050781 247.2672576904297 234.1565856933594 247.2672576904297 233.0261535644531 C 247.2672576904297 231.8932647705078 246.8323059082031 230.8102264404297 246.0439605712891 229.9780883789062 C 245.2947998046875 229.1894989013672 244.2317657470703 228.7364044189453 243.1313018798828 228.7349700927734 C 242.024658203125 228.7364044189453 240.9594268798828 229.1895446777344 240.208740234375 229.9781799316406 L 240.1991729736328 229.9881439208984 L 238.7666931152344 231.465576171875 L 237.3273315429688 229.9766540527344 C 236.5669403076172 229.1755828857422 235.5300140380859 228.7344207763672 234.4075469970703 228.7344207763672 C 233.3969421386719 228.7344207763672 232.4336853027344 229.104248046875 231.6948089599609 229.7761535644531 C 231.6282806396484 229.8365936279297 231.561767578125 229.9020233154297 231.4919738769531 229.9756164550781 C 230.7022094726562 230.8092346191406 230.2672576904297 231.8924255371094 230.2672729492188 233.0256652832031 C 230.2672729492188 234.1428375244141 230.6899871826172 235.2113952636719 231.4586486816406 236.0401458740234 L 239.1986694335938 243.1421356201172 M 239.26025390625 245.2344207763672 L 230.4030609130859 237.1073303222656 C 228.2220001220703 234.8051605224609 228.2220001220703 231.2461547851562 230.4030609130859 228.9439849853516 C 230.4940185546875 228.8480834960938 230.5880432128906 228.7550659179688 230.6860504150391 228.666015625 C 232.8991241455078 226.6535797119141 236.3591918945312 226.7779083251953 238.4152526855469 228.9439849853516 L 238.7682495117188 229.3091125488281 L 239.1222534179688 228.9439849853516 C 240.1582946777344 227.8555603027344 241.6093139648438 227.2369384765625 243.1293640136719 227.2349700927734 C 244.6473846435547 227.2369384765625 246.0974273681641 227.8565063476562 247.1314544677734 228.9449615478516 C 249.3125152587891 231.2471771240234 249.3125152587891 234.8051605224609 247.1314544677734 237.1073303222656 C 247.1314544677734 237.1073303222656 239.2692565917969 245.2256164550781 239.26025390625 245.2344207763672 Z" stroke="none" fill="#000"/>
    </g>
  </g>
</svg>
