<svg id="Like" xmlns="http://www.w3.org/2000/svg" width="24" height="24" viewBox="0 0 24 24">
  <rect id="Guide" width="24" height="24" fill="#fff" opacity="0"/>
  <g id="패스_3387" data-name="패스 3387" transform="translate(-226.768 -224.234)" fill="none" stroke-miterlimit="10" opacity="0.7">
    <path d="M239.26,245.567l7.871-8.277a6.1,6.1,0,0,0,0-8.313,5.476,5.476,0,0,0-8.009,0l-.354.372-.353-.372a5.481,5.481,0,0,0-7.729-.283q-.147.136-.283.283a6.1,6.1,0,0,0,0,8.314Z" stroke="none"/>
    <path d="M 239.1978302001953 243.4559478759766 C 241.2797241210938 241.2666625976562 245.8310699462891 236.4801788330078 246.0373229980469 236.2632904052734 C 246.8301696777344 235.4083862304688 247.2667541503906 234.2970581054688 247.2667541503906 233.1332244873047 C 247.2667541503906 231.9671173095703 246.8284912109375 230.8537445068359 246.0341033935547 229.9997253417969 C 245.2857360839844 229.1974029541016 244.2261352539062 228.7364044189453 243.1309967041016 228.7349395751953 C 242.0294647216797 228.7364044189453 240.9676818847656 229.1974182128906 240.2179260253906 229.999755859375 L 240.2083892822266 230.0098724365234 L 238.7664031982422 231.5246124267578 L 237.3176727294922 229.9982604980469 C 236.5581359863281 229.1832275390625 235.5245513916016 228.734375 234.4073333740234 228.734375 C 233.4018707275391 228.734375 232.4422454833984 229.1103057861328 231.7055053710938 229.7926788330078 C 231.6382141113281 229.8550109863281 231.5714263916016 229.9219665527344 231.5013732910156 229.9972686767578 C 230.70556640625 230.8527526855469 230.2673034667969 231.9662780761719 230.2673034667969 233.1327056884766 C 230.2673034667969 234.2829132080078 230.6934051513672 235.3816528320312 231.4683227539062 236.2323455810547 L 239.1978302001953 243.4559478759766 M 239.2600250244141 245.5671539306641 L 230.403076171875 237.2898864746094 C 228.2220458984375 234.9451141357422 228.2220458984375 231.3202667236328 230.403076171875 228.9756164550781 C 230.4940185546875 228.8778686523438 230.5880126953125 228.7831878662109 230.6859741210938 228.6924133300781 C 232.8990325927734 226.6427307128906 236.3591156005859 226.7694854736328 238.4150238037109 228.9756164550781 L 238.7679748535156 229.3474578857422 L 239.1219635009766 228.9756164550781 C 240.1579437255859 227.8669891357422 241.6089630126953 227.2369689941406 243.1289978027344 227.2349395751953 C 244.6469573974609 227.2369689941406 246.0969696044922 227.8679962158203 247.1310119628906 228.9765777587891 C 249.3119964599609 231.3213348388672 249.3119964599609 234.9451141357422 247.1310119628906 237.2898864746094 C 247.1310119628906 237.2898864746094 239.2689208984375 245.5581665039062 239.2600250244141 245.5671539306641 Z" stroke="none" fill="#fff"/>
  </g>
</svg>
