<svg xmlns="http://www.w3.org/2000/svg" width="20.22" height="18.535" viewBox="0 0 20.22 18.535">
  <g id="패스_3330" data-name="패스 3330" transform="translate(-228.767 -227.234)" fill="none" stroke-miterlimit="10">
    <path d="M239.376,245.769l7.958-8.369a6.166,6.166,0,0,0,0-8.4,5.536,5.536,0,0,0-8.1,0l-.358.376-.357-.376a5.541,5.541,0,0,0-7.814-.286c-.1.092-.194.188-.286.286a6.167,6.167,0,0,0,0,8.406Z" stroke="none"/>
    <path d="M 239.3010406494141 243.2358551025391 C 241.4787902832031 240.9457550048828 245.8115081787109 236.3891296386719 246.0216064453125 236.1681671142578 C 246.7733001708984 235.356689453125 247.1872100830078 234.3023376464844 247.1872100830078 233.1982879638672 C 247.1872100830078 232.0912017822266 246.7710571289062 231.0341033935547 246.0171203613281 230.2235717773438 C 245.3138732910156 229.4696044921875 244.3179931640625 229.036376953125 243.2897338867188 229.0349731445312 C 242.2541046142578 229.036376953125 241.2559509277344 229.4697113037109 240.5512084960938 230.2238464355469 L 240.5396728515625 230.2360687255859 L 238.8764343261719 231.9829254150391 L 237.2044830322266 230.2220153808594 C 236.4908294677734 229.4561614990234 235.5195159912109 229.0343933105469 234.469482421875 229.0343933105469 C 233.5245666503906 229.0343933105469 232.6227722167969 229.3876647949219 231.9300842285156 230.0292205810547 C 231.8682250976562 230.0864868164062 231.8056488037109 230.1492767333984 231.739013671875 230.2208557128906 C 230.9833984375 231.0331420898438 230.5672607421875 232.0903472900391 230.5672607421875 233.19775390625 C 230.5672607421875 234.2859802246094 230.9691009521484 235.3257598876953 231.7000579833984 236.1323394775391 L 239.3010406494141 243.2358551025391 M 239.3756713867188 245.769287109375 L 230.4210968017578 237.4007720947266 C 228.2159729003906 235.0301513671875 228.2159729003906 231.3652954101562 230.4210968017578 228.9948577880859 C 230.5130462646484 228.8960571289062 230.6080017089844 228.8002624511719 230.7070770263672 228.7085113525391 C 232.9445190429688 226.6362152099609 236.4427947998047 226.7643737792969 238.5213470458984 228.9948577880859 L 238.8782196044922 229.3706970214844 L 239.2360687255859 228.9948577880859 C 240.2835235595703 227.8739776611328 241.75048828125 227.237060546875 243.2872924804688 227.2349700927734 C 244.822021484375 227.237060546875 246.2879791259766 227.875 247.3334045410156 228.9958038330078 C 249.5384674072266 231.3664245605469 249.5384674072266 235.0301513671875 247.3334045410156 237.4007720947266 C 247.3334045410156 237.4007720947266 239.3847045898438 245.76025390625 239.3756713867188 245.769287109375 Z" stroke="none" fill="#fff"/>
  </g>
</svg>
