<svg xmlns="http://www.w3.org/2000/svg" width="36" height="18" viewBox="0 0 36 18">
  <g id="hyundai_logo" transform="translate(-20 -9357)">
    <path id="패스_3211" data-name="패스 3211" d="M17.511,17.938c9.671,0,17.511-4.014,17.511-8.968S27.182,0,17.511,0,0,4.019,0,8.971,7.84,17.938,17.511,17.938Zm3.3-4.4a4.962,4.962,0,0,1-1.949,2.7,2.923,2.923,0,0,1-1.168.269c-.087,0-.149,0-.175,0a30.475,30.475,0,0,1-8.758-1.215c-.022-.006-.079-.029-.1-.036-.232-.077-.351-.186-.351-.317a.39.39,0,0,1,.144-.285c.035-.036.089-.081.159-.141A20.493,20.493,0,0,1,14.242,11.5a27.712,27.712,0,0,1,4.12-1.313C19.251,10,22.548,9.492,20.806,13.539ZM29.654,4.5a.356.356,0,0,1,.3-.209.609.609,0,0,1,.364.119c2.057,1.266,3.275,2.846,3.275,4.558,0,3.093-3.976,5.75-9.659,6.913-.366.071-.608.069-.691-.023a.218.218,0,0,1,0-.277,1.436,1.436,0,0,1,.151-.211A46.037,46.037,0,0,0,29.514,4.784C29.564,4.676,29.614,4.57,29.654,4.5ZM14.267,4.386a4.974,4.974,0,0,1,1.949-2.7,2.893,2.893,0,0,1,1.168-.268c.086,0,.149,0,.173,0A30.424,30.424,0,0,1,26.32,2.637c.018.006.077.029.1.035.232.077.352.184.352.317a.4.4,0,0,1-.144.284c-.036.035-.089.081-.16.14a20.464,20.464,0,0,1-5.63,3.015,27.645,27.645,0,0,1-4.12,1.314C15.822,7.931,12.526,8.432,14.267,4.386ZM11.091,2.058c.366-.071.607-.07.694.023a.231.231,0,0,1,0,.276,1.7,1.7,0,0,1-.153.21A46.029,46.029,0,0,0,5.506,13.155c-.05.107-.1.213-.142.283a.35.35,0,0,1-.293.21.631.631,0,0,1-.366-.119C2.65,12.262,1.429,10.682,1.429,8.97,1.429,5.877,5.405,3.219,11.091,2.058Z" transform="translate(20.422 9356.995)" fill="#002c5f"/>
    <rect id="사각형_17765" data-name="사각형 17765" width="36" height="18" transform="translate(20 9357)" fill="none"/>
  </g>
</svg>
