<svg xmlns="http://www.w3.org/2000/svg" width="30" height="29.032" viewBox="0 0 30 29.032">
  <g id="그룹_648" data-name="그룹 648" transform="translate(2 0.775)">
    <rect id="Guide" width="30" height="29.032" transform="translate(-2 -0.775)" fill="#fff" opacity="0"/>
    <path id="패스_3379" data-name="패스 3379" d="M26.878,13.153a.572.572,0,0,0-.573.572,12.584,12.584,0,0,1-24.173,4.9A12.581,12.581,0,0,1,22.359,4.575h-2.1a.572.572,0,0,0,0,1.143h3.431a.572.572,0,0,0,.573-.572V1.716a.572.572,0,0,0-1.144,0v2a13.724,13.724,0,1,0,4.329,10A.572.572,0,0,0,26.878,13.153Z" transform="translate(-0.5)"/>
    <line id="선_33" data-name="선 33" x2="13.669" transform="translate(6.666 13.725)" fill="none" stroke="#000" stroke-width="1.2"/>
    <g id="W" transform="translate(-382.117 -464.008)" style="isolation: isolate">
      <g id="그룹_677" data-name="그룹 677" style="isolation: isolate">
        <path id="패스_3404" data-name="패스 3404" d="M389.943,473.313h1.482l1.379,5.72c.077.329.144.642.2.937a3.846,3.846,0,0,1,.084.585h.039c.009-.1.041-.291.1-.585s.131-.608.227-.937l1.573-5.72h1.508l1.561,5.72c.094.329.173.642.233.937a3.658,3.658,0,0,1,.091.585h.053a3.847,3.847,0,0,1,.084-.585c.056-.3.124-.608.2-.937l1.379-5.72h1.481l-2.327,8.84h-1.6l-1.573-5.824c-.087-.329-.16-.635-.221-.916a3.388,3.388,0,0,1-.09-.579h-.039q-.014.156-.1.579c-.057.281-.133.587-.228.916l-1.573,5.824h-1.6Z" fill="#070203"/>
      </g>
    </g>
  </g>
</svg>
