<svg xmlns="http://www.w3.org/2000/svg" width="30" height="29.032" viewBox="0 0 30 29.032">
  <g id="Icon" transform="translate(-1250 -4291)">
    <rect id="Guide" width="30" height="29.032" transform="translate(1250 4291)" fill="#fff" opacity="0"/>
    <g id="Iconnn" transform="translate(1250.625 4293.186)">
      <path id="패스_3341" data-name="패스 3341" d="M1139.857,560.036h-3.684a2.1,2.1,0,0,1-2.1-2.1V545.812a2.1,2.1,0,0,1,2.1-2.1h17.444a2.1,2.1,0,0,1,2.1,2.1v2.979" transform="translate(-1133.076 -542.714)" fill="none" stroke="#000" stroke-linejoin="round" stroke-width="1.2"/>
      <path id="패스_3338" data-name="패스 3338" d="M1153.938,572.271h14.417a2.1,2.1,0,0,0,2.1-2.1V558.047a2.1,2.1,0,0,0-2.1-2.1h-17.444a2.1,2.1,0,0,0-2.1,2.1V575.84Z" transform="translate(-1141.947 -549.742)" fill="none" stroke="#000" stroke-linejoin="round" stroke-width="1.2"/>
      <g id="_" data-name=" " transform="translate(-377.84 -463.331)" style="isolation: isolate">
        <g id="그룹_676" data-name="그룹 676" style="isolation: isolate">
          <path id="패스_3403" data-name="패스 3403" d="M395.7,473.145a3,3,0,0,1,1.034.168,2.341,2.341,0,0,1,.787.468,2.091,2.091,0,0,1,.5.7,2.21,2.21,0,0,1,.174.884,2.339,2.339,0,0,1-.1.69,2.9,2.9,0,0,1-.254.578,2.567,2.567,0,0,1-.364.481c-.139.143-.282.28-.429.409l-.533.481a1.636,1.636,0,0,0-.429.52,1.375,1.375,0,0,0-.078.637H394.76a1.326,1.326,0,0,1-.1-.533,1.537,1.537,0,0,1,.11-.532,2.036,2.036,0,0,1,.293-.5,4.221,4.221,0,0,1,.422-.461l.521-.482a4.2,4.2,0,0,0,.513-.578,1.086,1.086,0,0,0-.09-1.372,1.09,1.09,0,0,0-.813-.3,1.164,1.164,0,0,0-.819.3,1.452,1.452,0,0,0-.429.807l-1.132-.455a2.992,2.992,0,0,1,.286-.716,2.188,2.188,0,0,1,.5-.611,2.524,2.524,0,0,1,.722-.422A2.574,2.574,0,0,1,395.7,473.145Zm-1.2,7.241h1.807v1.767H394.5Z" fill="#070203"/>
        </g>
      </g>
    </g>
  </g>
</svg>
