<svg xmlns="http://www.w3.org/2000/svg" width="19.081" height="11.2" viewBox="0 0 19.081 11.2">
  <g id="icon" transform="translate(-288.9 -902.05)">
    <path id="Rectangle_33" data-name="Rectangle 33" d="M18.909,21.727,27.091,19a.909.909,0,0,1,.909.909v8.182a.909.909,0,0,1-.909.909l-8.182-2.727c-.552-.161-.909-.407-.909-.909V22.636C18,22.134,18.336,21.911,18.909,21.727Z" transform="translate(273.999 883.65)" fill="none" stroke="gray" stroke-width="1.2"/>
    <path id="패스_3340" data-name="패스 3340" d="M288.537,904.686v4" transform="translate(0.963 0.994)" fill="none" stroke="gray" stroke-linecap="round" stroke-width="1.2"/>
    <g id="그룹_614" data-name="그룹 614" transform="translate(0.399 -0.242)">
      <path id="패스_3341" data-name="패스 3341" d="M0,0V2.279" transform="translate(306.881 907.887) rotate(90)" fill="none" stroke="gray" stroke-linecap="round" stroke-width="1.2"/>
      <path id="패스_3342" data-name="패스 3342" d="M0,0V2.279" transform="translate(306.825 904.117) rotate(72)" fill="none" stroke="gray" stroke-linecap="round" stroke-width="1.2"/>
      <path id="패스_3344" data-name="패스 3344" d="M0,2.279V0" transform="matrix(0.309, -0.951, 0.951, 0.309, 304.658, 911.022)" fill="none" stroke="gray" stroke-linecap="round" stroke-width="1.2"/>
    </g>
  </g>
</svg>
