<svg xmlns="http://www.w3.org/2000/svg" width="110" height="15.129" viewBox="0 0 110 15.129"><g transform="translate(34.973 2.136)"><path d="M97.4,5.509V9.646H92.708V5.509H90.123V16.367h2.585V12H97.4v4.366h2.584V5.509H97.4Z" transform="translate(-90.123 -5.509)" fill="#1a1311"/><path d="M126.613,5.509l-2.7,4.3-2.7-4.3h-3.05l4.463,7.1v3.761H125.2V12.607l4.463-7.1h-3.052Z" transform="translate(-107.278 -5.509)" fill="#1a1311"/><path d="M157.763,5.509v7.959a.537.537,0,0,1-.55.547h-4.143V5.509h-2.584V16.367h7.637a2.06,2.06,0,0,0,2.221-2.218V5.509h-2.581Z" transform="translate(-127.061 -5.509)" fill="#1a1311"/><path d="M189.7,5.509h-7.64V16.367h2.584V7.86h4.146a.537.537,0,0,1,.548.544v7.963h2.581V7.729a2.209,2.209,0,0,0-.6-1.621A2.2,2.2,0,0,0,189.7,5.509Z" transform="translate(-146.386 -5.509)" fill="#1a1311"/><path d="M221.283,5.509h-7.639V16.367h7.639a2.063,2.063,0,0,0,2.218-2.218V7.729a2.2,2.2,0,0,0-.6-1.622A2.2,2.2,0,0,0,221.283,5.509Zm-.364,2.913v5.032a.547.547,0,0,1-.552.562h-4.142V7.86h4.126A.541.541,0,0,1,220.919,8.422Z" transform="translate(-165.711 -5.509)" fill="#1a1311"/><path d="M247.149,5.509a2.189,2.189,0,0,0-1.621.6,2.192,2.192,0,0,0-.6,1.621v8.638h2.578V13.008H252.2v3.359h2.581V5.509ZM252.2,7.86v2.8h-4.695V8.412a.549.549,0,0,1,.551-.552Z" transform="translate(-184.857 -5.509)" fill="#1a1311"/><rect width="2.584" height="10.858" transform="translate(72.444 0)" fill="#1a1311"/></g><path d="M14.772,15.134c8.159,0,14.772-3.386,14.772-7.565S22.931,0,14.772,0,0,3.392,0,7.569,6.614,15.134,14.772,15.134Zm2.78-3.712A4.186,4.186,0,0,1,15.908,13.7a2.466,2.466,0,0,1-.986.227c-.073,0-.125,0-.147,0A25.709,25.709,0,0,1,7.387,12.9c-.018-.005-.067-.025-.082-.031-.2-.065-.3-.157-.3-.267a.329.329,0,0,1,.121-.24c.029-.031.075-.068.134-.119A17.288,17.288,0,0,1,12.015,9.7,23.378,23.378,0,0,1,15.49,8.591C16.24,8.434,19.021,8.008,17.553,11.422ZM25.016,3.8a.3.3,0,0,1,.249-.177.513.513,0,0,1,.307.1c1.735,1.068,2.763,2.4,2.763,3.845,0,2.609-3.354,4.851-8.149,5.832-.309.06-.513.059-.583-.019a.184.184,0,0,1,0-.234,1.211,1.211,0,0,1,.128-.178A38.837,38.837,0,0,0,24.9,4.037C24.941,3.946,24.983,3.856,25.016,3.8Zm-12.98-.1A4.2,4.2,0,0,1,13.68,1.425a2.441,2.441,0,0,1,.986-.226c.073,0,.125,0,.146,0A25.666,25.666,0,0,1,22.2,2.225c.016,0,.065.024.08.03.2.065.3.155.3.267a.338.338,0,0,1-.122.24c-.03.029-.075.068-.135.118a17.264,17.264,0,0,1-4.75,2.544A23.321,23.321,0,0,1,14.1,6.532C13.347,6.691,10.567,7.114,12.036,3.7ZM9.356,1.737c.309-.06.512-.059.585.019a.2.2,0,0,1,0,.232,1.435,1.435,0,0,1-.129.177A38.83,38.83,0,0,0,4.645,11.1c-.042.09-.085.18-.12.239a.3.3,0,0,1-.247.177.532.532,0,0,1-.309-.1c-1.733-1.069-2.764-2.4-2.764-3.846C1.205,4.959,4.56,2.716,9.356,1.737Z" transform="translate(0 -0.005)" fill="#1a1311"/></svg>