<svg width="48" height="48" viewBox="0 0 48 48" fill="none" xmlns="http://www.w3.org/2000/svg">
<path opacity="0.3" d="M24.3 35.8C30.6513 35.8 35.8 30.6513 35.8 24.3C35.8 17.9487 30.6513 12.8 24.3 12.8C17.9487 12.8 12.8 17.9487 12.8 24.3C12.8 30.6513 17.9487 35.8 24.3 35.8Z" fill="#00AAD2"/>
<path d="M7.79999 17.931V10.523C7.85043 9.75313 8.14741 9.03773 8.62742 8.52976C9.10742 8.02178 9.73236 7.76154 10.3687 7.80461H17.4239" stroke="#333333" stroke-width="1.8" stroke-miterlimit="10"/>
<path d="M40.066 17.931V10.523C40.0156 9.75313 39.7186 9.03773 39.2386 8.52976C38.7586 8.02178 38.1337 7.76154 37.4974 7.80461H30.4421" stroke="#333333" stroke-width="1.8" stroke-miterlimit="10"/>
<path d="M7.79999 29.9341V37.3321C7.85043 38.1028 8.1471 38.8192 8.62684 39.3289C9.10659 39.8386 9.73153 40.1013 10.3687 40.061H17.4239" stroke="#333333" stroke-width="1.8" stroke-miterlimit="10"/>
<path d="M40.0665 29.934V37.3321C40.0161 38.1028 39.7194 38.8192 39.2397 39.3289C38.7599 39.8386 38.135 40.1012 37.4979 40.061H30.4426" stroke="#333333" stroke-width="1.8" stroke-miterlimit="10"/>
<path d="M30.9005 24.3002C30.9005 27.9453 27.9456 30.9002 24.3005 30.9002C20.6554 30.9002 17.7005 27.9453 17.7005 24.3002C17.7005 20.6552 20.6554 17.7002 24.3005 17.7002C27.9456 17.7002 30.9005 20.6552 30.9005 24.3002Z" stroke="#333333" stroke-width="1.8"/>
</svg>
