<svg width="24" height="24" viewBox="0 0 24 24" fill="none" xmlns="http://www.w3.org/2000/svg">
<path d="M10 9C13.866 9 17 7.65685 17 6C17 4.34315 13.866 3 10 3C6.13401 3 3 4.34315 3 6C3 7.65685 6.13401 9 10 9Z" stroke="black" stroke-width="1.5" stroke-miterlimit="10"/>
<path d="M3 6V9.73462C3 11.0198 6.13594 12.5 10 12.5C13.8641 12.5 17 11.0159 17 9.73462V6" stroke="black" stroke-width="1.5" stroke-miterlimit="10"/>
<path d="M3 9.5V13.2346C3 14.5198 6.13594 16 10 16C13.8641 16 17 14.5159 17 13.2346V9.5" stroke="black" stroke-width="1.5" stroke-miterlimit="10"/>
<path d="M3 13V16.7346C3 18.0198 6.13594 19.5 10 19.5C13.8641 19.5 17 18.0159 17 16.7346V13" stroke="black" stroke-width="1.5" stroke-miterlimit="10"/>
<path d="M20.4 16C20.4 18.4301 18.4301 20.4 16 20.4C13.5699 20.4 11.6 18.4301 11.6 16C11.6 13.5699 13.5699 11.6 16 11.6C18.4301 11.6 20.4 13.5699 20.4 16Z" fill="white" stroke="black" stroke-width="1.2" stroke-miterlimit="10"/>
<path d="M17.4173 17.9624H16.8239L15.9997 15.3098L15.1755 17.9624H14.5821L13.4612 14.27H14.0546L14.8788 16.8778L15.703 14.27H16.2964L17.1206 16.8778L17.9448 14.27H18.5382L17.4173 17.9624Z" fill="black"/>
<mask id="path-7-inside-1_5534_7890" fill="white">
<path d="M14.3846 15.6548H13V16.301H14.3846V15.6548Z"/>
</mask>
<path d="M13 15.6548V14.6548H12V15.6548H13ZM14.3846 15.6548H15.3846V14.6548H14.3846V15.6548ZM14.3846 16.301V17.301H15.3846V16.301H14.3846ZM13 16.301H12V17.301H13V16.301ZM13 16.6548H14.3846V14.6548H13V16.6548ZM13.3846 15.6548V16.301H15.3846V15.6548H13.3846ZM14.3846 15.301H13V17.301H14.3846V15.301ZM14 16.301V15.6548H12V16.301H14Z" fill="black" mask="url(#path-7-inside-1_5534_7890)"/>
<mask id="path-9-inside-2_5534_7890" fill="white">
<path d="M19.0001 15.6548H17.6155V16.301H19.0001V15.6548Z"/>
</mask>
<path d="M17.6155 15.6548V14.6548H16.6155V15.6548H17.6155ZM19.0001 15.6548H20.0001V14.6548H19.0001V15.6548ZM19.0001 16.301V17.301H20.0001V16.301H19.0001ZM17.6155 16.301H16.6155V17.301H17.6155V16.301ZM17.6155 16.6548H19.0001V14.6548H17.6155V16.6548ZM18.0001 15.6548V16.301H20.0001V15.6548H18.0001ZM19.0001 15.301H17.6155V17.301H19.0001V15.301ZM18.6155 16.301V15.6548H16.6155V16.301H18.6155Z" fill="black" mask="url(#path-9-inside-2_5534_7890)"/>
</svg>
