<svg width="24" height="24" viewBox="0 0 24 24" fill="none" xmlns="http://www.w3.org/2000/svg">
<path d="M12.5 22C18.0228 22 22.5 17.5228 22.5 12C22.5 6.47715 18.0228 2 12.5 2C6.97715 2 2.5 6.47715 2.5 12C2.5 17.5228 6.97715 22 12.5 22Z" stroke="black" stroke-width="1.2" stroke-miterlimit="10"/>
<path d="M11.636 15.6364C11.636 15.1594 12.0227 14.7727 12.4996 14.7727C12.9766 14.7727 13.3633 15.1594 13.3633 15.6364C13.3633 16.1133 12.9766 16.5 12.4996 16.5C12.0227 16.5 11.636 16.1133 11.636 15.6364Z" fill="black" stroke="black"/>
<rect x="12.9561" y="12.4546" width="0.909091" height="5" transform="rotate(-180 12.9561 12.4546)" fill="black" stroke="black" stroke-width="0.909091"/>
</svg>
