<svg width="60" height="60" viewBox="0 0 60 60" fill="none" xmlns="http://www.w3.org/2000/svg">
<path d="M30.0005 59C46.0167 59 59.0005 46.0163 59.0005 30C59.0005 13.9837 46.0167 1 30.0005 1C13.9842 1 1.00049 13.9837 1.00049 30C1.00049 46.0163 13.9842 59 30.0005 59Z" fill="black" fill-opacity="0.25"/>
<path d="M58.0005 30C58.0005 45.464 45.4645 58 30.0005 58C14.5365 58 2.00049 45.464 2.00049 30C2.00049 14.536 14.5365 2 30.0005 2C45.4645 2 58.0005 14.536 58.0005 30Z" stroke="white" stroke-opacity="0.5" stroke-width="2"/>
<path d="M38.0005 30L24.0005 39L24.0005 21L38.0005 30Z" fill="white"/>
</svg>
