<svg width="16" height="16" viewBox="0 0 16 16" fill="none" xmlns="http://www.w3.org/2000/svg">
<path d="M13.5138 4.07126L13.5185 4.08019L13.5235 4.08896C13.6491 4.30892 13.7442 4.54625 13.8059 4.79405L13.8065 4.79638C13.8723 5.05627 13.9037 5.32425 13.8997 5.593L13.8995 5.593L13.8996 5.60568C13.9027 6.11356 13.7724 6.61204 13.5234 7.04853L13.5197 7.05506L13.5161 7.06167C13.3949 7.28716 13.2409 7.49504 13.0614 7.6762L13.0546 7.68299L13.0481 7.69L8 13.1189L2.95188 7.69L2.94632 7.68402L2.9406 7.67819C2.75877 7.49302 2.60098 7.28385 2.47145 7.05588C2.35161 6.8322 2.25799 6.59438 2.19271 6.34744C2.13129 6.10463 2.10041 5.85404 2.10041 5.60199H2.10047L2.10034 5.59307C2.09634 5.32428 2.1277 5.05625 2.19349 4.79631L2.19352 4.79632L2.19505 4.79C2.3174 4.28358 2.5749 3.8243 2.93644 3.46328L2.93648 3.46331L2.94151 3.45816C3.20888 3.18468 3.5246 2.96788 3.87076 2.81903C4.56513 2.52716 5.34252 2.52699 6.03699 2.81853C6.35635 2.95767 6.65137 3.15103 6.90963 3.391L6.93068 3.41693L6.94779 3.438L6.96674 3.45744L7.57027 4.07682L8 4.51783L8.42972 4.07682L9.03326 3.45744L9.0522 3.438L9.06931 3.41693L9.09037 3.391C9.34862 3.15103 9.64366 2.95766 9.96301 2.81852C10.6575 2.52699 11.4349 2.52716 12.1292 2.81903C12.4754 2.96788 12.7911 3.18468 13.0585 3.45816L13.0584 3.45821L13.0653 3.46504C13.2438 3.64177 13.3952 3.84617 13.5138 4.07126ZM14.0446 3.79149C14.1976 4.05949 14.3132 4.34816 14.3882 4.6491C14.4669 4.96014 14.5044 5.28066 14.4996 5.60199C14.5034 6.21465 14.3462 6.81703 14.0446 7.34579C13.8961 7.62212 13.7076 7.87655 13.4875 8.09857L14.0446 3.79149Z" stroke="white" stroke-width="1.2"/>
</svg>
